<svg width="34" height="39" viewBox="0 0 34 39" fill="none" xmlns="http://www.w3.org/2000/svg">
<path d="M14.9957 25.6527L9.83948 19.6618L11.2966 17.9691L14.9957 22.265L22.8178 13.1774L24.277 14.8725L14.9957 25.6527Z" fill="black"/>
<path d="M17.0579 2.39624C14.2024 2.39624 11.4111 3.37985 9.03682 5.2227C6.66259 7.06554 4.8121 9.68484 3.71936 12.7494C2.62662 15.8139 2.34071 19.186 2.89778 22.4393C3.45485 25.6926 4.82989 28.681 6.84901 31.0265C8.86813 33.3719 11.4407 34.9692 14.2413 35.6164C17.0419 36.2635 19.9448 35.9314 22.5829 34.662C25.221 33.3926 27.4758 31.243 29.0622 28.485C30.6486 25.727 31.4954 22.4845 31.4954 19.1674C31.4954 14.7194 29.9743 10.4536 27.2667 7.30841C24.5592 4.1632 20.8869 2.39624 17.0579 2.39624ZM17.0579 33.5427C14.6103 33.5427 12.2177 32.6996 10.1827 31.1201C8.14763 29.5405 6.56149 27.2954 5.62486 24.6686C4.68822 22.0419 4.44316 19.1515 4.92065 16.3629C5.39814 13.5744 6.57675 11.013 8.30742 9.00255C10.0381 6.99213 12.2431 5.62302 14.6436 5.06834C17.0441 4.51367 19.5323 4.79835 21.7936 5.88638C24.0548 6.97441 25.9875 8.81693 27.3473 11.1809C28.7071 13.5449 29.4329 16.3243 29.4329 19.1674C29.4329 22.98 28.1291 26.6364 25.8083 29.3323C23.4876 32.0282 20.3399 33.5427 17.0579 33.5427Z" fill="black"/>
</svg>
