<svg width="48" height="48" viewBox="0 0 48 48" fill="none" xmlns="http://www.w3.org/2000/svg">
<circle cx="24" cy="24" r="24" fill="#4D4949" fill-opacity="0.77"/>
<path d="M28 14H20C18.3439 14.0018 17.0018 15.3439 17 17V33.5C17.0001 33.5871 17.023 33.6727 17.0663 33.7483C17.204 33.9882 17.5101 34.0711 17.75 33.9336L24 30.334L30.25 33.9336C30.3262 33.9768 30.4124 33.9997 30.5 34C30.7759 33.9995 30.9995 33.7759 31 33.5V17C30.9982 15.3439 29.6561 14.0018 28 14ZM30 32.6347L24.25 29.3232C24.1738 29.2799 24.0876 29.2571 24 29.2568C23.9124 29.2571 23.8262 29.2799 23.75 29.3232L18 32.6347V17C18.0014 15.896 18.896 15.0014 20 15H28C29.104 15.0014 29.9986 15.896 30 17V32.6347Z" fill="#D3D3D3"/>
</svg>
