<svg width="223" height="539" viewBox="0 0 223 539" fill="none" xmlns="http://www.w3.org/2000/svg">
<g clip-path="url(#clip0_191_2282)">
<g clip-path="url(#clip1_191_2282)">
<path d="M130.572 318.439C129.842 316.834 129.096 315.219 128.324 313.61C128.116 313.161 128.291 312.616 128.74 312.408C129.189 312.2 129.734 312.374 129.942 312.823C130.73 314.441 131.491 316.065 132.212 317.686C132.42 318.135 132.22 318.687 131.755 318.886C131.478 319.023 131.156 318.983 130.917 318.84C130.757 318.744 130.642 318.611 130.556 318.429L130.572 318.439ZM127.577 308.011C126.771 306.425 125.948 304.83 125.1 303.241C124.867 302.798 124.321 302.624 123.869 302.873C123.426 303.107 123.268 303.662 123.502 304.104C124.334 305.684 125.166 307.263 125.956 308.84C126.036 308.996 126.151 309.13 126.295 309.215C126.55 309.368 126.882 309.393 127.168 309.239C127.611 309.006 127.801 308.47 127.567 308.027L127.577 308.011ZM142.27 348.875C142.477 348.999 142.732 349.043 142.997 348.963C143.475 348.815 143.754 348.311 143.607 347.833C143.084 346.135 142.545 344.427 141.99 342.71C141.842 342.232 141.319 341.985 140.841 342.132C140.363 342.28 140.116 342.803 140.263 343.281C140.828 344.982 141.351 346.68 141.858 348.369C141.915 348.598 142.069 348.776 142.26 348.891L142.27 348.875ZM52.3221 485.937C51.538 484.386 50.7571 482.794 49.9793 481.16C49.7712 480.711 49.2352 480.52 48.7702 480.719C48.3211 480.927 48.1309 481.463 48.3295 481.928C49.1138 483.587 49.9011 485.205 50.6852 486.756C50.7652 486.912 50.8897 487.03 51.0333 487.116C51.2886 487.268 51.6202 487.293 51.9068 487.139C52.3495 486.906 52.5237 486.36 52.3061 485.927L52.3221 485.937ZM122.509 298.553C121.642 296.996 120.75 295.446 119.832 293.901C119.573 293.465 119.024 293.332 118.597 293.575C118.161 293.834 118.028 294.383 118.271 294.81C119.173 296.344 120.066 297.895 120.926 299.427C121.016 299.567 121.125 299.675 121.252 299.751C121.523 299.913 121.865 299.922 122.151 299.769C122.578 299.525 122.736 298.97 122.493 298.544L122.509 298.553ZM138.922 338.712C139.145 338.846 139.426 338.884 139.684 338.778C140.155 338.605 140.393 338.097 140.236 337.636C139.637 335.957 139.038 334.278 138.397 332.596C138.214 332.141 137.691 331.893 137.235 332.076C136.764 332.249 136.532 332.781 136.715 333.237C137.34 334.909 137.949 336.572 138.548 338.251C138.615 338.464 138.762 338.617 138.938 338.722L138.922 338.712ZM45.7522 471.382C45.5696 470.926 45.0368 470.694 44.5813 470.877C44.1258 471.06 43.8942 471.592 44.0768 472.048C44.7495 473.749 45.4509 475.402 46.1394 477.004C46.2258 477.186 46.3568 477.329 46.5004 477.415C46.7398 477.558 47.0459 477.589 47.3134 477.467C47.7785 477.269 47.9846 476.742 47.7861 476.277C47.0975 474.675 46.4122 473.032 45.7458 471.356L45.7522 471.382ZM134.754 328.255C134.831 328.453 134.962 328.596 135.122 328.691C135.361 328.834 135.651 328.856 135.925 328.76C136.381 328.577 136.612 328.044 136.43 327.589C135.77 325.939 135.068 324.286 134.367 322.633C134.184 322.177 133.642 321.962 133.177 322.16C132.712 322.359 132.506 322.885 132.704 323.35C133.415 324.987 134.101 326.631 134.745 328.271L134.754 328.255ZM42.0253 461.383C41.8522 460.911 41.3544 460.657 40.867 460.821C40.3955 460.994 40.1415 461.491 40.305 461.979C40.9013 463.699 41.5167 465.387 42.1192 467.025C42.1961 467.222 42.3335 467.391 42.4931 467.486C42.7165 467.62 42.9971 467.657 43.271 467.561C43.7425 467.388 43.9741 466.855 43.7915 466.4C43.189 464.762 42.5801 463.1 41.9838 461.379L42.0253 461.383ZM144.097 469.199C143.568 470.919 143.016 472.603 142.443 474.252C142.303 474.667 142.47 475.113 142.837 475.332C142.885 475.361 142.948 475.399 142.996 475.427C143.459 475.595 143.978 475.343 144.146 474.88C144.729 473.215 145.3 471.499 145.838 469.763C145.99 469.291 145.728 468.788 145.24 468.627C144.768 468.475 144.255 468.753 144.103 469.225L144.097 469.199ZM140.584 479.248C139.934 480.916 139.236 482.556 138.541 484.155C138.351 484.582 138.514 485.07 138.897 485.298C138.929 485.317 138.961 485.336 138.993 485.356C139.452 485.565 139.984 485.363 140.178 484.894C140.908 483.273 141.59 481.624 142.259 479.924C142.443 479.471 142.209 478.919 141.747 478.751C141.278 478.558 140.768 478.795 140.575 479.264L140.584 479.248ZM117.052 289.275C116.116 287.763 115.163 286.241 114.184 284.725C113.916 284.305 113.357 284.188 112.937 284.457C112.517 284.725 112.4 285.283 112.669 285.704C113.631 287.21 114.594 288.716 115.515 290.218C115.588 290.349 115.706 290.441 115.818 290.508C116.089 290.67 116.456 290.672 116.752 290.503C117.172 290.234 117.305 289.686 117.046 289.249L117.052 289.275ZM146.901 458.923C146.487 460.668 146.041 462.393 145.588 464.093C145.484 464.485 145.669 464.899 146.004 465.099C146.068 465.138 146.148 465.185 146.231 465.191C146.713 465.328 147.209 465.04 147.345 464.558C147.807 462.842 148.254 461.117 148.661 459.347C148.782 458.856 148.484 458.375 147.993 458.255C147.502 458.134 147.021 458.432 146.901 458.923ZM136.281 488.953C135.477 490.552 134.642 492.132 133.804 493.644C133.556 494.059 133.707 494.604 134.137 494.861L134.153 494.871C134.584 495.128 135.139 494.961 135.38 494.521C136.238 492.976 137.082 491.381 137.905 489.75C138.13 489.3 137.938 488.753 137.504 488.537C137.054 488.311 136.516 488.488 136.29 488.937L136.281 488.953ZM148.032 453.731C147.953 454.117 148.132 454.506 148.451 454.696C148.531 454.744 148.627 454.801 148.735 454.801C149.22 454.896 149.71 454.582 149.805 454.097C150.168 452.366 150.493 450.59 150.802 448.804C150.881 448.31 150.558 447.835 150.063 447.756C149.569 447.678 149.095 448.001 149.016 448.495C148.717 450.265 148.37 452.006 148.032 453.731ZM151.841 411.362C151.842 411.687 152.021 411.967 152.276 412.119C152.42 412.205 152.582 412.259 152.758 412.256C153.258 412.251 153.656 411.839 153.652 411.339C153.626 409.57 153.578 407.766 153.504 405.968C153.484 405.458 153.062 405.076 152.568 405.106C152.058 405.126 151.677 405.547 151.706 406.041C151.78 407.839 151.831 409.602 151.857 411.371L151.841 411.362ZM151.086 432.67C151.051 433.018 151.243 433.349 151.531 433.52C151.642 433.587 151.773 433.622 151.913 433.641C152.411 433.678 152.847 433.31 152.9 432.823C153.05 431.05 153.183 429.268 153.31 427.46C153.348 426.963 152.955 426.533 152.457 426.496C151.96 426.459 151.53 426.851 151.493 427.349C151.375 429.141 151.251 430.907 151.095 432.654L151.086 432.67ZM78.8693 518.228C77.4172 517.36 75.9839 516.353 74.5664 515.246C74.1801 514.95 73.6001 515.015 73.3043 515.402C72.9991 515.804 73.0735 516.368 73.4598 516.664C74.9412 517.808 76.4383 518.854 77.9542 519.76C78.3851 520.017 78.9459 519.876 79.1937 519.461C79.4511 519.03 79.3257 518.479 78.8948 518.221L78.8693 518.228ZM57.5108 495.228C56.6122 493.761 55.7102 492.226 54.8369 490.643C54.5938 490.217 54.0388 490.058 53.6121 490.301C53.1854 490.545 53.0271 491.1 53.2702 491.526C54.166 493.144 55.0839 494.688 55.989 496.181C56.0625 496.312 56.1807 496.404 56.2924 496.471C56.5636 496.633 56.9302 496.635 57.2264 496.466C57.6466 496.197 57.7794 495.649 57.5204 495.213L57.5108 495.228ZM98.7255 522.9C97.0013 523.104 95.28 523.159 93.5457 523.054C93.0483 523.017 92.6188 523.41 92.5815 523.907C92.563 524.264 92.7485 524.57 93.0198 524.732C93.1475 524.808 93.2782 524.843 93.4185 524.862C95.2358 524.973 97.1069 524.921 98.9235 524.707C99.4111 524.652 99.7704 524.196 99.7153 523.708C99.6442 523.211 99.2036 522.861 98.716 522.916L98.7255 522.9ZM150.624 444.281C151.118 444.359 151.586 444.011 151.649 443.507C151.897 441.75 152.139 439.968 152.34 438.182C152.393 437.695 152.035 437.243 151.547 437.189C151.044 437.127 150.608 437.494 150.554 437.982C150.354 439.767 150.131 441.518 149.867 443.265C149.813 443.645 149.996 443.992 150.299 444.173C150.394 444.23 150.516 444.281 150.64 444.29L150.624 444.281ZM153.545 422.101C153.612 420.322 153.647 418.524 153.665 416.717C153.677 416.226 153.275 415.812 152.774 415.816C152.274 415.82 151.87 416.207 151.874 416.707C151.865 418.499 151.823 420.271 151.741 422.041C151.732 422.382 151.901 422.678 152.189 422.85C152.316 422.926 152.463 422.97 152.613 422.973C153.12 422.994 153.533 422.592 153.545 422.101ZM118.69 514.343C118.36 513.952 117.806 513.902 117.414 514.231C116.036 515.378 114.632 516.423 113.203 517.367C112.783 517.635 112.666 518.193 112.95 518.623C113.034 518.738 113.126 518.836 113.238 518.903C113.525 519.075 113.892 519.077 114.197 518.892C115.687 517.92 117.145 516.82 118.568 515.635C118.95 515.322 119.009 514.751 118.68 514.359L118.69 514.343ZM132.339 497.944C131.886 497.652 131.367 497.796 131.093 498.218C130.121 499.737 129.136 501.205 128.115 502.588C127.826 502.999 127.91 503.547 128.312 503.853C128.328 503.862 128.36 503.881 128.376 503.891C128.775 504.129 129.291 504.026 129.561 503.646C130.601 502.232 131.615 500.716 132.597 499.181C132.854 498.75 132.745 498.208 132.323 497.935L132.339 497.944ZM88.4533 522.264C86.8076 521.865 85.1489 521.307 83.5249 520.619C83.056 520.425 82.54 520.637 82.3305 521.096C82.1496 521.508 82.3131 521.995 82.6961 522.224C82.728 522.243 82.7599 522.262 82.8078 522.291C84.521 523.011 86.2851 523.61 88.02 524.04C88.5112 524.16 88.992 523.863 89.1122 523.372C89.2323 522.881 88.9349 522.4 88.4437 522.28L88.4533 522.264ZM126.143 506.649C125.767 506.338 125.18 506.377 124.868 506.754C123.724 508.127 122.508 509.436 121.309 510.647C120.949 510.995 120.957 511.562 121.305 511.922C121.369 511.96 121.423 512.014 121.487 512.052C121.838 512.262 122.3 512.213 122.59 511.91C123.834 510.661 125.052 509.31 126.241 507.899C126.563 507.506 126.514 506.936 126.137 506.624L126.143 506.649ZM109.887 520.344C109.679 519.895 109.127 519.695 108.685 519.929C107.102 520.694 105.461 521.338 103.849 521.825C103.371 521.973 103.092 522.477 103.239 522.955C103.307 523.169 103.451 523.363 103.642 523.477C103.85 523.601 104.105 523.645 104.369 523.565C106.083 523.052 107.81 522.372 109.478 521.572C109.927 521.364 110.127 520.812 109.894 520.37L109.887 520.344ZM148.939 368.664C148.579 366.911 148.193 365.165 147.791 363.41C147.669 362.925 147.2 362.623 146.699 362.736C146.215 362.858 145.913 363.327 146.026 363.828C146.437 365.567 146.807 367.304 147.161 369.031C147.225 369.286 147.376 369.505 147.583 369.629C147.775 369.744 148.004 369.794 148.234 369.737C148.724 369.64 149.036 369.155 148.939 368.664ZM63.5687 503.935C62.5205 502.573 61.4689 501.144 60.4459 499.666C60.1678 499.262 59.6002 499.161 59.1799 499.43C58.7756 499.708 58.6747 500.276 58.9529 500.68C59.9982 502.192 61.0722 503.656 62.1428 505.054C62.2195 505.143 62.3057 505.216 62.4014 505.273C62.7046 505.454 63.1222 505.444 63.415 505.207C63.8129 504.904 63.8724 504.333 63.5687 503.935ZM145.181 359.188C145.373 359.302 145.628 359.346 145.857 359.289C146.342 359.166 146.637 358.672 146.515 358.187C146.078 356.454 145.616 354.727 145.137 352.991C145.015 352.507 144.511 352.227 144.017 352.365C143.533 352.487 143.253 352.991 143.391 353.485C143.879 355.206 144.326 356.923 144.772 358.64C144.83 358.87 144.99 359.073 145.181 359.188ZM152.858 395.233C152.813 394.729 152.381 394.363 151.878 394.409C151.374 394.455 151.009 394.886 151.054 395.389C151.204 397.168 151.354 398.946 151.457 400.696C151.467 401.005 151.655 401.269 151.895 401.412C152.054 401.508 152.227 401.546 152.427 401.536C152.921 401.506 153.313 401.069 153.267 400.565C153.158 398.79 153.018 396.995 152.852 395.207L152.858 395.233ZM150.959 390.764C151.119 390.859 151.323 390.916 151.517 390.881C152.005 390.826 152.38 390.379 152.309 389.882C152.108 388.116 151.891 386.341 151.642 384.547C151.571 384.049 151.121 383.716 150.633 383.771C150.136 383.842 149.802 384.292 149.857 384.78C150.1 386.548 150.317 388.323 150.511 390.064C150.547 390.366 150.713 390.596 150.953 390.739L150.959 390.764ZM70.6227 511.808C69.3932 510.64 68.1634 509.364 66.9558 508.015C66.6171 507.64 66.0528 507.606 65.6773 507.944C65.3018 508.283 65.2679 508.847 65.6065 509.223C66.8365 510.607 68.1142 511.912 69.3821 513.124C69.446 513.162 69.4843 513.206 69.5481 513.244C69.8992 513.454 70.3613 513.405 70.6603 513.086C71.0039 512.728 70.9805 512.151 70.6227 511.808ZM149.97 373.935C149.873 373.444 149.397 373.116 148.907 373.213C148.416 373.31 148.098 373.769 148.185 374.276C148.504 376.025 148.814 377.791 149.091 379.537C149.136 379.824 149.296 380.028 149.52 380.161C149.695 380.266 149.909 380.307 150.119 380.281C150.616 380.21 150.944 379.734 150.873 379.237C150.605 377.475 150.295 375.71 149.97 373.935Z" fill="#F411CF"/>
<path d="M92.5065 254.867C89.6142 251.082 85.3951 246.981 84.5739 247.595C83.7591 248.234 86.6349 253.351 89.5273 257.136C89.7925 257.489 90.0514 257.817 90.3102 258.145C90.1871 258.786 89.9348 260.151 89.6226 261.869C89.6067 261.86 89.6257 261.828 89.6034 261.793L88.8203 260.784C88.7213 260.66 88.53 260.654 88.3804 260.759L87.3905 261.51C87.2409 261.616 87.2094 261.814 87.3084 261.938L88.0914 262.947C88.0914 262.947 88.2031 263.013 88.2669 263.052L89.1619 264.236C88.8938 265.699 88.5908 267.294 88.307 268.856L87.54 267.857C87.441 267.733 87.2496 267.727 87.1 267.832L86.1101 268.583C85.9605 268.689 85.929 268.887 86.0281 269.011L86.811 270.02C86.811 270.02 86.9228 270.086 86.9866 270.125L87.8591 271.274C87.1338 275.279 86.5411 278.627 86.5668 278.729C86.6374 279.009 87.8453 280.467 87.8453 280.467C88.1106 280.82 88.3661 281.081 88.4106 281.043C88.4297 281.011 88.177 280.6 87.9277 280.257L90.776 272.951C91.0061 273.218 91.2359 273.377 91.29 273.323C91.3791 273.246 91.2286 272.918 90.9633 272.565L90.9314 272.546L91.4992 271.088C91.7228 271.33 91.9271 271.495 92.0067 271.434C92.0958 271.358 91.9454 271.03 91.6801 270.676L92.1875 269.356L92.7789 268.583C93.0313 268.885 93.29 269.105 93.3791 269.028C93.4682 268.951 93.3177 268.623 93.0524 268.27L93.0365 268.261L94.2129 266.69C94.4653 266.992 94.7175 267.186 94.7971 267.125C94.8862 267.049 94.7357 266.721 94.4704 266.367L94.4545 266.358L95.5291 264.921C97.5073 267.445 98.3094 268.422 99.7444 270.297C101.195 272.181 102.726 273.897 104.096 275.3C103.708 277.471 102.891 281.812 102.891 281.812L103.623 282.942L107.363 278.312C107.701 278.579 107.995 278.776 108.218 278.91C108.88 279.651 109.314 280.084 109.384 280.039C109.464 279.978 109.169 279.456 108.645 278.667C108.571 278.428 108.43 278.084 108.213 277.651L113.697 275.211L112.796 274.218C112.796 274.218 108.113 273.867 105.993 273.683C105.03 272.069 103.86 270.222 102.603 268.302C100.804 265.95 100.04 264.909 98.4193 262.729L100.069 262.069C100.335 262.422 100.625 262.661 100.714 262.584C100.794 262.523 100.666 262.23 100.432 261.896L102.254 261.166L102.27 261.175C102.536 261.529 102.826 261.767 102.915 261.69C102.995 261.63 102.876 261.321 102.633 261.002L103.544 260.637L104.956 260.485C105.221 260.838 105.512 261.076 105.601 261C105.681 260.939 105.581 260.706 105.402 260.426L106.948 260.267L106.98 260.286C107.236 260.655 107.536 260.878 107.615 260.817C107.695 260.756 107.589 260.499 107.394 260.209L115.193 259.368C115.452 259.696 115.791 260.071 115.826 260.049C115.87 260.01 115.685 259.705 115.419 259.351C115.419 259.351 114.352 257.804 114.096 257.652C114.001 257.595 110.605 257.298 106.562 256.962L105.69 255.813C105.69 255.813 105.693 255.663 105.654 255.619L104.871 254.61C104.772 254.486 104.581 254.48 104.431 254.585L103.441 255.336C103.292 255.442 103.26 255.639 103.359 255.763L104.126 256.763C102.535 256.635 100.929 256.498 99.4365 256.386L98.5416 255.202C98.5416 255.202 98.5445 255.052 98.5062 255.008L97.7232 253.999C97.6241 253.875 97.4328 253.869 97.2832 253.974L96.2933 254.725C96.1437 254.831 96.1122 255.029 96.2113 255.153L96.9943 256.162C96.9943 256.162 97.0421 256.19 97.0581 256.2C95.3428 256.063 93.9751 255.96 93.3119 255.911C93.0531 255.583 92.8037 255.239 92.5384 254.886L92.5065 254.867Z" fill="#F411CF"/>
</g>
</g>
<defs>
<clipPath id="clip0_191_2282">
<rect width="222.153" height="538.404" fill="white" transform="translate(0.0644531)"/>
</clipPath>
<clipPath id="clip1_191_2282">
<rect width="222.153" height="296.404" fill="white" transform="translate(0.0644531 242)"/>
</clipPath>
</defs>
</svg>
