<svg width="306" height="299" viewBox="0 0 306 299" fill="none" xmlns="http://www.w3.org/2000/svg">
<g clip-path="url(#clip0_1_43)">
<path d="M41.1086 195.579C40.8139 195.796 40.4311 195.792 40.1403 195.627C40.0272 195.562 39.9234 195.482 39.854 195.378C38.7931 193.898 37.7829 192.403 36.8233 190.895C36.5551 190.464 36.6763 189.913 37.1069 189.645C37.5376 189.377 38.0888 189.498 38.357 189.928C39.2773 191.393 40.2714 192.878 41.3092 194.324C41.5958 194.723 41.5069 195.292 41.1086 195.579ZM107.859 71.882C108.327 71.699 108.547 71.1614 108.355 70.7099C108.172 70.2422 107.635 70.0219 107.183 70.214C105.499 70.8811 103.847 71.5665 102.228 72.2703C101.776 72.4625 101.556 73.0001 101.748 73.4516C101.829 73.6475 101.963 73.7878 102.124 73.8798C102.367 74.0177 102.657 74.0333 102.929 73.9313C104.539 73.2437 106.191 72.5582 107.85 71.8982L107.859 71.882ZM35.6974 185.357C34.8577 183.788 34.0778 182.19 33.3717 180.612C33.1634 180.151 32.6328 179.956 32.1813 180.148C31.7205 180.356 31.5255 180.887 31.7177 181.339C32.4377 182.967 33.2407 184.6 34.1035 186.203C34.1868 186.358 34.3138 186.473 34.4592 186.556C34.7177 186.703 35.0497 186.72 35.333 186.561C35.7706 186.318 35.9495 185.778 35.7066 185.341L35.6974 185.357ZM88.8295 79.4671C88.6119 79.0226 88.0468 78.8507 87.6184 79.0774C85.9922 79.9057 84.4075 80.7363 82.8551 81.5852C82.4175 81.8281 82.2548 82.3771 82.4977 82.8147C82.581 82.969 82.708 83.0841 82.8534 83.1668C83.1119 83.3139 83.4439 83.3317 83.7272 83.1721C85.2704 82.3393 86.8389 81.4996 88.4397 80.6782C88.8843 80.4607 89.0723 79.9047 88.8295 79.4671ZM29.8931 170.677C29.7608 170.195 29.2692 169.894 28.7784 170.042C28.2968 170.175 27.9957 170.666 28.1441 171.157C28.5922 172.888 29.1233 174.623 29.7305 176.337C29.8024 176.549 29.9594 176.724 30.1372 176.825C30.3633 176.954 30.6285 176.976 30.8912 176.89C31.3658 176.733 31.6023 176.204 31.4447 175.73C30.8515 174.066 30.3435 172.366 29.9093 170.686L29.8931 170.677ZM127.403 62.9426C125.675 63.4991 123.988 64.0578 122.302 64.6165C121.827 64.7741 121.574 65.2933 121.732 65.768C121.804 65.9799 121.961 66.1549 122.139 66.256C122.349 66.3755 122.63 66.4073 122.867 66.3284C124.538 65.7606 126.224 65.2019 127.927 64.6524C128.402 64.4947 128.671 63.9847 128.513 63.5101C128.355 63.0354 127.845 62.7666 127.371 62.9243L127.403 62.9426ZM55.5695 209.967C54.2348 208.779 52.9438 207.553 51.6943 206.329C51.3478 205.96 50.7553 205.987 50.4124 206.326C50.0603 206.682 50.0706 207.265 50.4355 207.601C51.6919 208.851 53.0244 210.08 54.3661 211.292C54.4146 211.32 54.47 211.373 54.5185 211.4C54.8739 211.602 55.3602 211.537 55.6433 211.228C55.9792 210.863 55.9436 210.286 55.5787 209.95L55.5695 209.967ZM118.389 66.9452C118.222 66.4867 117.703 66.2341 117.228 66.3917C115.53 67.0081 113.848 67.6336 112.192 68.2522C111.724 68.4352 111.497 68.9474 111.654 69.4221C111.735 69.6179 111.876 69.7836 112.054 69.8847C112.28 70.0134 112.561 70.0452 112.833 69.9433C114.474 69.3155 116.146 68.7061 117.844 68.0898C118.303 67.9229 118.556 67.4037 118.398 66.9291L118.389 66.9452ZM149.116 57.6328C148.984 57.1512 148.492 56.8501 148.01 56.9824C146.254 57.4374 144.54 57.8947 142.826 58.352C142.344 58.4843 142.059 58.9851 142.191 59.4667C142.245 59.711 142.418 59.8952 142.612 60.0055C142.806 60.1158 143.062 60.1545 143.29 60.0919C144.988 59.6254 146.703 59.1681 148.449 58.7291C148.931 58.5969 149.232 58.1052 149.1 57.6236L149.116 57.6328ZM48.0193 202.527C46.8088 201.196 45.649 199.852 44.5468 198.519C44.2349 198.128 43.663 198.08 43.2716 198.392C42.8803 198.704 42.8329 199.276 43.1448 199.667C44.254 201.026 45.4369 202.405 46.6797 203.753C46.7421 203.832 46.8229 203.877 46.9036 203.923C47.2429 204.117 47.6694 204.081 47.9593 203.797C48.3276 203.451 48.3496 202.886 48.0193 202.527ZM133.056 63.0799C134.741 62.5627 136.441 62.0547 138.174 61.5651C138.656 61.4328 138.925 60.9228 138.809 60.4504C138.676 59.9688 138.166 59.7 137.694 59.8161C135.952 60.3219 134.235 60.8207 132.551 61.3379C132.076 61.4955 131.8 61.9802 131.949 62.471C132.011 62.6991 132.168 62.874 132.362 62.9844C132.572 63.1039 132.828 63.1426 133.066 63.0638L133.056 63.0799ZM35.4616 125.298C35.8978 125.547 36.4301 125.4 36.6945 124.973C37.5586 123.455 38.5127 121.966 39.4991 120.496C39.7796 120.078 39.6679 119.522 39.2501 119.242C38.8392 118.987 38.2769 119.073 37.9963 119.491C36.9754 120.984 36.0099 122.531 35.1112 124.073C34.863 124.509 35 125.057 35.4362 125.305L35.4616 125.298ZM32.1053 134.467C32.7248 132.852 33.4366 131.225 34.213 129.635C34.4288 129.181 34.2411 128.646 33.7866 128.43C33.332 128.214 32.7974 128.402 32.5815 128.857C31.7868 130.479 31.0636 132.163 30.4165 133.827C30.2605 134.251 30.4181 134.726 30.8058 134.946C30.8381 134.965 30.8866 134.992 30.9189 135.011C31.3919 135.194 31.9125 134.956 32.0869 134.499L32.1053 134.467ZM41.3521 116.375C41.3521 116.375 41.4329 116.421 41.4652 116.439C41.8529 116.66 42.3577 116.562 42.6268 116.202C43.6825 114.835 44.8143 113.447 45.9854 112.103C46.3052 111.729 46.2695 111.153 45.8955 110.833C45.5214 110.513 44.9451 110.549 44.6253 110.923C43.4358 112.299 42.2787 113.694 41.2046 115.093C40.8917 115.492 40.9781 116.055 41.3613 116.359L41.3521 116.375ZM48.2908 108.24C48.2908 108.24 48.4017 108.346 48.4663 108.382C48.8217 108.585 49.2665 108.517 49.5565 108.233C50.7554 106.99 52.0465 105.736 53.3516 104.533C53.7198 104.186 53.7419 103.621 53.3954 103.253C53.0489 102.885 52.484 102.863 52.1157 103.209C50.7923 104.445 49.492 105.715 48.2585 106.981C47.9064 107.337 47.9167 107.92 48.2816 108.256L48.2908 108.24ZM92.3893 78.2848C92.6317 78.4227 92.9545 78.4567 93.2286 78.3133C94.8088 77.5657 96.4144 76.8112 98.0615 76.0589C98.5222 75.8506 98.7172 75.32 98.5089 74.8593C98.3006 74.3985 97.7699 74.2035 97.3092 74.4119C95.646 75.155 94.0404 75.9095 92.4418 76.6893C91.9972 76.9069 91.8022 77.4375 92.0105 77.8982C92.0846 78.0687 92.2186 78.2091 92.3802 78.301L92.3893 78.2848ZM28.1613 160.303C28.1212 159.809 27.6917 159.437 27.1823 159.467C26.6889 159.508 26.3162 159.937 26.3471 160.446C26.4841 162.235 26.711 164.054 27.007 165.826C27.0583 166.112 27.2293 166.338 27.4555 166.466C27.6332 166.568 27.8477 166.604 28.0574 166.574C28.553 166.492 28.8864 166.019 28.7956 165.54C28.4974 163.809 28.2844 162.041 28.1521 160.319L28.1613 160.303ZM64.4432 94.2482C64.5287 94.361 64.6164 94.4324 64.7295 94.4967C65.0365 94.6714 65.4122 94.6499 65.6978 94.4488C67.1092 93.4342 68.5621 92.4217 70.0566 91.4115C70.4711 91.1341 70.5761 90.5736 70.2987 90.1592C70.0213 89.7447 69.4609 89.6396 69.0464 89.917C67.5266 90.9342 66.0483 91.9536 64.6277 92.9845C64.2293 93.2711 64.1404 93.8407 64.427 94.239L64.4432 94.2482ZM30.4129 139.47C30.555 138.995 30.2912 138.482 29.8068 138.356C29.3316 138.214 28.8341 138.487 28.692 138.962C28.1741 140.699 27.737 142.482 27.3851 144.228C27.3144 144.615 27.5018 145 27.8249 145.184C27.9057 145.23 27.9865 145.276 28.0856 145.289C28.5631 145.39 29.0466 145.066 29.1472 144.589C29.4969 142.884 29.9226 141.159 30.4129 139.47ZM61.6067 96.3768C61.2947 95.9854 60.7321 95.9219 60.3499 96.2177C58.9156 97.3477 57.5228 98.4799 56.1715 99.6144C55.7963 99.9355 55.7489 100.507 56.0701 100.883C56.1325 100.961 56.2202 101.032 56.3171 101.087C56.6403 101.271 57.0575 101.252 57.3545 100.993C58.6804 99.8657 60.0478 98.7404 61.4729 97.6266C61.8643 97.3146 61.9278 96.752 61.632 96.3698L61.6067 96.3768ZM28.3267 149.789C28.3788 149.284 28.0276 148.849 27.5226 148.797C27.0175 148.745 26.5824 149.096 26.5303 149.601C26.3422 151.397 26.2279 153.214 26.1967 155.036C26.195 155.377 26.3707 155.669 26.6615 155.835C26.7908 155.908 26.9384 155.95 27.0883 155.949C27.5955 155.96 27.9913 155.565 28.0019 155.058C28.0379 153.303 28.1408 151.544 28.3175 149.805L28.3267 149.789ZM79.4322 84.5563C79.1893 84.1187 78.6311 83.9722 78.1843 84.2312C76.6113 85.1539 75.0799 86.0789 73.5737 86.9969C73.1431 87.2652 73.0219 87.8164 73.2901 88.2471C73.3664 88.376 73.4773 88.4819 73.6065 88.5554C73.8812 88.7117 74.2385 88.7226 74.531 88.5468C76.021 87.6196 77.5433 86.7108 79.0909 85.795C79.5285 85.5521 79.6751 84.9939 79.4069 84.5633L79.4322 84.5563ZM184.72 251.762C182.931 251.749 181.16 251.704 179.389 251.658C178.882 251.648 178.47 252.034 178.459 252.541C178.458 252.882 178.64 253.2 178.915 253.356C179.044 253.43 179.192 253.471 179.342 253.471C181.112 253.516 182.908 253.554 184.714 253.576C185.205 253.578 185.626 253.176 185.627 252.685C185.629 252.194 185.227 251.772 184.736 251.771L184.72 251.762ZM163.406 250.733C161.616 250.57 159.852 250.401 158.097 250.215C157.592 250.163 157.157 250.514 157.105 251.019C157.069 251.383 157.259 251.726 157.566 251.901C157.662 251.956 157.785 252.004 157.909 252.011C159.68 252.206 161.47 252.369 163.259 252.532C163.748 252.574 164.192 252.207 164.235 251.718C164.278 251.229 163.911 250.785 163.422 250.742L163.406 250.733ZM174.056 251.447C172.262 251.367 170.487 251.255 168.737 251.136C168.239 251.109 167.811 251.486 167.768 251.975C167.741 252.323 167.939 252.65 168.23 252.815C168.343 252.88 168.475 252.912 168.615 252.928C170.391 253.04 172.166 253.152 173.976 253.241C174.474 253.267 174.886 252.882 174.913 252.384C174.94 251.886 174.563 251.457 174.056 251.447ZM131.786 245.979C130.033 245.602 128.299 245.192 126.59 244.776C126.105 244.65 125.615 244.948 125.505 245.441C125.409 245.836 125.603 246.246 125.942 246.439C126.007 246.476 126.088 246.522 126.171 246.526C127.896 246.952 129.64 247.345 131.409 247.732C131.902 247.841 132.377 247.534 132.487 247.04C132.596 246.547 132.289 246.072 131.795 245.963L131.786 245.979ZM152.803 249.597C151.025 249.377 149.265 249.124 147.515 248.855C147.019 248.787 146.552 249.12 146.483 249.616C146.422 249.987 146.618 250.355 146.925 250.53C147.022 250.585 147.128 250.624 147.244 250.647C148.994 250.916 150.779 251.162 152.557 251.382C153.053 251.45 153.513 251.092 153.556 250.603C153.624 250.108 153.266 249.647 152.777 249.604L152.803 249.597ZM142.257 248.023C140.483 247.72 138.744 247.393 137.005 247.067C136.519 246.982 136.044 247.29 135.935 247.783C135.864 248.171 136.051 248.556 136.374 248.739C136.455 248.785 136.536 248.831 136.66 248.838C138.416 249.174 140.171 249.509 141.944 249.813C142.431 249.897 142.898 249.564 142.983 249.078C143.067 248.591 142.734 248.124 142.248 248.039L142.257 248.023ZM195.396 251.678C193.596 251.723 191.83 251.744 190.064 251.766C189.573 251.764 189.168 252.176 189.166 252.667C189.165 253.008 189.35 253.284 189.624 253.441C189.753 253.514 189.917 253.564 190.076 253.548C191.858 253.536 193.65 253.507 195.45 253.462C195.951 253.447 196.339 253.027 196.341 252.536C196.326 252.036 195.906 251.647 195.415 251.646L195.396 251.678ZM216.702 250.392C214.92 250.554 213.147 250.7 211.374 250.847C210.881 250.887 210.508 251.316 210.539 251.826C210.556 252.134 210.75 252.395 210.992 252.533C211.138 252.615 211.327 252.659 211.502 252.651C213.275 252.505 215.064 252.368 216.855 252.19C217.348 252.15 217.714 251.695 217.674 251.202C217.634 250.708 217.179 250.343 216.685 250.383L216.702 250.392ZM228.318 250.009C228.253 249.522 227.798 249.157 227.312 249.222C225.535 249.451 223.776 249.648 222.017 249.845C221.515 249.901 221.158 250.34 221.214 250.842C221.256 251.144 221.418 251.386 221.661 251.524C221.822 251.616 222.011 251.659 222.212 251.645C223.971 251.448 225.755 251.245 227.532 251.015C228.018 250.95 228.384 250.495 228.318 250.009ZM206.052 251.218C204.256 251.33 202.495 251.418 200.717 251.498C200.217 251.512 199.828 251.933 199.859 252.442C199.866 252.767 200.051 253.043 200.31 253.191C200.455 253.273 200.619 253.324 200.794 253.316C202.572 253.237 204.358 253.142 206.154 253.03C206.664 252.999 207.036 252.57 206.996 252.076C206.956 251.583 206.536 251.194 206.042 251.234L206.052 251.218ZM72.5912 222.711C71.0771 221.763 69.5975 220.793 68.1363 219.791C67.7207 219.469 67.163 219.622 66.8917 220.023C66.6112 220.441 66.7229 220.997 67.1245 221.268C68.5857 222.271 70.0976 223.259 71.6279 224.216L71.6602 224.234C72.0803 224.473 72.6034 224.343 72.8747 223.941C73.1391 223.514 73.0112 222.95 72.6004 222.694L72.5912 222.711ZM179.778 51.8549C180.274 51.7733 180.591 51.2909 180.509 50.7953C180.418 50.3159 179.945 49.9825 179.45 50.0641C177.675 50.4016 175.926 50.7322 174.193 51.0719C173.704 51.1789 173.38 51.6359 173.478 52.1407C173.538 52.4103 173.693 52.6267 173.919 52.7554C174.097 52.8566 174.327 52.9022 174.546 52.8557C176.279 52.516 178.029 52.1854 179.803 51.8479L179.778 51.8549ZM168.924 52.1374C167.157 52.5003 165.405 52.8723 163.686 53.2628C163.197 53.3697 162.88 53.8521 162.987 54.3407C163.047 54.6104 163.211 54.8106 163.421 54.9301C163.615 55.0405 163.83 55.077 164.065 55.0396C165.784 54.6492 167.526 54.2933 169.294 53.9304C169.783 53.8235 170.091 53.3572 169.993 52.8525C169.886 52.3639 169.404 52.0466 168.915 52.1536L168.924 52.1374ZM121.425 243.441C119.702 242.974 117.988 242.49 116.3 242C115.824 241.858 115.327 242.131 115.185 242.606C115.063 243.007 115.239 243.45 115.595 243.652C115.659 243.689 115.708 243.716 115.782 243.737C117.486 244.236 119.216 244.729 120.956 245.205C121.44 245.331 121.938 245.058 122.063 244.574C122.189 244.09 121.9 243.583 121.432 243.466L121.425 243.441ZM81.7953 228.033C80.5814 227.386 79.3929 226.731 78.2297 226.069L77.1473 225.453C76.7802 225.158 76.1626 225.342 75.9144 225.778C75.6662 226.214 75.8032 226.762 76.2394 227.011L77.338 227.636C78.5173 228.307 79.7128 228.987 80.952 229.628C81.3882 229.876 81.9389 229.698 82.171 229.252C82.4192 228.816 82.2476 228.291 81.7953 228.033ZM63.8239 216.695C62.3834 215.619 60.9934 214.529 59.6289 213.431C59.2456 213.128 58.6693 213.163 58.3565 213.563C58.0275 213.953 58.0885 214.522 58.4879 214.835C59.8594 215.958 61.2816 217.066 62.7384 218.152C62.7707 218.17 62.803 218.189 62.8353 218.207C63.223 218.428 63.7278 218.33 64.0061 217.954C64.3027 217.545 64.2164 216.983 63.8239 216.695ZM158.461 54.4389C156.708 54.8524 154.954 55.266 153.242 55.6818C152.76 55.8141 152.468 56.2895 152.575 56.7781C152.645 57.0316 152.793 57.2227 153.003 57.3422C153.196 57.4525 153.427 57.4982 153.655 57.4355C155.367 57.0197 157.105 56.597 158.85 56.1996C159.338 56.0926 159.639 55.601 159.532 55.1124C159.425 54.6238 158.934 54.3227 158.445 54.4297L158.461 54.4389ZM101.175 236.858C99.5119 236.211 97.8576 235.548 96.2287 234.878C95.7649 234.678 95.2374 234.891 95.0538 235.364C94.8724 235.795 95.0462 236.279 95.4339 236.5C95.4662 236.518 95.4985 236.537 95.5309 236.555C97.1667 237.251 98.821 237.914 100.526 238.563C100.999 238.747 101.52 238.509 101.694 238.052C101.877 237.579 101.655 237.067 101.182 236.884L101.175 236.858ZM111.215 240.411C109.522 239.854 107.829 239.297 106.163 238.691C105.697 238.533 105.177 238.772 105.018 239.238C104.862 239.662 105.054 240.114 105.426 240.325C105.475 240.353 105.523 240.38 105.571 240.408C107.246 240.997 108.947 241.58 110.665 242.13C111.131 242.288 111.645 242.024 111.812 241.542C111.97 241.076 111.707 240.563 111.241 240.404L111.215 240.411ZM191.056 48.9479C190.974 48.4524 190.501 48.1189 190.022 48.2097C188.249 48.5057 186.477 48.8017 184.737 49.1161C184.241 49.1977 183.908 49.671 184.006 50.1757C184.057 50.4615 184.228 50.6871 184.454 50.8158C184.632 50.9169 184.846 50.9534 185.056 50.9231C186.796 50.6087 188.543 50.3196 190.316 50.0236C190.811 49.942 191.145 49.4688 191.054 48.9894L191.056 48.9479ZM91.3325 232.733C89.6988 231.996 88.0998 231.236 86.519 230.443C86.0645 230.227 85.5299 230.415 85.3071 230.844C85.1004 231.283 85.2558 231.799 85.6596 232.029L85.7081 232.056C87.298 232.833 88.9294 233.611 90.5792 234.358C91.0338 234.574 91.5614 234.361 91.7773 233.906C91.9932 233.451 91.7709 232.94 91.3255 232.708L91.3325 232.733Z" fill="#872BFF"/>
<path d="M228.597 45.2879C233.299 44.5416 238.928 42.8045 238.758 41.7881C238.588 40.7717 232.707 40.8469 227.996 41.6094C227.567 41.6862 227.147 41.7469 226.744 41.8168C226.234 41.3982 225.165 40.5332 223.8 39.436C223.816 39.4452 223.849 39.4635 223.865 39.4727L225.133 39.2745C225.292 39.258 225.393 39.0803 225.344 38.9029L225.144 37.6767C225.12 37.4923 224.977 37.3681 224.809 37.4007L223.541 37.5989C223.541 37.5989 223.421 37.6591 223.368 37.7145L221.891 37.9432C220.734 37.0069 219.474 35.9902 218.229 34.9826L219.471 34.7913C219.63 34.7749 219.731 34.5972 219.683 34.4197L219.482 33.1935C219.459 33.0092 219.316 32.8849 219.147 32.9175L217.88 33.1158C217.88 33.1158 217.76 33.1759 217.707 33.2314L216.28 33.4461C213.113 30.895 210.446 28.7788 210.331 28.7559C210.042 28.6988 208.192 29.0572 208.192 29.0572C207.747 29.1249 207.408 29.2315 207.406 29.273C207.42 29.3237 207.913 29.2836 208.332 29.2229L213.413 35.215C213.068 35.2963 212.828 35.4166 212.84 35.5088C212.858 35.6264 213.232 35.6464 213.661 35.5696L213.711 35.5557L214.705 36.7412C214.384 36.8155 214.145 36.9359 214.157 37.0281C214.175 37.1456 214.549 37.1657 214.977 37.0888L215.895 38.1454L216.304 39.0415C215.917 39.1206 215.611 39.2456 215.622 39.3378C215.641 39.4554 216.015 39.4755 216.443 39.3986L216.459 39.4078L217.281 41.1585C216.894 41.2376 216.588 41.3626 216.615 41.464C216.634 41.5816 217.008 41.6016 217.436 41.5248L218.182 43.1465C215.031 43.6848 213.786 43.9176 211.452 44.3C209.101 44.6731 206.858 45.1936 204.989 45.7342C203.249 44.3587 199.843 41.5867 199.843 41.5867L198.506 41.6813L200.791 47.1735C200.391 47.3518 200.075 47.493 199.868 47.6317C198.907 47.8548 198.315 48.0311 198.326 48.1233C198.338 48.2155 198.937 48.2144 199.892 48.1158C200.139 48.1707 200.512 48.1908 200.985 48.2245L200.505 54.2174L201.811 53.913C201.811 53.913 204.354 49.9706 205.54 48.1863C207.426 48.1045 209.598 47.9714 211.898 47.762C214.812 47.3026 216.102 47.1388 218.788 46.742L218.576 48.5038C218.122 48.5876 217.791 48.7197 217.809 48.8372C217.821 48.9294 218.144 48.9634 218.554 48.9188L218.325 50.8628L218.309 50.8536C217.854 50.9374 217.514 51.0856 217.541 51.187C217.553 51.2792 217.892 51.3224 218.286 51.2687L218.184 52.2372L217.656 53.5407C217.211 53.6084 216.871 53.7566 216.889 53.8741C216.901 53.9663 217.157 54.005 217.5 53.9652L216.915 55.4072L216.883 55.3889C216.429 55.4727 216.088 55.6209 216.106 55.7384C216.118 55.8306 216.399 55.8624 216.743 55.8225L213.764 63.088C213.351 63.1741 212.862 63.281 212.86 63.3225C212.874 63.3732 213.225 63.3587 213.669 63.2911C213.669 63.2911 215.555 63.0594 215.787 62.9137C215.882 62.8605 217.758 60.0144 219.988 56.6213L221.415 56.4066C221.415 56.4066 221.544 56.4801 221.611 56.4754L222.879 56.2771C223.038 56.2607 223.139 56.083 223.09 55.9056L222.89 54.6794C222.866 54.495 222.723 54.3707 222.555 54.4033L221.312 54.5946C222.184 53.2512 223.055 51.9079 223.881 50.6452L225.358 50.4166C225.358 50.4166 225.487 50.4902 225.554 50.4854L226.822 50.2872C226.981 50.2707 227.082 50.093 227.033 49.9156L226.833 48.6894C226.809 48.505 226.666 48.3808 226.498 48.4134L225.23 48.6116C225.23 48.6116 225.212 48.6439 225.161 48.6579C226.113 47.2106 226.849 46.068 227.212 45.5048C227.615 45.4349 228.035 45.3742 228.48 45.3065L228.597 45.2879Z" fill="#872BFF"/>
</g>
<defs>
<clipPath id="clip0_1_43">
<rect width="305.024" height="298.093" fill="white" transform="translate(0.92334)"/>
</clipPath>
</defs>
</svg>
