<svg width="306" height="299" viewBox="0 0 306 299" fill="none" xmlns="http://www.w3.org/2000/svg">
<g clip-path="url(#clip0_191_2277)">
<path d="M41.1091 195.579C40.8143 195.796 40.4316 195.792 40.1408 195.627C40.0277 195.562 39.9238 195.482 39.8545 195.378C38.7936 193.898 37.7833 192.403 36.8238 190.895C36.5556 190.464 36.6768 189.913 37.1074 189.645C37.5381 189.377 38.0893 189.498 38.3575 189.928C39.2778 191.393 40.2719 192.878 41.3097 194.324C41.5963 194.723 41.5074 195.292 41.1091 195.579ZM107.86 71.882C108.327 71.699 108.548 71.1614 108.356 70.7099C108.173 70.2422 107.635 70.0219 107.184 70.214C105.499 70.8811 103.848 71.5665 102.228 72.2703C101.777 72.4625 101.556 73.0001 101.748 73.4516C101.829 73.6475 101.963 73.7878 102.125 73.8798C102.367 74.0177 102.658 74.0333 102.93 73.9313C104.54 73.2437 106.192 72.5582 107.851 71.8982L107.86 71.882ZM35.6979 185.357C34.8582 183.788 34.0783 182.19 33.3722 180.612C33.1639 180.151 32.6333 179.956 32.1818 180.148C31.721 180.356 31.526 180.887 31.7182 181.339C32.4382 182.967 33.2411 184.6 34.104 186.203C34.1873 186.358 34.3143 186.473 34.4597 186.556C34.7182 186.703 35.0502 186.72 35.3335 186.561C35.7711 186.318 35.95 185.778 35.7071 185.341L35.6979 185.357ZM88.83 79.4671C88.6124 79.0225 88.0473 78.8507 87.6189 79.0774C85.9927 79.9057 84.408 80.7363 82.8556 81.5852C82.418 81.8281 82.2553 82.3771 82.4982 82.8147C82.5815 82.969 82.7085 83.0841 82.8539 83.1668C83.1123 83.3139 83.4444 83.3317 83.7277 83.1721C85.2708 82.3393 86.8394 81.4996 88.4402 80.6782C88.8848 80.4607 89.0728 79.9047 88.83 79.4671ZM29.8936 170.677C29.7613 170.195 29.2697 169.894 28.7789 170.042C28.2973 170.175 27.9962 170.666 28.1446 171.157C28.5927 172.888 29.1238 174.623 29.731 176.337C29.8028 176.549 29.9599 176.724 30.1376 176.825C30.3638 176.954 30.629 176.976 30.8917 176.89C31.3663 176.733 31.6028 176.204 31.4452 175.73C30.852 174.066 30.344 172.366 29.9098 170.686L29.8936 170.677ZM127.404 62.9426C125.675 63.4991 123.989 64.0578 122.302 64.6165C121.827 64.7741 121.575 65.2933 121.732 65.768C121.804 65.9799 121.961 66.1549 122.139 66.256C122.349 66.3755 122.63 66.4073 122.868 66.3284C124.538 65.7606 126.225 65.2019 127.928 64.6524C128.402 64.4947 128.671 63.9847 128.514 63.5101C128.356 63.0354 127.846 62.7666 127.371 62.9243L127.404 62.9426ZM55.57 209.967C54.2353 208.779 52.9442 207.553 51.6947 206.329C51.3482 205.96 50.7558 205.987 50.4129 206.326C50.0608 206.682 50.0711 207.265 50.4359 207.601C51.6924 208.851 53.0249 210.08 54.3666 211.292C54.4151 211.32 54.4705 211.373 54.519 211.4C54.8744 211.602 55.3607 211.537 55.6438 211.228C55.9797 210.863 55.9441 210.286 55.5792 209.95L55.57 209.967ZM118.389 66.9452C118.222 66.4867 117.703 66.2341 117.229 66.3917C115.531 67.0081 113.849 67.6336 112.192 68.2522C111.724 68.4352 111.497 68.9474 111.655 69.4221C111.736 69.6179 111.877 69.7836 112.054 69.8847C112.281 70.0134 112.562 70.0452 112.834 69.9433C114.474 69.3155 116.147 68.7061 117.845 68.0898C118.303 67.9229 118.556 67.4037 118.398 66.9291L118.389 66.9452ZM149.116 57.6328C148.984 57.1512 148.493 56.8501 148.011 56.9824C146.255 57.4374 144.54 57.8947 142.826 58.352C142.344 58.4843 142.059 58.9851 142.192 59.4667C142.245 59.711 142.418 59.8952 142.612 60.0055C142.806 60.1158 143.062 60.1545 143.29 60.0919C144.989 59.6254 146.703 59.1681 148.45 58.7291C148.931 58.5969 149.233 58.1052 149.1 57.6236L149.116 57.6328ZM48.0198 202.527C46.8093 201.196 45.6495 199.852 44.5473 198.519C44.2353 198.128 43.6635 198.08 43.2721 198.392C42.8808 198.704 42.8334 199.276 43.1453 199.667C44.2544 201.026 45.4374 202.405 46.6802 203.753C46.7426 203.832 46.8234 203.877 46.9041 203.923C47.2434 204.117 47.6698 204.081 47.9598 203.797C48.3281 203.451 48.3501 202.886 48.0198 202.527ZM133.057 63.0799C134.741 62.5627 136.442 62.0547 138.175 61.5651C138.656 61.4328 138.925 60.9228 138.809 60.4504C138.677 59.9688 138.167 59.7 137.694 59.8161C135.952 60.3219 134.236 60.8207 132.551 61.3379C132.076 61.4955 131.801 61.9802 131.949 62.471C132.012 62.6991 132.169 62.874 132.363 62.9844C132.573 63.1039 132.829 63.1426 133.066 63.0638L133.057 63.0799ZM35.4621 125.298C35.8983 125.547 36.4306 125.4 36.6949 124.973C37.5591 123.455 38.5131 121.966 39.4995 120.496C39.7801 120.078 39.6684 119.522 39.2506 119.242C38.8397 118.987 38.2773 119.073 37.9968 119.491C36.9759 120.984 36.0104 122.531 35.1117 124.073C34.8635 124.509 35.0005 125.057 35.4367 125.305L35.4621 125.298ZM32.1058 134.467C32.7253 132.852 33.4371 131.225 34.2134 129.635C34.4293 129.181 34.2416 128.646 33.7871 128.43C33.3325 128.214 32.7979 128.402 32.582 128.857C31.7873 130.479 31.0641 132.163 30.4169 133.827C30.2609 134.251 30.4186 134.726 30.8063 134.946C30.8386 134.965 30.8871 134.992 30.9194 135.011C31.3924 135.194 31.913 134.956 32.0874 134.499L32.1058 134.467ZM41.3526 116.375C41.3526 116.375 41.4334 116.421 41.4657 116.439C41.8534 116.66 42.3582 116.562 42.6273 116.202C43.683 114.835 44.8148 113.447 45.9859 112.103C46.3057 111.729 46.27 111.153 45.8959 110.833C45.5219 110.513 44.9456 110.549 44.6258 110.923C43.4363 112.299 42.2792 113.694 41.205 115.093C40.8922 115.492 40.9785 116.055 41.3618 116.359L41.3526 116.375ZM48.2913 108.24C48.2913 108.24 48.4021 108.346 48.4668 108.382C48.8222 108.585 49.267 108.517 49.557 108.233C50.7559 106.99 52.047 105.736 53.3521 104.533C53.7203 104.186 53.7424 103.621 53.3959 103.253C53.0494 102.885 52.4845 102.863 52.1162 103.209C50.7928 104.445 49.4925 105.715 48.259 106.981C47.9069 107.337 47.9172 107.92 48.2821 108.256L48.2913 108.24ZM92.3898 78.2848C92.6322 78.4227 92.955 78.4567 93.2291 78.3133C94.8093 77.5657 96.4149 76.8112 98.062 76.0589C98.5227 75.8506 98.7177 75.32 98.5094 74.8593C98.301 74.3985 97.7704 74.2035 97.3097 74.4119C95.6465 75.155 94.0409 75.9095 92.4423 76.6893C91.9977 76.9069 91.8027 77.4375 92.011 77.8982C92.0851 78.0687 92.2191 78.2091 92.3806 78.301L92.3898 78.2848ZM28.1618 160.303C28.1217 159.809 27.6922 159.437 27.1827 159.467C26.6894 159.508 26.3167 159.937 26.3476 160.446C26.4846 162.235 26.7115 164.054 27.0075 165.826C27.0588 166.112 27.2298 166.338 27.456 166.466C27.6337 166.568 27.8482 166.604 28.0579 166.574C28.5535 166.492 28.8869 166.019 28.7961 165.54C28.4978 163.809 28.2848 162.041 28.1526 160.319L28.1618 160.303ZM64.4437 94.2482C64.5292 94.361 64.6169 94.4324 64.73 94.4967C65.037 94.6714 65.4127 94.6499 65.6983 94.4488C67.1097 93.4342 68.5626 92.4217 70.0571 91.4115C70.4716 91.1341 70.5766 90.5736 70.2992 90.1592C70.0218 89.7447 69.4614 89.6396 69.0469 89.917C67.5271 90.9342 66.0488 91.9536 64.6281 92.9845C64.2298 93.2711 64.1409 93.8407 64.4275 94.239L64.4437 94.2482ZM30.4134 139.47C30.5554 138.995 30.2917 138.482 29.8073 138.356C29.3321 138.214 28.8346 138.487 28.6925 138.962C28.1746 140.699 27.7375 142.482 27.3856 144.228C27.3149 144.615 27.5023 145 27.8254 145.184C27.9062 145.23 27.987 145.276 28.0861 145.289C28.5636 145.39 29.0471 145.066 29.1477 144.589C29.4974 142.884 29.923 141.159 30.4134 139.47ZM61.6072 96.3768C61.2952 95.9854 60.7325 95.9219 60.3504 96.2177C58.9161 97.3477 57.5233 98.4799 56.172 99.6144C55.7968 99.9355 55.7494 100.507 56.0706 100.883C56.133 100.961 56.2207 101.032 56.3176 101.087C56.6407 101.271 57.058 101.252 57.3549 100.993C58.6809 99.8657 60.0483 98.7404 61.4734 97.6266C61.8648 97.3146 61.9283 96.752 61.6325 96.3698L61.6072 96.3768ZM28.3272 149.789C28.3793 149.284 28.028 148.849 27.523 148.797C27.018 148.745 26.5829 149.096 26.5308 149.601C26.3427 151.397 26.2284 153.214 26.1972 155.036C26.1955 155.377 26.3712 155.669 26.662 155.835C26.7913 155.908 26.9389 155.95 27.0888 155.949C27.596 155.96 27.9918 155.565 28.0024 155.058C28.0384 153.303 28.1413 151.544 28.318 149.805L28.3272 149.789ZM79.4327 84.5563C79.1898 84.1187 78.6316 83.9722 78.1848 84.2312C76.6118 85.1539 75.0803 86.0789 73.5742 86.9969C73.1436 87.2652 73.0224 87.8164 73.2906 88.2471C73.3669 88.376 73.4778 88.4819 73.607 88.5554C73.8816 88.7117 74.239 88.7226 74.5315 88.5468C76.0215 87.6196 77.5438 86.7108 79.0914 85.795C79.529 85.5521 79.6756 84.9939 79.4073 84.5633L79.4327 84.5563ZM184.72 251.762C182.931 251.749 181.16 251.704 179.39 251.658C178.882 251.648 178.47 252.034 178.46 252.541C178.458 252.882 178.641 253.2 178.915 253.356C179.045 253.43 179.192 253.471 179.342 253.471C181.113 253.516 182.909 253.554 184.714 253.576C185.205 253.578 185.626 253.176 185.628 252.685C185.629 252.194 185.227 251.772 184.736 251.771L184.72 251.762ZM163.406 250.733C161.617 250.57 159.853 250.401 158.098 250.215C157.593 250.163 157.158 250.514 157.106 251.019C157.069 251.383 157.259 251.726 157.566 251.901C157.663 251.956 157.785 252.004 157.91 252.011C159.681 252.206 161.47 252.369 163.26 252.532C163.748 252.574 164.193 252.207 164.236 251.718C164.279 251.229 163.911 250.785 163.422 250.742L163.406 250.733ZM174.057 251.447C172.263 251.367 170.487 251.255 168.737 251.136C168.239 251.109 167.811 251.486 167.768 251.975C167.741 252.323 167.94 252.65 168.231 252.815C168.344 252.88 168.475 252.912 168.616 252.928C170.391 253.04 172.167 253.152 173.977 253.241C174.475 253.267 174.887 252.882 174.914 252.384C174.94 251.886 174.564 251.457 174.057 251.447ZM131.787 245.979C130.034 245.602 128.299 245.192 126.59 244.776C126.106 244.65 125.615 244.948 125.505 245.441C125.409 245.836 125.604 246.246 125.943 246.439C126.008 246.476 126.088 246.522 126.171 246.526C127.897 246.952 129.64 247.345 131.409 247.732C131.903 247.841 132.377 247.534 132.487 247.04C132.597 246.547 132.289 246.072 131.796 245.963L131.787 245.979ZM152.803 249.597C151.025 249.377 149.266 249.124 147.515 248.855C147.02 248.787 146.552 249.12 146.484 249.616C146.422 249.987 146.619 250.355 146.926 250.53C147.023 250.585 147.129 250.624 147.244 250.647C148.995 250.916 150.78 251.162 152.558 251.382C153.053 251.45 153.514 251.092 153.557 250.603C153.625 250.108 153.267 249.647 152.778 249.604L152.803 249.597ZM142.257 248.023C140.484 247.72 138.745 247.393 137.006 247.067C136.519 246.982 136.045 247.29 135.935 247.783C135.864 248.171 136.052 248.556 136.375 248.739C136.456 248.785 136.536 248.831 136.661 248.838C138.416 249.174 140.171 249.509 141.945 249.813C142.431 249.897 142.899 249.564 142.983 249.078C143.068 248.591 142.735 248.124 142.248 248.039L142.257 248.023ZM195.397 251.678C193.596 251.723 191.83 251.744 190.064 251.766C189.573 251.764 189.168 252.176 189.167 252.667C189.165 253.008 189.35 253.284 189.625 253.441C189.754 253.514 189.918 253.564 190.077 253.548C191.859 253.536 193.65 253.507 195.451 253.462C195.951 253.447 196.34 253.027 196.341 252.536C196.327 252.036 195.906 251.647 195.415 251.646L195.397 251.678ZM216.702 250.392C214.92 250.554 213.148 250.7 211.375 250.847C210.882 250.887 210.509 251.316 210.54 251.826C210.556 252.134 210.751 252.395 210.993 252.533C211.138 252.615 211.327 252.659 211.503 252.651C213.275 252.505 215.064 252.368 216.855 252.19C217.349 252.15 217.714 251.695 217.674 251.202C217.634 250.708 217.179 250.343 216.686 250.383L216.702 250.392ZM228.319 250.009C228.253 249.522 227.799 249.157 227.312 249.222C225.535 249.451 223.776 249.648 222.018 249.845C221.515 249.901 221.159 250.34 221.215 250.842C221.257 251.144 221.419 251.386 221.661 251.524C221.823 251.616 222.012 251.659 222.212 251.645C223.971 251.448 225.755 251.245 227.532 251.015C228.019 250.95 228.384 250.495 228.319 250.009ZM206.052 251.218C204.256 251.33 202.495 251.418 200.718 251.498C200.217 251.512 199.829 251.933 199.859 252.442C199.867 252.767 200.052 253.043 200.31 253.191C200.456 253.273 200.62 253.324 200.795 253.316C202.572 253.237 204.359 253.142 206.155 253.03C206.664 252.999 207.037 252.57 206.997 252.076C206.957 251.583 206.536 251.194 206.043 251.234L206.052 251.218ZM72.5917 222.711C71.0776 221.763 69.598 220.793 68.1368 219.791C67.7212 219.469 67.1635 219.622 66.8922 220.023C66.6117 220.441 66.7233 220.997 67.125 221.268C68.5862 222.271 70.0981 223.259 71.6284 224.216L71.6607 224.234C72.0808 224.473 72.6039 224.343 72.8752 223.941C73.1396 223.514 73.0117 222.95 72.6009 222.694L72.5917 222.711ZM179.779 51.8549C180.274 51.7733 180.591 51.2909 180.51 50.7953C180.419 50.3159 179.946 49.9825 179.45 50.0641C177.676 50.4016 175.926 50.7322 174.193 51.0719C173.705 51.1789 173.38 51.6359 173.478 52.1407C173.539 52.4103 173.693 52.6267 173.92 52.7554C174.097 52.8566 174.328 52.9022 174.547 52.8557C176.28 52.516 178.029 52.1854 179.804 51.8479L179.779 51.8549ZM168.925 52.1374C167.157 52.5003 165.405 52.8723 163.686 53.2628C163.198 53.3697 162.88 53.8521 162.987 54.3407C163.048 54.6104 163.212 54.8106 163.422 54.9301C163.616 55.0405 163.83 55.077 164.065 55.0396C165.785 54.6492 167.527 54.2933 169.295 53.9304C169.783 53.8235 170.091 53.3572 169.993 52.8525C169.886 52.3639 169.404 52.0466 168.915 52.1536L168.925 52.1374ZM121.426 243.441C119.703 242.974 117.989 242.49 116.3 242C115.825 241.858 115.327 242.131 115.185 242.606C115.064 243.007 115.24 243.45 115.595 243.652C115.66 243.689 115.708 243.716 115.782 243.737C117.487 244.236 119.217 244.729 120.956 245.205C121.441 245.331 121.938 245.058 122.064 244.574C122.19 244.09 121.901 243.583 121.433 243.466L121.426 243.441ZM81.7958 228.033C80.5819 227.386 79.3934 226.731 78.2302 226.069L77.1478 225.453C76.7807 225.158 76.1631 225.342 75.9149 225.778C75.6667 226.214 75.8037 226.762 76.2399 227.011L77.3385 227.636C78.5178 228.307 79.7133 228.987 80.9525 229.628C81.3887 229.876 81.9394 229.698 82.1715 229.252C82.4197 228.816 82.2481 228.291 81.7958 228.033ZM63.8244 216.695C62.3838 215.619 60.9939 214.529 59.6294 213.431C59.2461 213.128 58.6698 213.163 58.357 213.563C58.028 213.953 58.089 214.522 58.4884 214.835C59.8599 215.958 61.2821 217.066 62.7389 218.152C62.7712 218.17 62.8035 218.189 62.8358 218.207C63.2235 218.428 63.7283 218.33 64.0065 217.954C64.3032 217.545 64.2169 216.983 63.8244 216.695ZM158.462 54.4389C156.708 54.8524 154.954 55.266 153.242 55.6818C152.76 55.8141 152.469 56.2895 152.575 56.7781C152.645 57.0316 152.793 57.2227 153.003 57.3422C153.197 57.4525 153.428 57.4982 153.656 57.4355C155.368 57.0197 157.105 56.597 158.85 56.1996C159.339 56.0926 159.64 55.601 159.533 55.1124C159.426 54.6238 158.934 54.3227 158.446 54.4297L158.462 54.4389ZM101.176 236.858C99.5123 236.211 97.8581 235.548 96.2292 234.878C95.7654 234.678 95.2378 234.891 95.0543 235.364C94.8729 235.795 95.0467 236.279 95.4344 236.5C95.4667 236.518 95.499 236.537 95.5313 236.555C97.1672 237.251 98.8215 237.914 100.526 238.563C100.999 238.747 101.52 238.509 101.694 238.052C101.878 237.579 101.656 237.067 101.183 236.884L101.176 236.858ZM111.216 240.411C109.523 239.854 107.829 239.297 106.164 238.691C105.698 238.533 105.177 238.772 105.019 239.238C104.863 239.662 105.055 240.114 105.427 240.325C105.475 240.353 105.523 240.38 105.572 240.408C107.247 240.997 108.947 241.58 110.666 242.13C111.132 242.288 111.645 242.024 111.813 241.542C111.971 241.076 111.707 240.563 111.241 240.404L111.216 240.411ZM191.056 48.9479C190.975 48.4524 190.502 48.1189 190.022 48.2097C188.25 48.5057 186.477 48.8017 184.737 49.1161C184.242 49.1977 183.908 49.671 184.006 50.1757C184.057 50.4615 184.228 50.6871 184.455 50.8158C184.632 50.9169 184.847 50.9534 185.056 50.9231C186.797 50.6087 188.544 50.3196 190.316 50.0236C190.812 49.942 191.145 49.4688 191.054 48.9894L191.056 48.9479ZM91.333 232.733C89.6993 231.996 88.1002 231.236 86.5195 230.443C86.065 230.227 85.5304 230.415 85.3075 230.844C85.1008 231.283 85.2562 231.799 85.6601 232.029L85.7086 232.056C87.2985 232.833 88.9299 233.611 90.5797 234.358C91.0343 234.574 91.5619 234.361 91.7778 233.906C91.9937 233.451 91.7714 232.94 91.326 232.708L91.333 232.733Z" fill="#872BFF"/>
<path d="M228.598 45.2879C233.3 44.5416 238.929 42.8045 238.759 41.7881C238.588 40.7717 232.707 40.8469 227.996 41.6094C227.567 41.6862 227.148 41.7469 226.745 41.8168C226.234 41.3982 225.165 40.5332 223.801 39.436C223.817 39.4452 223.849 39.4635 223.865 39.4727L225.133 39.2745C225.292 39.258 225.393 39.0803 225.345 38.9029L225.144 37.6767C225.121 37.4923 224.977 37.3681 224.809 37.4007L223.542 37.5989C223.542 37.5989 223.422 37.6591 223.369 37.7145L221.891 37.9432C220.735 37.0069 219.474 35.9902 218.229 34.9826L219.472 34.7913C219.631 34.7749 219.732 34.5972 219.683 34.4197L219.483 33.1935C219.459 33.0092 219.316 32.8849 219.148 32.9175L217.88 33.1158C217.88 33.1158 217.76 33.1759 217.708 33.2314L216.281 33.4461C213.113 30.895 210.446 28.7788 210.331 28.7559C210.043 28.6988 208.192 29.0572 208.192 29.0572C207.747 29.1249 207.408 29.2315 207.406 29.273C207.42 29.3237 207.913 29.2836 208.333 29.2229L213.414 35.215C213.068 35.2963 212.828 35.4166 212.84 35.5088C212.859 35.6264 213.232 35.6464 213.661 35.5696L213.712 35.5557L214.705 36.7412C214.385 36.8155 214.145 36.9359 214.157 37.0281C214.176 37.1456 214.549 37.1657 214.978 37.0888L215.895 38.1454L216.305 39.0415C215.918 39.1206 215.611 39.2456 215.623 39.3378C215.642 39.4554 216.015 39.4755 216.444 39.3986L216.46 39.4078L217.282 41.1585C216.894 41.2376 216.588 41.3626 216.616 41.464C216.635 41.5816 217.008 41.6016 217.437 41.5248L218.182 43.1465C215.031 43.6848 213.787 43.9176 211.452 44.3C209.101 44.6731 206.859 45.1936 204.99 45.7342C203.249 44.3587 199.843 41.5867 199.843 41.5867L198.506 41.6813L200.792 47.1735C200.391 47.3518 200.076 47.493 199.868 47.6317C198.907 47.8548 198.315 48.0311 198.327 48.1233C198.338 48.2155 198.938 48.2144 199.892 48.1158C200.139 48.1707 200.513 48.1908 200.985 48.2245L200.505 54.2174L201.812 53.913C201.812 53.913 204.354 49.9706 205.541 48.1863C207.427 48.1045 209.598 47.9714 211.899 47.762C214.812 47.3026 216.103 47.1388 218.788 46.742L218.577 48.5038C218.123 48.5876 217.791 48.7197 217.81 48.8372C217.821 48.9294 218.144 48.9634 218.554 48.9188L218.325 50.8628L218.309 50.8536C217.855 50.9374 217.514 51.0856 217.542 51.187C217.554 51.2792 217.893 51.3224 218.287 51.2687L218.185 52.2372L217.657 53.5407C217.212 53.6084 216.871 53.7566 216.89 53.8741C216.901 53.9663 217.157 54.005 217.501 53.9652L216.916 55.4072L216.883 55.3889C216.429 55.4727 216.088 55.6209 216.107 55.7384C216.119 55.8306 216.4 55.8624 216.743 55.8225L213.764 63.088C213.351 63.1741 212.863 63.281 212.861 63.3225C212.875 63.3732 213.225 63.3587 213.67 63.2911C213.67 63.2911 215.555 63.0594 215.788 62.9137C215.882 62.8605 217.758 60.0144 219.989 56.6213L221.415 56.4066C221.415 56.4066 221.545 56.4801 221.611 56.4754L222.879 56.2771C223.038 56.2607 223.139 56.083 223.091 55.9056L222.89 54.6794C222.867 54.495 222.724 54.3707 222.555 54.4033L221.313 54.5946C222.184 53.2512 223.056 51.9078 223.881 50.6452L225.358 50.4166C225.358 50.4166 225.488 50.4902 225.555 50.4854L226.822 50.2872C226.981 50.2707 227.082 50.093 227.034 49.9156L226.833 48.6894C226.81 48.505 226.667 48.3808 226.498 48.4134L225.231 48.6116C225.231 48.6116 225.212 48.6439 225.162 48.6579C226.113 47.2106 226.849 46.068 227.212 45.5048C227.616 45.4349 228.035 45.3742 228.48 45.3065L228.598 45.2879Z" fill="#872BFF"/>
</g>
<defs>
<clipPath id="clip0_191_2277">
<rect width="305.024" height="298.093" fill="white" transform="translate(0.923828)"/>
</clipPath>
</defs>
</svg>
