<svg width="223" height="539" viewBox="0 0 223 539" fill="none" xmlns="http://www.w3.org/2000/svg">
<g clip-path="url(#clip0_1_48)">
<g clip-path="url(#clip1_1_48)">
<path d="M130.571 318.439C129.841 316.834 129.095 315.219 128.324 313.61C128.116 313.161 128.29 312.616 128.739 312.408C129.188 312.2 129.734 312.374 129.942 312.823C130.729 314.441 131.491 316.065 132.211 317.686C132.419 318.135 132.22 318.687 131.755 318.886C131.478 319.023 131.156 318.983 130.916 318.84C130.757 318.744 130.642 318.611 130.555 318.429L130.571 318.439ZM127.576 308.011C126.77 306.425 125.948 304.83 125.1 303.241C124.866 302.798 124.321 302.624 123.869 302.873C123.426 303.107 123.268 303.662 123.501 304.104C124.333 305.684 125.165 307.263 125.956 308.84C126.036 308.996 126.151 309.13 126.294 309.215C126.55 309.368 126.881 309.393 127.168 309.239C127.61 309.006 127.801 308.47 127.567 308.027L127.576 308.011ZM142.269 348.875C142.477 348.999 142.732 349.043 142.996 348.963C143.474 348.815 143.754 348.311 143.606 347.833C143.083 346.135 142.544 344.427 141.99 342.71C141.842 342.232 141.319 341.985 140.841 342.132C140.363 342.28 140.115 342.803 140.263 343.281C140.827 344.982 141.35 346.68 141.857 348.369C141.915 348.598 142.068 348.776 142.26 348.891L142.269 348.875ZM52.3216 485.937C51.5375 484.386 50.7566 482.794 49.9788 481.16C49.7707 480.711 49.2347 480.52 48.7697 480.719C48.3207 480.927 48.1305 481.463 48.329 481.928C49.1133 483.587 49.9007 485.205 50.6847 486.756C50.7647 486.912 50.8892 487.03 51.0328 487.116C51.2882 487.268 51.6197 487.293 51.9063 487.139C52.349 486.906 52.5232 486.36 52.3056 485.927L52.3216 485.937ZM122.509 298.553C121.642 296.996 120.749 295.446 119.831 293.901C119.572 293.465 119.024 293.332 118.597 293.575C118.161 293.834 118.028 294.383 118.271 294.81C119.173 296.344 120.065 297.895 120.926 299.427C121.015 299.567 121.124 299.675 121.252 299.751C121.523 299.913 121.864 299.922 122.151 299.769C122.577 299.525 122.736 298.97 122.493 298.544L122.509 298.553ZM138.921 338.712C139.145 338.846 139.425 338.884 139.683 338.778C140.155 338.605 140.393 338.097 140.236 337.636C139.636 335.957 139.037 334.278 138.396 332.596C138.214 332.141 137.69 331.893 137.235 332.076C136.763 332.249 136.532 332.781 136.714 333.237C137.339 334.909 137.948 336.572 138.548 338.251C138.615 338.464 138.762 338.617 138.937 338.722L138.921 338.712ZM45.7517 471.382C45.5691 470.926 45.0363 470.694 44.5808 470.877C44.1253 471.06 43.8937 471.592 44.0763 472.048C44.749 473.749 45.4504 475.402 46.1389 477.004C46.2254 477.186 46.3563 477.329 46.4999 477.415C46.7393 477.558 47.0454 477.589 47.313 477.467C47.778 477.269 47.9841 476.742 47.7856 476.277C47.0971 474.675 46.4117 473.032 45.7453 471.356L45.7517 471.382ZM134.754 328.255C134.831 328.453 134.961 328.596 135.121 328.691C135.36 328.834 135.651 328.856 135.925 328.76C136.38 328.577 136.612 328.044 136.429 327.589C135.769 325.939 135.068 324.286 134.366 322.633C134.184 322.177 133.642 321.962 133.176 322.16C132.711 322.359 132.505 322.885 132.704 323.35C133.415 324.987 134.1 326.631 134.744 328.271L134.754 328.255ZM42.0248 461.383C41.8517 460.911 41.3539 460.657 40.8665 460.821C40.3951 460.994 40.141 461.491 40.3045 461.979C40.9008 463.699 41.5162 465.387 42.1187 467.025C42.1956 467.222 42.333 467.391 42.4926 467.486C42.716 467.62 42.9966 467.657 43.2706 467.561C43.742 467.388 43.9736 466.855 43.791 466.4C43.1885 464.762 42.5796 463.1 41.9833 461.379L42.0248 461.383ZM144.096 469.199C143.567 470.919 143.016 472.603 142.442 474.252C142.303 474.667 142.469 475.113 142.836 475.332C142.884 475.361 142.948 475.399 142.996 475.427C143.458 475.595 143.978 475.343 144.146 474.88C144.729 473.215 145.299 471.499 145.838 469.763C145.99 469.291 145.727 468.788 145.239 468.627C144.767 468.475 144.255 468.753 144.103 469.225L144.096 469.199ZM140.584 479.248C139.934 480.916 139.236 482.556 138.541 484.155C138.35 484.582 138.514 485.07 138.897 485.298C138.929 485.317 138.96 485.336 138.992 485.356C139.452 485.565 139.984 485.363 140.177 484.894C140.907 483.273 141.589 481.624 142.259 479.924C142.443 479.471 142.209 478.919 141.746 478.751C141.277 478.558 140.768 478.795 140.574 479.264L140.584 479.248ZM117.052 289.275C116.115 287.763 115.162 286.241 114.184 284.725C113.915 284.305 113.357 284.188 112.937 284.457C112.516 284.725 112.4 285.283 112.668 285.704C113.631 287.21 114.593 288.716 115.514 290.218C115.588 290.349 115.706 290.441 115.818 290.508C116.089 290.67 116.455 290.672 116.752 290.503C117.172 290.234 117.305 289.686 117.046 289.249L117.052 289.275ZM146.9 458.923C146.486 460.668 146.04 462.393 145.588 464.093C145.483 464.485 145.669 464.899 146.004 465.099C146.068 465.138 146.148 465.185 146.23 465.191C146.712 465.328 147.209 465.04 147.345 464.558C147.807 462.842 148.253 461.117 148.661 459.347C148.781 458.856 148.484 458.375 147.992 458.255C147.501 458.134 147.021 458.432 146.9 458.923ZM136.28 488.953C135.477 490.552 134.642 492.132 133.803 493.644C133.555 494.059 133.706 494.604 134.137 494.861L134.153 494.871C134.584 495.128 135.138 494.961 135.38 494.521C136.237 492.976 137.082 491.381 137.904 489.75C138.13 489.3 137.938 488.753 137.504 488.537C137.054 488.311 136.515 488.488 136.29 488.937L136.28 488.953ZM148.031 453.731C147.952 454.117 148.132 454.506 148.451 454.696C148.531 454.744 148.626 454.801 148.735 454.801C149.22 454.896 149.71 454.582 149.805 454.097C150.168 452.366 150.493 450.59 150.801 448.804C150.88 448.31 150.557 447.835 150.063 447.756C149.569 447.678 149.094 448.001 149.016 448.495C148.716 450.265 148.369 452.006 148.031 453.731ZM151.84 411.362C151.841 411.687 152.02 411.967 152.276 412.119C152.419 412.205 152.582 412.259 152.757 412.256C153.258 412.251 153.655 411.839 153.651 411.339C153.625 409.57 153.577 407.766 153.503 405.968C153.483 405.458 153.062 405.076 152.568 405.106C152.058 405.126 151.676 405.547 151.706 406.041C151.779 407.839 151.831 409.602 151.856 411.371L151.84 411.362ZM151.085 432.67C151.051 433.018 151.243 433.349 151.53 433.52C151.642 433.587 151.773 433.622 151.913 433.641C152.41 433.678 152.846 433.31 152.9 432.823C153.049 431.05 153.183 429.268 153.31 427.46C153.347 426.963 152.954 426.533 152.457 426.496C151.959 426.459 151.53 426.851 151.493 427.349C151.375 429.141 151.251 430.907 151.095 432.654L151.085 432.67ZM78.8688 518.228C77.4167 517.36 75.9834 516.353 74.5659 515.246C74.1796 514.95 73.5996 515.015 73.3039 515.402C72.9986 515.804 73.073 516.368 73.4593 516.664C74.9407 517.808 76.4378 518.854 77.9538 519.76C78.3846 520.017 78.9454 519.876 79.1932 519.461C79.4506 519.03 79.3252 518.479 78.8943 518.221L78.8688 518.228ZM57.5104 495.228C56.6117 493.761 55.7098 492.226 54.8364 490.643C54.5933 490.217 54.0383 490.058 53.6116 490.301C53.1849 490.545 53.0266 491.1 53.2697 491.526C54.1655 493.144 55.0834 494.688 55.9885 496.181C56.062 496.312 56.1802 496.404 56.2919 496.471C56.5632 496.633 56.9297 496.635 57.2259 496.466C57.6461 496.197 57.7789 495.649 57.5199 495.213L57.5104 495.228ZM98.725 522.9C97.0008 523.104 95.2795 523.159 93.5452 523.054C93.0478 523.017 92.6183 523.41 92.581 523.907C92.5626 524.264 92.748 524.57 93.0193 524.732C93.147 524.808 93.2778 524.843 93.418 524.862C95.2353 524.973 97.1064 524.921 98.923 524.707C99.4106 524.652 99.7699 524.196 99.7148 523.708C99.6437 523.211 99.2031 522.861 98.7155 522.916L98.725 522.9ZM150.624 444.281C151.118 444.359 151.586 444.011 151.649 443.507C151.897 441.75 152.139 439.968 152.339 438.182C152.393 437.695 152.035 437.243 151.547 437.189C151.043 437.127 150.607 437.494 150.554 437.982C150.353 439.767 150.13 441.518 149.866 443.265C149.813 443.645 149.995 443.992 150.298 444.173C150.394 444.23 150.515 444.281 150.64 444.29L150.624 444.281ZM153.545 422.101C153.611 420.322 153.646 418.524 153.665 416.717C153.677 416.226 153.274 415.812 152.774 415.816C152.273 415.82 151.869 416.207 151.873 416.707C151.864 418.499 151.823 420.271 151.74 422.041C151.731 422.382 151.901 422.678 152.188 422.85C152.316 422.926 152.463 422.97 152.612 422.973C153.119 422.994 153.533 422.592 153.545 422.101ZM118.689 514.343C118.36 513.952 117.805 513.902 117.414 514.231C116.036 515.378 114.632 516.423 113.203 517.367C112.782 517.635 112.665 518.193 112.95 518.623C113.033 518.738 113.126 518.836 113.237 518.903C113.525 519.075 113.891 519.077 114.197 518.892C115.687 517.92 117.145 516.82 118.567 515.635C118.949 515.322 119.009 514.751 118.68 514.359L118.689 514.343ZM132.339 497.944C131.886 497.652 131.366 497.796 131.093 498.218C130.12 499.737 129.135 501.205 128.115 502.588C127.825 502.999 127.909 503.547 128.311 503.853C128.327 503.862 128.359 503.881 128.375 503.891C128.774 504.129 129.29 504.026 129.561 503.646C130.6 502.232 131.614 500.716 132.596 499.181C132.854 498.75 132.744 498.208 132.323 497.935L132.339 497.944ZM88.4528 522.264C86.8071 521.865 85.1484 521.307 83.5244 520.619C83.0555 520.425 82.5395 520.637 82.33 521.096C82.1491 521.508 82.3127 521.995 82.6956 522.224C82.7276 522.243 82.7594 522.262 82.8073 522.291C84.5205 523.011 86.2846 523.61 88.0196 524.04C88.5107 524.16 88.9915 523.863 89.1117 523.372C89.2318 522.881 88.9344 522.4 88.4432 522.28L88.4528 522.264ZM126.143 506.649C125.766 506.338 125.18 506.377 124.868 506.754C123.723 508.127 122.508 509.436 121.309 510.647C120.949 510.995 120.956 511.562 121.305 511.922C121.369 511.96 121.423 512.014 121.487 512.052C121.838 512.262 122.3 512.213 122.589 511.91C123.833 510.661 125.052 509.31 126.241 507.899C126.562 507.506 126.513 506.936 126.136 506.624L126.143 506.649ZM109.887 520.344C109.679 519.895 109.127 519.695 108.684 519.929C107.101 520.694 105.461 521.338 103.849 521.825C103.371 521.973 103.091 522.477 103.239 522.955C103.306 523.169 103.45 523.363 103.642 523.477C103.849 523.601 104.104 523.645 104.369 523.565C106.083 523.052 107.809 522.372 109.478 521.572C109.927 521.364 110.127 520.812 109.893 520.37L109.887 520.344ZM148.939 368.664C148.578 366.911 148.192 365.165 147.79 363.41C147.668 362.925 147.199 362.623 146.699 362.736C146.215 362.858 145.913 363.327 146.025 363.828C146.437 365.567 146.807 367.304 147.161 369.031C147.225 369.286 147.375 369.506 147.583 369.629C147.774 369.744 148.004 369.794 148.233 369.737C148.724 369.64 149.035 369.155 148.939 368.664ZM63.5683 503.935C62.52 502.573 61.4684 501.144 60.4454 499.666C60.1673 499.262 59.5997 499.161 59.1794 499.43C58.7751 499.708 58.6742 500.276 58.9524 500.68C59.9977 502.192 61.0717 503.656 62.1423 505.054C62.219 505.143 62.3052 505.216 62.4009 505.273C62.7041 505.454 63.1217 505.444 63.4145 505.207C63.8124 504.904 63.8719 504.333 63.5683 503.935ZM145.181 359.188C145.372 359.302 145.627 359.346 145.857 359.289C146.341 359.166 146.637 358.672 146.515 358.187C146.078 356.454 145.615 354.727 145.137 352.991C145.015 352.507 144.511 352.227 144.017 352.365C143.532 352.487 143.253 352.991 143.391 353.485C143.879 355.206 144.325 356.923 144.772 358.64C144.83 358.87 144.989 359.073 145.181 359.188ZM152.858 395.233C152.812 394.729 152.381 394.363 151.877 394.409C151.374 394.455 151.008 394.886 151.054 395.389C151.204 397.168 151.354 398.946 151.456 400.696C151.466 401.005 151.655 401.269 151.894 401.412C152.054 401.508 152.226 401.546 152.427 401.536C152.921 401.506 153.312 401.069 153.267 400.565C153.158 398.79 153.017 396.995 152.851 395.207L152.858 395.233ZM150.959 390.764C151.118 390.859 151.322 390.916 151.517 390.881C152.004 390.826 152.379 390.379 152.308 389.882C152.107 388.116 151.89 386.341 151.641 384.547C151.57 384.049 151.12 383.716 150.632 383.771C150.135 383.842 149.801 384.292 149.857 384.78C150.099 386.548 150.316 388.323 150.511 390.064C150.547 390.366 150.713 390.596 150.952 390.739L150.959 390.764ZM70.6223 511.808C69.3927 510.64 68.1629 509.364 66.9553 508.015C66.6167 507.64 66.0523 507.606 65.6768 507.944C65.3013 508.283 65.2674 508.847 65.606 509.223C66.836 510.607 68.1137 511.912 69.3816 513.124C69.4455 513.162 69.4838 513.206 69.5476 513.244C69.8987 513.454 70.3608 513.405 70.6598 513.086C71.0034 512.728 70.98 512.151 70.6223 511.808ZM149.969 373.935C149.873 373.444 149.397 373.116 148.906 373.213C148.415 373.31 148.098 373.769 148.185 374.276C148.504 376.025 148.813 377.791 149.091 379.537C149.136 379.824 149.296 380.028 149.519 380.161C149.695 380.266 149.908 380.307 150.119 380.281C150.616 380.21 150.943 379.734 150.872 379.237C150.604 377.475 150.295 375.71 149.969 373.935Z" fill="#F411CF"/>
<path d="M92.5061 254.867C89.6137 251.082 85.3946 246.981 84.5734 247.595C83.7586 248.234 86.6344 253.351 89.5268 257.136C89.792 257.489 90.0509 257.817 90.3097 258.145C90.1867 258.786 89.9344 260.151 89.6221 261.869C89.6062 261.86 89.6252 261.828 89.6029 261.793L88.8199 260.784C88.7208 260.66 88.5295 260.654 88.3799 260.759L87.39 261.51C87.2404 261.616 87.2089 261.814 87.3079 261.938L88.0909 262.947C88.0909 262.947 88.2026 263.013 88.2664 263.052L89.1614 264.236C88.8933 265.699 88.5903 267.294 88.3065 268.856L87.5395 267.857C87.4405 267.733 87.2492 267.727 87.0995 267.832L86.1096 268.583C85.96 268.689 85.9285 268.887 86.0276 269.011L86.8106 270.02C86.8106 270.02 86.9223 270.086 86.9861 270.125L87.8586 271.274C87.1333 275.279 86.5406 278.627 86.5663 278.729C86.6369 279.009 87.8448 280.467 87.8448 280.467C88.1101 280.82 88.3656 281.081 88.4101 281.043C88.4292 281.011 88.1765 280.6 87.9272 280.257L90.7755 272.951C91.0056 273.218 91.2354 273.377 91.2895 273.323C91.3786 273.246 91.2281 272.918 90.9628 272.565L90.9309 272.546L91.4987 271.088C91.7223 271.33 91.9266 271.495 92.0062 271.434C92.0953 271.358 91.9449 271.03 91.6796 270.676L92.187 269.356L92.7784 268.583C93.0309 268.885 93.2895 269.105 93.3786 269.028C93.4677 268.951 93.3172 268.623 93.0519 268.27L93.036 268.261L94.2124 266.69C94.4648 266.992 94.717 267.186 94.7966 267.125C94.8857 267.049 94.7352 266.721 94.4699 266.367L94.454 266.358L95.5286 264.921C97.5068 267.445 98.3089 268.422 99.7439 270.297C101.195 272.181 102.725 273.897 104.095 275.3C103.708 277.471 102.89 281.812 102.89 281.812L103.623 282.942L107.362 278.312C107.701 278.579 107.994 278.776 108.218 278.91C108.879 279.651 109.314 280.084 109.384 280.039C109.463 279.978 109.169 279.456 108.645 278.667C108.571 278.428 108.43 278.084 108.212 277.651L113.697 275.211L112.796 274.218C112.796 274.218 108.112 273.867 105.992 273.683C105.029 272.069 103.859 270.222 102.603 268.302C100.803 265.95 100.039 264.909 98.4188 262.729L100.069 262.069C100.334 262.422 100.625 262.661 100.714 262.584C100.793 262.523 100.665 262.23 100.432 261.896L102.254 261.166L102.27 261.175C102.535 261.529 102.826 261.767 102.915 261.69C102.994 261.63 102.876 261.321 102.633 261.002L103.544 260.637L104.956 260.485C105.221 260.838 105.512 261.076 105.601 261C105.68 260.939 105.581 260.706 105.402 260.426L106.948 260.267L106.98 260.286C107.235 260.655 107.535 260.878 107.615 260.817C107.695 260.756 107.589 260.499 107.394 260.209L115.193 259.368C115.451 259.696 115.79 260.071 115.825 260.049C115.87 260.01 115.684 259.705 115.419 259.351C115.419 259.351 114.351 257.804 114.096 257.652C114 257.595 110.605 257.298 106.562 256.962L105.689 255.813C105.689 255.813 105.692 255.663 105.654 255.619L104.871 254.61C104.772 254.486 104.581 254.48 104.431 254.585L103.441 255.336C103.291 255.442 103.26 255.639 103.359 255.763L104.126 256.763C102.535 256.635 100.928 256.498 99.436 256.386L98.5412 255.202C98.5412 255.202 98.544 255.052 98.5057 255.008L97.7227 253.999C97.6236 253.875 97.4324 253.869 97.2827 253.974L96.2928 254.725C96.1432 254.831 96.1117 255.029 96.2108 255.153L96.9938 256.162C96.9938 256.162 97.0416 256.19 97.0576 256.2C95.3423 256.063 93.9746 255.96 93.3114 255.911C93.0526 255.583 92.8032 255.239 92.538 254.886L92.5061 254.867Z" fill="#F411CF"/>
</g>
</g>
<defs>
<clipPath id="clip0_1_48">
<rect width="222.153" height="538.404" fill="white" transform="translate(0.0639648)"/>
</clipPath>
<clipPath id="clip1_1_48">
<rect width="222.153" height="296.404" fill="white" transform="translate(0.0639648 242)"/>
</clipPath>
</defs>
</svg>
