<svg width="184" height="177" viewBox="0 0 184 177" fill="none" xmlns="http://www.w3.org/2000/svg">
<g clip-path="url(#clip0_191_2088)">
<path d="M4.84047 128.32C3.40047 128.32 2.23047 129.5 2.23047 130.95C2.23047 132.4 3.40047 133.58 4.84047 133.58C6.28047 133.58 7.45047 132.4 7.45047 130.95C7.45047 129.5 6.28047 128.32 4.84047 128.32Z" fill="#FF5722"/>
<path d="M49.4996 133.58C50.9411 133.58 52.1096 132.403 52.1096 130.95C52.1096 129.498 50.9411 128.32 49.4996 128.32C48.0582 128.32 46.8896 129.498 46.8896 130.95C46.8896 132.403 48.0582 133.58 49.4996 133.58Z" fill="#FF5722"/>
<path d="M27.1696 128.32C25.7296 128.32 24.5596 129.5 24.5596 130.95C24.5596 132.4 25.7296 133.58 27.1696 133.58C28.6096 133.58 29.7796 132.4 29.7796 130.95C29.7796 129.5 28.6096 128.32 27.1696 128.32Z" fill="#FF5722"/>
<path d="M26.8004 106.94C25.3604 106.94 24.1904 108.12 24.1904 109.57C24.1904 111.02 25.3604 112.2 26.8004 112.2C28.2404 112.2 29.4104 111.02 29.4104 109.57C29.4104 108.12 28.2404 106.94 26.8004 106.94Z" fill="#FF5722"/>
<path d="M4.47035 106.94C3.03035 106.94 1.86035 108.12 1.86035 109.57C1.86035 111.02 3.03035 112.2 4.47035 112.2C5.91035 112.2 7.08035 111.02 7.08035 109.57C7.08035 108.12 5.91035 106.94 4.47035 106.94Z" fill="#FF5722"/>
<path d="M71.4596 106.94C70.0196 106.94 68.8496 108.12 68.8496 109.57C68.8496 111.02 70.0196 112.2 71.4596 112.2C72.8996 112.2 74.0696 111.02 74.0696 109.57C74.0696 108.12 72.8996 106.94 71.4596 106.94Z" fill="#FF5722"/>
<path d="M49.1295 106.94C47.6895 106.94 46.5195 108.12 46.5195 109.57C46.5195 111.02 47.6895 112.2 49.1295 112.2C50.5695 112.2 51.7395 111.02 51.7395 109.57C51.7395 108.12 50.5695 106.94 49.1295 106.94Z" fill="#FF5722"/>
<path d="M4.84047 171.1C3.40047 171.1 2.23047 172.28 2.23047 173.73C2.23047 175.18 3.40047 176.36 4.84047 176.36C6.28047 176.36 7.45047 175.18 7.45047 173.73C7.45047 172.28 6.28047 171.1 4.84047 171.1Z" fill="#FF5722"/>
<path d="M26.8004 149.71C25.3604 149.71 24.1904 150.89 24.1904 152.34C24.1904 153.79 25.3604 154.97 26.8004 154.97C28.2404 154.97 29.4104 153.79 29.4104 152.34C29.4104 150.89 28.2404 149.71 26.8004 149.71Z" fill="#FF5722"/>
<path d="M4.47035 149.71C3.03035 149.71 1.86035 150.89 1.86035 152.34C1.86035 153.79 3.03035 154.97 4.47035 154.97C5.91035 154.97 7.08035 153.79 7.08035 152.34C7.08035 150.89 5.91035 149.71 4.47035 149.71Z" fill="#FF5722"/>
<path d="M93.4196 85.55C91.9796 85.55 90.8096 86.73 90.8096 88.18C90.8096 89.63 91.9796 90.81 93.4196 90.81C94.8596 90.81 96.0296 89.63 96.0296 88.18C96.0296 86.73 94.8596 85.55 93.4196 85.55Z" fill="#FF5722"/>
<path d="M48.7604 85.55C47.3204 85.55 46.1504 86.73 46.1504 88.18C46.1504 89.63 47.3204 90.81 48.7604 90.81C50.2004 90.81 51.3704 89.63 51.3704 88.18C51.3704 86.73 50.2004 85.55 48.7604 85.55Z" fill="#FF5722"/>
<path d="M71.0905 90.81C72.5319 90.81 73.7005 89.6326 73.7005 88.18C73.7005 86.7275 72.5319 85.55 71.0905 85.55C69.649 85.55 68.4805 86.7275 68.4805 88.18C68.4805 89.6326 69.649 90.81 71.0905 90.81Z" fill="#FF5722"/>
<path d="M26.4196 85.55C24.9796 85.55 23.8096 86.73 23.8096 88.18C23.8096 89.63 24.9796 90.81 26.4196 90.81C27.8596 90.81 29.0296 89.63 29.0296 88.18C29.0296 86.73 27.8696 85.55 26.4196 85.55Z" fill="#FF5722"/>
<path d="M4.09047 85.55C2.65047 85.55 1.48047 86.73 1.48047 88.18C1.48047 89.63 2.65047 90.81 4.09047 90.81C5.53047 90.81 6.70047 89.63 6.70047 88.18C6.70047 86.73 5.53047 85.55 4.09047 85.55Z" fill="#FF5722"/>
<path d="M93.0397 64.1599C91.5997 64.1599 90.4297 65.3399 90.4297 66.7899C90.4297 68.2399 91.5997 69.4199 93.0397 69.4199C94.4797 69.4199 95.6497 68.2399 95.6497 66.7899C95.6497 65.3399 94.4797 64.1599 93.0397 64.1599Z" fill="#FF5722"/>
<path d="M70.7096 64.1599C69.2696 64.1599 68.0996 65.3399 68.0996 66.7899C68.0996 68.2399 69.2696 69.4199 70.7096 69.4199C72.1496 69.4199 73.3196 68.2399 73.3196 66.7899C73.3196 65.3399 72.1496 64.1599 70.7096 64.1599Z" fill="#FF5722"/>
<path d="M48.3795 64.1599C46.9395 64.1599 45.7695 65.3399 45.7695 66.7899C45.7695 68.2399 46.9395 69.4199 48.3795 69.4199C49.8195 69.4199 50.9895 68.2399 50.9895 66.7899C50.9895 65.3399 49.8195 64.1599 48.3795 64.1599Z" fill="#FF5722"/>
<path d="M115.38 64.1599C113.94 64.1599 112.77 65.3399 112.77 66.7899C112.77 68.2399 113.94 69.4199 115.38 69.4199C116.82 69.4199 117.99 68.2399 117.99 66.7899C117.99 65.3399 116.82 64.1599 115.38 64.1599Z" fill="#FF5722"/>
<path d="M3.72035 64.1599C2.28035 64.1599 1.11035 65.3399 1.11035 66.7899C1.11035 68.2399 2.28035 69.4199 3.72035 69.4199C5.16035 69.4199 6.33035 68.2399 6.33035 66.7899C6.33035 65.3399 5.16035 64.1599 3.72035 64.1599Z" fill="#FF5722"/>
<path d="M26.0504 64.1599C24.6104 64.1599 23.4404 65.3399 23.4404 66.7899C23.4404 68.2399 24.6104 69.4199 26.0504 69.4199C27.4904 69.4199 28.6604 68.2399 28.6604 66.7899C28.6604 65.3399 27.4904 64.1599 26.0504 64.1599Z" fill="#FF5722"/>
<path d="M3.35023 42.77C1.91023 42.77 0.740234 43.95 0.740234 45.4C0.740234 46.85 1.91023 48.03 3.35023 48.03C4.79023 48.03 5.96023 46.85 5.96023 45.4C5.96023 43.95 4.79023 42.77 3.35023 42.77Z" fill="#FF5722"/>
<path d="M92.6696 48.03C94.111 48.03 95.2796 46.8525 95.2796 45.4C95.2796 43.9475 94.111 42.77 92.6696 42.77C91.2281 42.77 90.0596 43.9475 90.0596 45.4C90.0596 46.8525 91.2281 48.03 92.6696 48.03Z" fill="#FF5722"/>
<path d="M137.33 48.03C138.771 48.03 139.94 46.8525 139.94 45.4C139.94 43.9475 138.771 42.77 137.33 42.77C135.888 42.77 134.72 43.9475 134.72 45.4C134.72 46.8525 135.888 48.03 137.33 48.03Z" fill="#FF5722"/>
<path d="M70.3405 42.77C68.9005 42.77 67.7305 43.95 67.7305 45.4C67.7305 46.85 68.9005 48.03 70.3405 48.03C71.7805 48.03 72.9505 46.85 72.9505 45.4C72.9505 43.95 71.7805 42.77 70.3405 42.77Z" fill="#FF5722"/>
<path d="M48.0104 42.77C46.5704 42.77 45.4004 43.95 45.4004 45.4C45.4004 46.85 46.5704 48.03 48.0104 48.03C49.4504 48.03 50.6204 46.85 50.6204 45.4C50.6204 43.95 49.4504 42.77 48.0104 42.77Z" fill="#FF5722"/>
<path d="M25.6803 42.77C24.2403 42.77 23.0703 43.95 23.0703 45.4C23.0703 46.85 24.2403 48.03 25.6803 48.03C27.1203 48.03 28.2903 46.85 28.2903 45.4C28.2903 43.95 27.1203 42.77 25.6803 42.77Z" fill="#FF5722"/>
<path d="M115 42.77C113.56 42.77 112.39 43.95 112.39 45.4C112.39 46.85 113.56 48.03 115 48.03C116.44 48.03 117.61 46.85 117.61 45.4C117.61 43.95 116.44 42.77 115 42.77Z" fill="#FF5722"/>
<path d="M2.98012 26.6399C4.42158 26.6399 5.59012 25.4624 5.59012 24.0099C5.59012 22.5574 4.42158 21.3799 2.98012 21.3799C1.53865 21.3799 0.370117 22.5574 0.370117 24.0099C0.370117 25.4624 1.53865 26.6399 2.98012 26.6399Z" fill="#FF5722"/>
<path d="M114.63 21.3899C113.19 21.3899 112.02 22.5699 112.02 24.0199C112.02 25.4699 113.19 26.6499 114.63 26.6499C116.07 26.6499 117.24 25.4699 117.24 24.0199C117.24 22.5699 116.07 21.3899 114.63 21.3899Z" fill="#FF5722"/>
<path d="M25.3102 21.3899C23.8702 21.3899 22.7002 22.5699 22.7002 24.0199C22.7002 25.4699 23.8702 26.6499 25.3102 26.6499C26.7502 26.6499 27.9202 25.4699 27.9202 24.0199C27.9202 22.5699 26.7502 21.3899 25.3102 21.3899Z" fill="#FF5722"/>
<path d="M69.9704 21.3899C68.5304 21.3899 67.3604 22.5699 67.3604 24.0199C67.3604 25.4699 68.5304 26.6499 69.9704 26.6499C71.4104 26.6499 72.5804 25.4699 72.5804 24.0199C72.5804 22.5699 71.4104 21.3899 69.9704 21.3899Z" fill="#FF5722"/>
<path d="M47.6403 21.3899C46.2003 21.3899 45.0303 22.5699 45.0303 24.0199C45.0303 25.4699 46.2003 26.6499 47.6403 26.6499C49.0803 26.6499 50.2503 25.4699 50.2503 24.0199C50.2503 22.5699 49.0803 21.3899 47.6403 21.3899Z" fill="#FF5722"/>
<path d="M92.3004 21.3899C90.8604 21.3899 89.6904 22.5699 89.6904 24.0199C89.6904 25.4699 90.8604 26.6499 92.3004 26.6499C93.7404 26.6499 94.9104 25.4699 94.9104 24.0199C94.9104 22.5699 93.7404 21.3899 92.3004 21.3899Z" fill="#FF5722"/>
<path d="M159.29 21.3899C157.85 21.3899 156.68 22.5699 156.68 24.0199C156.68 25.4699 157.85 26.6499 159.29 26.6499C160.73 26.6499 161.9 25.4699 161.9 24.0199C161.9 22.5699 160.74 21.3899 159.29 21.3899Z" fill="#FF5722"/>
<path d="M136.96 21.3899C135.52 21.3899 134.35 22.5699 134.35 24.0199C134.35 25.4699 135.52 26.6499 136.96 26.6499C138.4 26.6499 139.57 25.4699 139.57 24.0199C139.57 22.5699 138.41 21.3899 136.96 21.3899Z" fill="#FF5722"/>
<path d="M24.9401 5.24999C26.3801 5.24999 27.5501 4.06999 27.5501 2.61999C27.5501 1.16999 26.3801 -0.0100098 24.9401 -0.0100098C23.5001 -0.0100098 22.3301 1.16999 22.3301 2.61999C22.3301 4.06999 23.5001 5.24999 24.9401 5.24999Z" fill="#FF5722"/>
<path d="M2.61 5.25C4.05 5.25 5.22 4.07 5.22 2.62C5.22 1.17 4.04 0 2.61 0C1.18 0 0 1.18 0 2.63C0 4.08 1.17 5.26 2.61 5.26V5.25Z" fill="#FF5722"/>
<path d="M158.92 5.26C160.361 5.26 161.53 4.08251 161.53 2.63C161.53 1.17749 160.361 0 158.92 0C157.478 0 156.31 1.17749 156.31 2.63C156.31 4.08251 157.478 5.26 158.92 5.26Z" fill="#FF5722"/>
<path d="M91.9303 5.24999C93.3703 5.24999 94.5403 4.06999 94.5403 2.61999C94.5403 1.16999 93.3703 -0.0100098 91.9303 -0.0100098C90.4903 -0.0100098 89.3203 1.16999 89.3203 2.61999C89.3203 4.06999 90.4903 5.24999 91.9303 5.24999Z" fill="#FF5722"/>
<path d="M114.26 5.24999C115.7 5.24999 116.87 4.06999 116.87 2.61999C116.87 1.16999 115.7 -0.0100098 114.26 -0.0100098C112.82 -0.0100098 111.65 1.16999 111.65 2.61999C111.65 4.06999 112.82 5.24999 114.26 5.24999Z" fill="#FF5722"/>
<path d="M136.59 5.24999C138.03 5.24999 139.2 4.06999 139.2 2.61999C139.2 1.16999 138.03 -0.0100098 136.59 -0.0100098C135.15 -0.0100098 133.98 1.16999 133.98 2.61999C133.98 4.06999 135.15 5.24999 136.59 5.24999Z" fill="#FF5722"/>
<path d="M47.2702 5.24999C48.7102 5.24999 49.8802 4.06999 49.8802 2.61999C49.8802 1.16999 48.7102 -0.0100098 47.2702 -0.0100098C45.8302 -0.0100098 44.6602 1.16999 44.6602 2.61999C44.6602 4.06999 45.8302 5.24999 47.2702 5.24999Z" fill="#FF5722"/>
<path d="M181.25 5.24999C182.69 5.24999 183.86 4.06999 183.86 2.61999C183.86 1.16999 182.7 -0.0100098 181.25 -0.0100098C179.8 -0.0100098 178.64 1.16999 178.64 2.61999C178.64 4.06999 179.81 5.24999 181.25 5.24999Z" fill="#FF5722"/>
<path d="M69.6002 5.24999C71.0402 5.24999 72.2102 4.06999 72.2102 2.61999C72.2102 1.16999 71.0402 -0.0100098 69.6002 -0.0100098C68.1602 -0.0100098 66.9902 1.16999 66.9902 2.61999C66.9902 4.06999 68.1602 5.24999 69.6002 5.24999Z" fill="#FF5722"/>
</g>
<defs>
<clipPath id="clip0_191_2088">
<rect width="183.86" height="176.35" fill="white"/>
</clipPath>
</defs>
</svg>
