<svg width="30" height="31" viewBox="0 0 30 31" fill="none" xmlns="http://www.w3.org/2000/svg">
<circle cx="15" cy="15.6121" r="15" fill="white"/>
<path d="M29.9997 15.5193C29.9647 12.6431 29.1134 9.83699 27.5462 7.43131C25.979 5.02563 23.7614 3.1206 21.1543 1.94059C18.5471 0.760578 15.6591 0.354733 12.8304 0.770822C10.0018 1.18693 7.35014 2.40764 5.18788 4.28924C3.02561 6.17082 1.44275 8.63491 0.62569 11.3913C-0.191346 14.1477 -0.208559 17.0816 0.576114 19.8475C1.36079 22.6134 2.91464 25.096 5.0547 27.0032C7.19474 28.9103 9.83187 30.1625 12.6555 30.6121V19.915H8.90539V15.5193H12.6555V12.18C12.5687 11.4036 12.6523 10.6174 12.9005 9.87703C13.1488 9.13665 13.5555 8.46011 14.092 7.89517C14.6284 7.33021 15.2815 6.89061 16.0053 6.60742C16.729 6.3242 17.5059 6.20427 18.2806 6.25611C19.4053 6.2716 20.5273 6.37252 21.637 6.55797V10.3312H19.7619C19.4387 10.2901 19.1102 10.3227 18.8012 10.4266C18.492 10.5304 18.2099 10.7028 17.9759 10.931C17.7419 11.1592 17.5619 11.4374 17.4492 11.7449C17.3364 12.0526 17.2938 12.3818 17.3244 12.7082V15.557H21.487L20.812 19.9528H17.3431V30.5177C20.8868 29.9538 24.1122 28.1306 26.4343 25.3788C28.7564 22.627 30.0213 19.1291 29.9997 15.5193Z" fill="#872BFF"/>
</svg>
