<svg width="30" height="31" viewBox="0 0 30 31" fill="none" xmlns="http://www.w3.org/2000/svg">
<circle cx="15" cy="15.6123" r="15" fill="white"/>
<path d="M29.9997 15.5195C29.9647 12.6434 29.1134 9.83724 27.5462 7.43156C25.979 5.02588 23.7614 3.12085 21.1543 1.94083C18.5471 0.760822 15.6591 0.354977 12.8304 0.771066C10.0018 1.18717 7.35014 2.40788 5.18788 4.28948C3.02561 6.17106 1.44275 8.63515 0.62569 11.3915C-0.191346 14.1479 -0.208559 17.0818 0.576114 19.8477C1.36079 22.6137 2.91464 25.0963 5.0547 27.0034C7.19474 28.9106 9.83187 30.1627 12.6555 30.6123V19.9153H8.90539V15.5195H12.6555V12.1802C12.5687 11.4038 12.6523 10.6176 12.9005 9.87727C13.1488 9.13689 13.5555 8.46036 14.092 7.89541C14.6284 7.33045 15.2815 6.89086 16.0053 6.60766C16.729 6.32444 17.5059 6.20451 18.2806 6.25636C19.4053 6.27184 20.5273 6.37276 21.637 6.55821V10.3314H19.7619C19.4387 10.2904 19.1102 10.323 18.8012 10.4268C18.492 10.5306 18.2099 10.703 17.9759 10.9312C17.7419 11.1594 17.5619 11.4376 17.4492 11.7452C17.3364 12.0529 17.2938 12.3821 17.3244 12.7085V15.5572H21.487L20.812 19.953H17.3431V30.518C20.8868 29.9541 24.1122 28.1309 26.4343 25.3791C28.7564 22.6273 30.0213 19.1293 29.9997 15.5195Z" fill="#872BFF"/>
</svg>
