<svg width="20" height="21" viewBox="0 0 20 21" fill="none" xmlns="http://www.w3.org/2000/svg">
<path fill-rule="evenodd" clip-rule="evenodd" d="M9.99996 5.6123C7.2385 5.6123 5 7.85083 5 10.6123C5 13.3738 7.2385 15.6123 9.99996 15.6123C12.7614 15.6123 15 13.3738 15 10.6123C15 7.85083 12.7614 5.6123 9.99996 5.6123ZM9.99996 13.858C8.20748 13.858 6.75434 12.4048 6.75434 10.6123C6.75434 8.81981 8.20748 7.36666 9.99996 7.36666C11.7925 7.36666 13.2456 8.81981 13.2456 10.6123C13.2456 12.4048 11.7925 13.858 9.99996 13.858Z" fill="white"/>
<path d="M15.4167 6.44564C16.107 6.44564 16.6667 5.88593 16.6667 5.19568C16.6667 4.50534 16.107 3.94564 15.4167 3.94564C14.7263 3.94564 14.1667 4.50534 14.1667 5.19568C14.1667 5.88593 14.7263 6.44564 15.4167 6.44564Z" fill="white"/>
<path fill-rule="evenodd" clip-rule="evenodd" d="M10 0.612305C7.28417 0.612305 6.94358 0.623805 5.877 0.672471C4.81267 0.721055 4.08567 0.890056 3.44958 1.13731C2.792 1.39281 2.23433 1.73473 1.67842 2.29073C1.12242 2.84665 0.7805 3.40432 0.525 4.0619C0.27775 4.69799 0.10875 5.42491 0.0601665 6.48933C0.0114999 7.55592 0 7.8965 0 10.6123C0 13.3282 0.0114999 13.6687 0.0601665 14.7353C0.10875 15.7997 0.27775 16.5266 0.525 17.1627C0.7805 17.8203 1.12242 18.378 1.67842 18.934C2.23433 19.4899 2.792 19.8318 3.44958 20.0873C4.08567 20.3346 4.81267 20.5036 5.877 20.5521C6.94358 20.6008 7.28417 20.6123 10 20.6123C12.7158 20.6123 13.0564 20.6008 14.123 20.5521C15.1873 20.5036 15.9143 20.3346 16.5504 20.0873C17.208 19.8318 17.7657 19.4899 18.3216 18.934C18.8775 18.378 19.2195 17.8203 19.475 17.1627C19.7222 16.5266 19.8912 15.7997 19.9398 14.7353C19.9885 13.6687 20 13.3282 20 10.6123C20 7.8965 19.9885 7.55592 19.9398 6.48933C19.8912 5.42491 19.7222 4.69799 19.475 4.0619C19.2195 3.40432 18.8775 2.84665 18.3216 2.29073C17.7657 1.73473 17.208 1.39281 16.5504 1.13731C15.9143 0.890056 15.1873 0.721055 14.123 0.672471C13.0564 0.623805 12.7158 0.612305 10 0.612305ZM10 2.41415C12.6701 2.41415 12.9864 2.42431 14.0408 2.4724C15.0158 2.5169 15.5453 2.67981 15.8977 2.81673C16.3645 2.99815 16.6976 3.21482 17.0475 3.56473C17.3975 3.91474 17.6142 4.24782 17.7956 4.71457C17.9325 5.06699 18.0954 5.59649 18.1399 6.57141C18.188 7.62592 18.1982 7.94217 18.1982 10.6123C18.1982 13.2824 18.188 13.5987 18.1399 14.6532C18.0954 15.6282 17.9325 16.1576 17.7956 16.51C17.6142 16.9768 17.3975 17.31 17.0476 17.6599C16.6976 18.0098 16.3645 18.2265 15.8977 18.4079C15.5453 18.5449 15.0158 18.7077 14.0408 18.7522C12.9866 18.8003 12.6703 18.8105 10 18.8105C7.32967 18.8105 7.0135 18.8003 5.95917 18.7522C4.98417 18.7077 4.45467 18.5449 4.10225 18.4079C3.6355 18.2265 3.30242 18.0098 2.9525 17.6599C2.60258 17.31 2.38583 16.9768 2.20442 16.51C2.0675 16.1576 1.90458 15.6282 1.86008 14.6532C1.812 13.5987 1.80183 13.2824 1.80183 10.6123C1.80183 7.94217 1.812 7.62592 1.86008 6.57141C1.90458 5.59649 2.0675 5.06699 2.20442 4.71457C2.38583 4.24782 2.6025 3.91474 2.9525 3.56482C3.30242 3.21482 3.6355 2.99815 4.10225 2.81673C4.45467 2.67981 4.98417 2.5169 5.95917 2.4724C7.01358 2.42431 7.32992 2.41415 10 2.41415Z" fill="white"/>
</svg>
