<svg width="214" height="207" viewBox="0 0 214 207" fill="none" xmlns="http://www.w3.org/2000/svg">
<path d="M17.9035 158.492C17.612 158.731 17.2184 158.754 16.9108 158.61C16.7912 158.553 16.6802 158.48 16.6035 158.382C15.4354 156.975 14.3187 155.552 13.2533 154.111C12.9551 153.699 13.0507 153.138 13.4793 152.838C13.9079 152.539 14.4808 152.62 14.7791 153.032C15.8018 154.433 16.9014 155.848 18.0439 157.221C18.3594 157.6 18.2979 158.176 17.9035 158.492ZM80.0278 29.8225C80.4989 29.6055 80.6972 29.0514 80.476 28.6131C80.2634 28.158 79.6993 27.976 79.2453 28.201C77.5492 28.9903 75.8873 29.7956 74.2596 30.617C73.8056 30.842 73.6073 31.3962 73.8285 31.8345C73.9221 32.0247 74.0671 32.1556 74.238 32.236C74.4943 32.3566 74.7937 32.3513 75.0678 32.2297C76.6869 31.4251 78.3488 30.6198 80.0192 29.8393L80.0278 29.8225ZM11.8057 148.646C10.8603 147.136 9.97492 145.592 9.16647 144.062C8.92818 143.616 8.37256 143.459 7.91853 143.684C7.4559 143.926 7.28328 144.471 7.50448 144.909C8.3299 146.488 9.24087 148.066 10.2118 149.609C10.3055 149.757 10.4421 149.863 10.5959 149.936C10.8693 150.065 11.2115 150.058 11.4943 149.878C11.9314 149.604 12.0869 149.05 11.8143 148.629L11.8057 148.646ZM60.8657 38.7886C60.6188 38.3591 60.0289 38.2277 59.6004 38.4856C57.9724 39.4322 56.3871 40.378 54.836 41.3399C54.3989 41.6146 54.2605 42.1761 54.5331 42.5968C54.6267 42.7453 54.7633 42.8513 54.9171 42.9237C55.1905 43.0524 55.5327 43.0463 55.8155 42.8661C57.358 41.921 58.9262 40.9672 60.5286 40.0294C60.9741 39.7795 61.1383 39.2093 60.8657 38.7886ZM5.07007 134.365C4.90884 133.892 4.38774 133.626 3.89105 133.81C3.40296 133.977 3.11922 134.491 3.29753 134.972C3.84885 136.672 4.48573 138.372 5.19968 140.044C5.28465 140.251 5.45529 140.415 5.64325 140.504C5.88247 140.616 6.15621 140.62 6.42171 140.515C6.90131 140.323 7.11671 139.777 6.92979 139.313C6.23282 137.69 5.62151 136.024 5.08716 134.373L5.07007 134.365ZM99.6472 19.4632C97.9001 20.1449 96.1958 20.8259 94.4915 21.5068C94.0119 21.6989 93.7794 22.237 93.9663 22.7009C94.0513 22.908 94.2219 23.0718 94.4099 23.1603C94.632 23.2648 94.9228 23.2763 95.1627 23.1803C96.8499 22.4913 98.5542 21.8104 100.276 21.1375C100.755 20.9454 101.005 20.4154 100.818 19.9515C100.631 19.4876 100.093 19.2551 99.613 19.4472L99.6472 19.4632ZM33.5216 171.857C32.0874 170.764 30.6962 169.629 29.3477 168.493C28.9722 168.15 28.3646 168.219 28.03 168.584C27.6867 168.965 27.7279 169.548 28.1205 169.858C29.4775 171.019 30.9116 172.154 32.3542 173.271C32.4055 173.295 32.4652 173.344 32.5165 173.368C32.8924 173.545 33.3888 173.445 33.6635 173.114C33.9897 172.725 33.9229 172.15 33.5302 171.84L33.5216 171.857ZM90.5918 24.1206C90.3962 23.6735 89.8493 23.4579 89.3697 23.6499C87.6567 24.3894 85.9608 25.137 84.2905 25.8757C83.8194 26.0926 83.6126 26.6219 83.7995 27.0858C83.8931 27.2761 84.0466 27.4319 84.2346 27.5203C84.4738 27.6329 84.7647 27.6445 85.0388 27.5228C86.6919 26.776 88.3793 26.0453 90.0923 25.3058C90.5548 25.1057 90.7873 24.5676 90.6004 24.1037L90.5918 24.1206ZM121.686 12.5821C121.525 12.1094 121.004 11.8433 120.516 12.0104C118.735 12.5926 116.997 13.174 115.259 13.7555C114.77 13.9226 114.504 14.4446 114.665 14.9173C114.733 15.1581 114.92 15.33 115.126 15.4265C115.331 15.523 115.596 15.5433 115.827 15.4641C117.548 14.8747 119.286 14.2933 121.059 13.7279C121.547 13.5608 121.831 13.0468 121.669 12.5741L121.686 12.5821ZM25.371 164.951C24.057 163.706 22.7944 162.444 21.5917 161.188C21.2505 160.819 20.6603 160.813 20.2743 161.153C19.8884 161.494 19.8697 162.07 20.2109 162.439C21.4221 163.719 22.7103 165.015 24.0584 166.276C24.1266 166.35 24.2121 166.39 24.2975 166.43C24.6564 166.599 25.0928 166.533 25.376 166.228C25.7363 165.854 25.7294 165.287 25.371 164.951ZM105.465 19.1934C107.169 18.5542 108.891 17.923 110.646 17.3079C111.134 17.1408 111.384 16.6107 111.24 16.146C111.078 15.6733 110.54 15.4409 110.061 15.5912C108.297 16.2231 106.558 16.8463 104.854 17.4855C104.374 17.6775 104.116 18.1827 104.295 18.6635C104.371 18.8874 104.542 19.0512 104.747 19.1477C104.969 19.2523 105.234 19.2726 105.474 19.1766L105.465 19.1934ZM8.41439 88.5255C8.87575 88.7426 9.41522 88.5578 9.66456 88.1112C10.4731 86.5284 11.3757 84.9689 12.3125 83.4254C12.5789 82.9869 12.435 82.4388 11.9909 82.188C11.5552 81.9621 10.9817 82.089 10.7152 82.5276C9.74418 84.0966 8.83286 85.7147 7.99001 87.3232C7.75776 87.7778 7.92735 88.3172 8.3887 88.5343L8.41439 88.5255ZM5.44529 97.9476C5.99742 96.2859 6.64372 94.6058 7.35836 92.9578C7.55643 92.4871 7.33546 91.9654 6.8569 91.7819C6.37834 91.5985 5.83876 91.825 5.64068 92.2957C4.90884 93.9773 4.25383 95.716 3.67589 97.4283C3.53779 97.8646 3.72471 98.3285 4.1348 98.5215C4.16898 98.5376 4.22024 98.5617 4.25441 98.5778C4.75017 98.7275 5.27279 98.4513 5.42809 97.9813L5.44529 97.9476ZM14.0011 79.1655C14.0011 79.1655 14.0865 79.2057 14.1207 79.2218C14.5308 79.4147 15.0445 79.2805 15.3022 78.9005C16.3157 77.4558 17.4062 75.9848 18.5394 74.5547C18.8485 74.1571 18.7817 73.5826 18.3804 73.2893C17.9792 72.9961 17.3887 73.0733 17.0796 73.4709C15.9292 74.9346 14.8129 76.4145 13.7822 77.8928C13.4816 78.3153 13.5998 78.8722 14.0097 79.1486L14.0011 79.1655ZM20.7065 70.5199C20.7065 70.5199 20.826 70.6179 20.8943 70.6501C21.2703 70.827 21.724 70.7271 22.0071 70.4218C23.1743 69.0912 24.4356 67.7423 25.7139 66.4431C26.0742 66.0697 26.0672 65.5024 25.6918 65.1587C25.3163 64.8149 24.7346 64.8335 24.3742 65.207C23.0787 66.5398 21.8088 67.9056 20.6074 69.2618C20.2641 69.6433 20.3052 70.2266 20.6979 70.5367L20.7065 70.5199ZM64.4627 37.3483C64.719 37.4689 65.0526 37.4797 65.3268 37.3163C66.9119 36.4539 68.5226 35.5827 70.1761 34.7108C70.6388 34.469 70.8114 33.9236 70.5731 33.4773C70.3348 33.031 69.7792 32.8739 69.3165 33.1157C67.6459 33.9796 66.0352 34.8508 64.433 35.7469C63.9874 35.9967 63.8148 36.5421 64.0531 36.9884C64.1382 37.1538 64.2832 37.2847 64.4541 37.3651L64.4627 37.3483ZM2.74609 124.102C2.67902 123.611 2.21801 123.268 1.69598 123.336C1.19104 123.412 0.830468 123.869 0.888937 124.377C1.12351 126.158 1.45211 127.963 1.8493 129.716C1.91695 129.999 2.10457 130.212 2.34379 130.325C2.53175 130.413 2.75412 130.434 2.96811 130.389C3.47318 130.271 3.79108 129.774 3.67264 129.3C3.27533 127.588 2.96369 125.833 2.73749 124.119L2.74609 124.102ZM36.5752 55.3462C36.669 55.453 36.7629 55.518 36.8825 55.5743C37.2072 55.7271 37.5923 55.6786 37.8752 55.4566C39.2728 54.3389 40.7131 53.2205 42.1962 52.1012C42.6077 51.7936 42.6863 51.2249 42.3794 50.8298C42.0725 50.4348 41.491 50.3699 41.0795 50.6776C39.5707 51.8056 38.1047 52.9329 36.6985 54.0674C36.3041 54.3831 36.2426 54.9599 36.5581 55.3381L36.5752 55.3462ZM3.96811 103.08C4.08923 102.594 3.7912 102.099 3.28672 102.007C2.79084 101.899 2.2938 102.208 2.17267 102.695C1.73143 104.471 1.37562 106.288 1.10548 108.062C1.05306 108.455 1.26589 108.826 1.60764 108.987C1.69307 109.027 1.77851 109.067 1.88115 109.074C2.37715 109.14 2.85722 108.781 2.93556 108.296C3.20559 106.564 3.55267 104.806 3.96811 103.08ZM33.7713 57.6819C33.4301 57.3124 32.8484 57.2894 32.4711 57.6131C31.0561 58.8479 29.6839 60.082 28.3545 61.3153C27.9857 61.6639 27.9669 62.2399 28.3167 62.5925C28.3849 62.6664 28.4789 62.7315 28.5814 62.7797C28.9231 62.9405 29.351 62.8912 29.6427 62.6108C30.9464 61.3862 32.2929 60.161 33.6993 58.943C34.0852 58.6024 34.121 58.0344 33.7969 57.6731L33.7713 57.6819ZM2.36482 113.563C2.39191 113.053 2.00808 112.643 1.48628 112.627C0.964485 112.611 0.535677 112.994 0.508594 113.504C0.409441 115.316 0.387236 117.143 0.450587 118.97C0.466745 119.311 0.662724 119.592 0.970295 119.736C1.10699 119.801 1.2609 119.831 1.41492 119.82C1.93683 119.794 2.32298 119.37 2.30728 118.862C2.2523 117.102 2.26579 115.333 2.35622 113.579L2.36482 113.563ZM51.4735 44.5615C51.2009 44.1408 50.6195 44.0343 50.1738 44.3259C48.6054 45.3632 47.0798 46.3997 45.5798 47.4275C45.1512 47.7271 45.0556 48.2878 45.3538 48.6997C45.439 48.8233 45.5585 48.9213 45.6952 48.9856C45.9857 49.1223 46.3536 49.1075 46.645 48.9104C48.1279 47.8746 49.6449 46.8549 51.1877 45.8264C51.6247 45.5517 51.7461 44.9822 51.4478 44.5703L51.4735 44.5615ZM168.46 204.403C166.621 204.519 164.798 204.601 162.976 204.684C162.454 204.71 162.051 205.126 162.066 205.634C162.082 205.976 162.287 206.281 162.577 206.418C162.714 206.482 162.868 206.513 163.022 206.502C164.844 206.419 166.693 206.328 168.549 206.22C169.054 206.186 169.466 205.754 169.442 205.262C169.417 204.77 168.982 204.377 168.477 204.411L168.46 204.403ZM146.499 204.909C144.651 204.874 142.829 204.832 141.015 204.772C140.493 204.756 140.065 205.139 140.038 205.649C140.019 206.016 140.232 206.346 140.557 206.499C140.66 206.547 140.788 206.586 140.916 206.584C142.747 206.652 144.594 206.686 146.442 206.72C146.947 206.728 147.384 206.328 147.403 205.835C147.421 205.343 147.02 204.924 146.516 204.917L146.499 204.909ZM157.483 204.856C155.635 204.905 153.804 204.921 151.999 204.928C151.486 204.937 151.066 205.345 151.047 205.838C151.038 206.188 151.259 206.501 151.567 206.646C151.686 206.702 151.823 206.725 151.969 206.731C153.799 206.715 155.63 206.699 157.495 206.658C158.008 206.649 158.412 206.233 158.413 205.732C158.415 205.232 158.005 204.83 157.483 204.856ZM113.749 202.426C111.928 202.175 110.123 201.889 108.345 201.596C107.84 201.504 107.352 201.838 107.265 202.34C107.187 202.742 107.408 203.139 107.767 203.308C107.835 203.34 107.921 203.38 108.006 203.379C109.802 203.681 111.615 203.949 113.453 204.208C113.966 204.283 114.438 203.941 114.525 203.438C114.612 202.936 114.271 202.484 113.758 202.409L113.749 202.426ZM135.541 204.535C133.702 204.442 131.88 204.316 130.067 204.173C129.554 204.14 129.091 204.507 129.046 205.009C129.003 205.385 129.224 205.74 129.549 205.893C129.651 205.941 129.762 205.972 129.882 205.987C131.695 206.13 133.543 206.247 135.382 206.34C135.895 206.373 136.35 205.981 136.368 205.488C136.412 204.987 136.02 204.552 135.515 204.544L135.541 204.535ZM124.619 203.719C122.78 203.543 120.975 203.341 119.171 203.139C118.666 203.09 118.195 203.432 118.108 203.934C118.055 204.327 118.268 204.699 118.61 204.86C118.695 204.9 118.781 204.94 118.909 204.938C120.731 205.148 122.552 205.357 124.391 205.533C124.896 205.583 125.359 205.216 125.42 204.722C125.481 204.229 125.115 203.785 124.61 203.736L124.619 203.719ZM179.43 203.55C177.581 203.724 175.767 203.873 173.953 204.022C173.449 204.056 173.054 204.497 173.078 204.989C173.094 205.331 173.299 205.594 173.589 205.731C173.726 205.795 173.897 205.834 174.06 205.806C175.891 205.665 177.731 205.507 179.579 205.333C180.092 205.282 180.47 204.833 180.446 204.341C180.404 203.841 179.952 203.482 179.447 203.516L179.43 203.55ZM201.261 200.727C199.438 201.018 197.624 201.292 195.809 201.566C195.304 201.642 194.944 202.099 195.002 202.607C195.036 202.915 195.249 203.161 195.505 203.282C195.659 203.354 195.856 203.384 196.035 203.365C197.85 203.09 199.681 202.824 201.513 202.517C202.018 202.441 202.37 201.959 202.303 201.468C202.236 200.977 201.749 200.644 201.244 200.719L201.261 200.727ZM213.181 199.507C213.089 199.025 212.602 198.691 212.105 198.792C210.291 199.149 208.493 199.473 206.696 199.797C206.182 199.889 205.839 200.354 205.923 200.853C205.982 201.153 206.161 201.383 206.417 201.504C206.588 201.584 206.785 201.614 206.99 201.585C208.788 201.262 210.611 200.929 212.425 200.571C212.922 200.471 213.274 199.989 213.181 199.507ZM190.358 202.322C188.518 202.563 186.712 202.779 184.889 202.986C184.376 203.037 183.998 203.486 184.057 203.994C184.082 204.319 184.286 204.582 184.559 204.711C184.713 204.783 184.884 204.822 185.064 204.802C186.887 204.594 188.718 204.37 190.558 204.129C191.08 204.061 191.441 203.604 191.374 203.113C191.306 202.622 190.854 202.263 190.349 202.339L190.358 202.322ZM51.6856 183.392C50.0796 182.552 48.5079 181.687 46.9534 180.789C46.5094 180.496 45.9443 180.69 45.6864 181.112C45.42 181.55 45.5639 182.098 45.991 182.341C47.5454 183.24 49.1513 184.121 50.7744 184.968L50.8085 184.984C51.2528 185.193 51.7837 185.025 52.0415 184.603C52.2908 184.157 52.1298 183.601 51.6942 183.375L51.6856 183.392ZM152.9 4.5875C153.405 4.4701 153.705 3.96418 153.596 3.47386C153.477 3.00038 152.973 2.70059 152.468 2.81799C150.662 3.28381 148.881 3.74084 147.118 4.2059C146.621 4.34818 146.312 4.82922 146.439 5.32758C146.515 5.59322 146.685 5.79878 146.925 5.91136C147.113 5.99981 147.352 6.02895 147.575 5.96661C149.338 5.50155 151.119 5.04452 152.925 4.57871L152.9 4.5875ZM141.758 5.65236C139.96 6.14305 138.18 6.6418 136.433 7.15662C135.936 7.2989 135.636 7.80483 135.771 8.28634C135.847 8.55198 136.026 8.74071 136.249 8.84524C136.454 8.94174 136.676 8.96283 136.916 8.90853C138.662 8.39371 140.435 7.91181 142.232 7.42111C142.729 7.27883 143.021 6.78974 142.894 6.29138C142.759 5.80986 142.246 5.52692 141.75 5.6692L141.758 5.65236ZM102.966 200.631C101.171 200.287 99.3839 199.927 97.6227 199.558C97.1268 199.45 96.6297 199.759 96.5086 200.245C96.4048 200.655 96.609 201.086 96.9849 201.263C97.0532 201.295 97.1045 201.319 97.1814 201.334C98.9598 201.712 100.764 202.08 102.576 202.432C103.081 202.523 103.578 202.214 103.682 201.72C103.786 201.226 103.462 200.739 102.975 200.656L102.966 200.631ZM61.425 188.058C60.1434 187.497 58.8874 186.927 57.6571 186.348L56.5123 185.809C56.1195 185.541 55.4944 185.769 55.2621 186.223C55.0299 186.678 55.1995 187.217 55.6608 187.435L56.8228 187.981C58.0701 188.568 59.3346 189.163 60.6419 189.716C61.1033 189.933 61.66 189.715 61.8751 189.252C62.1074 188.797 61.9035 188.284 61.425 188.058ZM42.3587 178C40.8216 177.026 39.3358 176.034 37.8757 175.034C37.4658 174.758 36.8753 174.835 36.5747 175.257C36.2571 175.672 36.3496 176.237 36.7765 176.522C38.2451 177.547 39.7651 178.555 41.3193 179.537C41.3535 179.553 41.3877 179.569 41.4218 179.585C41.8319 179.778 42.3456 179.644 42.6119 179.247C42.8954 178.816 42.7772 178.26 42.3587 178ZM131.125 8.71064C129.344 9.2511 127.563 9.79156 125.825 10.3313C125.337 10.4984 125.061 10.9955 125.197 11.4771C125.282 11.7259 125.444 11.9066 125.666 12.0111C125.871 12.1076 126.111 12.1367 126.342 12.0575C128.08 11.5178 129.844 10.9693 131.616 10.4457C132.113 10.3034 132.396 9.78946 132.261 9.30794C132.125 8.82643 131.604 8.56032 131.108 8.7026L131.125 8.71064ZM81.8076 195.499C80.0638 194.971 78.3287 194.426 76.6193 193.872C76.1322 193.705 75.6011 193.957 75.4372 194.443C75.2734 194.889 75.4774 195.361 75.8875 195.554C75.9216 195.57 75.9558 195.586 75.99 195.602C77.7079 196.18 79.443 196.725 81.2295 197.253C81.7253 197.403 82.2479 197.126 82.4032 196.656C82.5671 196.17 82.3118 195.673 81.8161 195.524L81.8076 195.499ZM92.3135 198.333C90.5439 197.897 88.7743 197.461 87.0304 196.975C86.5432 196.85 86.0206 197.126 85.8823 197.604C85.7443 198.041 85.9654 198.479 86.3585 198.664C86.4097 198.688 86.461 198.712 86.5122 198.736C88.2647 199.206 90.0428 199.667 91.8381 200.094C92.3254 200.219 92.8395 199.918 92.9863 199.423C93.1245 198.945 92.8265 198.449 92.3392 198.324L92.3135 198.333ZM164.339 0.864175C164.229 0.37386 163.725 0.0740678 163.237 0.19951C161.431 0.62361 159.625 1.04771 157.853 1.48789C157.348 1.60529 157.03 2.10318 157.157 2.60154C157.225 2.88401 157.412 3.09762 157.651 3.2102C157.839 3.29865 158.062 3.31974 158.276 3.27424C160.048 2.83405 161.828 2.41875 163.635 1.99465C164.14 1.87725 164.458 1.37937 164.339 0.90589L164.339 0.864175ZM71.4743 192.077C69.7565 191.457 68.073 190.811 66.4067 190.131C65.9282 189.948 65.3886 190.174 65.182 190.62C64.9926 191.074 65.1794 191.58 65.6065 191.781L65.6578 191.805C67.3327 192.468 69.0504 193.13 70.7853 193.758C71.2638 193.942 71.7949 193.69 71.993 193.22C72.1911 192.749 71.9358 192.253 71.4658 192.052L71.4743 192.077Z" fill="#872BFF"/>
</svg>
