<svg width="32" height="36" viewBox="0 0 32 36" fill="none" xmlns="http://www.w3.org/2000/svg">
<path d="M8.67452 7.86664C5.78217 4.08207 1.56307 -0.0186836 0.741833 0.594977C-0.0729788 1.23413 2.80288 6.35123 5.69523 10.1358C5.9605 10.4891 6.21933 10.8169 6.47818 11.1448C6.35512 11.7857 6.10281 13.1506 5.79059 14.8694C5.77464 14.8599 5.7937 14.828 5.77132 14.793L4.98832 13.784C4.88925 13.6598 4.69799 13.6538 4.54837 13.7593L3.55845 14.5104C3.40883 14.6159 3.37732 14.8136 3.47639 14.9377L4.25939 15.9467C4.25939 15.9467 4.37107 16.0134 4.4349 16.0515L5.32983 17.2357C5.06174 18.6994 4.7588 20.2938 4.47497 21.8564L3.70799 20.8569C3.60893 20.7328 3.41761 20.7268 3.268 20.8323L2.27808 21.5834C2.12846 21.6888 2.097 21.8866 2.19606 22.0107L2.97902 23.0197C2.97902 23.0197 3.09074 23.0864 3.15457 23.1245L4.02709 24.2736C3.30176 28.2788 2.70902 31.6271 2.73472 31.7291C2.8054 32.0095 4.01325 33.4671 4.01325 33.4671C4.27853 33.8204 4.53403 34.0813 4.57859 34.043C4.59765 34.0111 4.34501 33.6003 4.09569 33.2565L6.94399 25.951C7.17403 26.2183 7.40386 26.3773 7.45794 26.323C7.54705 26.2463 7.39655 25.9182 7.13128 25.5649L7.09938 25.5458L7.66715 24.0879C7.89077 24.3298 8.09509 24.4951 8.17466 24.4344C8.26377 24.3577 8.11333 24.0297 7.84805 23.6764L8.35549 22.3556L8.94689 21.583C9.19932 21.8854 9.45795 22.1048 9.54706 22.0281C9.63616 21.9515 9.48567 21.6234 9.22039 21.2701L9.20447 21.2606L10.3808 19.6899C10.6333 19.9922 10.8855 20.1862 10.9651 20.1255C11.0542 20.0488 10.9037 19.7207 10.6384 19.3674L10.6225 19.3579L11.6971 17.9213C13.6753 20.4453 14.4773 21.4224 15.9123 23.2971C17.3633 25.1814 18.8935 26.8966 20.2638 28.2997C19.876 30.4714 19.0589 34.8115 19.0589 34.8115L19.7911 35.9417L23.5308 31.3121C23.8693 31.5792 24.1629 31.7763 24.3863 31.9097C25.0476 32.6512 25.482 33.0839 25.5521 33.0391C25.6316 32.9784 25.3373 32.4562 24.813 31.6666C24.7392 31.4277 24.5983 31.0837 24.3807 30.6506L29.8652 28.2108L28.9643 27.218C28.9643 27.218 24.2808 26.8669 22.1606 26.683C21.1979 25.0687 20.0276 23.2221 18.771 21.3024C16.9717 18.9501 16.2078 17.9092 14.5873 15.7288L16.2373 15.0689C16.5026 15.4222 16.7931 15.6607 16.8822 15.584C16.9617 15.5233 16.8337 15.2303 16.6003 14.896L18.4223 14.1656L18.4382 14.1752C18.7035 14.5285 18.9941 14.767 19.0832 14.6903C19.1628 14.6296 19.0442 14.3206 18.8013 14.0023L19.7123 13.6371L21.1242 13.4845C21.3894 13.8379 21.68 14.0764 21.7691 13.9997C21.8487 13.939 21.7494 13.7064 21.5703 13.4263L23.1161 13.2671L23.148 13.2861C23.4037 13.6554 23.7038 13.8779 23.7834 13.8172C23.863 13.7565 23.7573 13.4985 23.5623 13.2088L31.3611 12.3679C31.6199 12.6957 31.9585 13.0712 31.9935 13.0488C32.0381 13.0104 31.8526 12.7048 31.5874 12.3515C31.5874 12.3515 30.5196 10.8043 30.2643 10.6518C30.1685 10.5946 26.773 10.2985 22.7303 9.96211L21.8578 8.81304C21.8578 8.81304 21.8606 8.66321 21.8223 8.61865L21.0393 7.60966C20.9402 7.48553 20.749 7.47954 20.5994 7.58502L19.6094 8.33609C19.4598 8.44158 19.4284 8.6393 19.5274 8.76343L20.2944 9.76285C18.7035 9.63528 17.0966 9.49818 15.6045 9.38635L14.7096 8.20227C14.7096 8.20227 14.7125 8.05243 14.6741 8.00788L13.8911 6.99888C13.7921 6.87475 13.6008 6.86876 13.4512 6.97425L12.4613 7.72532C12.3117 7.8308 12.2802 8.02852 12.3793 8.15265L13.1622 9.16162C13.1622 9.16162 13.2101 9.19022 13.2261 9.19976C11.5108 9.06286 10.143 8.96035 9.47988 8.91065C9.22103 8.58282 8.97169 8.23901 8.70641 7.88569L8.67452 7.86664Z" fill="#F411CF"/>
</svg>
