<svg width="114" height="241" viewBox="0 0 114 241" fill="none" xmlns="http://www.w3.org/2000/svg">
<path d="M90.5072 34.4626C89.7772 32.8574 89.0313 31.2427 88.2599 29.6344C88.0518 29.1853 88.226 28.6399 88.6751 28.4318C89.1242 28.2237 89.6696 28.398 89.8777 28.847C90.6651 30.4649 91.4269 32.0891 92.1474 33.7103C92.3555 34.1593 92.1558 34.7112 91.6907 34.9098C91.4137 35.0474 91.0916 35.0066 90.8522 34.8636C90.6926 34.7683 90.5776 34.6346 90.4912 34.4531L90.5072 34.4626ZM87.5125 24.035C86.7061 22.449 85.8837 20.8536 85.0358 19.2646C84.8023 18.8219 84.2568 18.6477 83.8047 18.8972C83.362 19.1308 83.2037 19.6858 83.4373 20.1284C84.2692 21.7079 85.1011 23.2874 85.8916 24.8638C85.9716 25.0198 86.0866 25.1535 86.2302 25.2393C86.4856 25.3918 86.8171 25.4166 87.1037 25.2631C87.5464 25.0295 87.7366 24.4936 87.503 24.0509L87.5125 24.035ZM102.205 64.8987C102.413 65.0226 102.668 65.0668 102.932 64.9865C103.41 64.839 103.69 64.3347 103.542 63.8569C103.019 62.1588 102.48 60.4512 101.926 58.7341C101.778 58.2563 101.255 58.0086 100.777 58.1562C100.299 58.3038 100.051 58.8271 100.199 59.3049C100.763 61.0061 101.286 62.7041 101.793 64.3927C101.851 64.6221 102.004 64.8003 102.196 64.9146L102.205 64.8987ZM12.2576 201.961C11.4736 200.41 10.6927 198.817 9.91482 197.184C9.70674 196.735 9.17078 196.544 8.70576 196.743C8.25669 196.951 8.06649 197.487 8.26504 197.952C9.0493 199.611 9.83669 201.229 10.6207 202.78C10.7007 202.936 10.8253 203.054 10.9689 203.14C11.2242 203.292 11.5558 203.317 11.8424 203.163C12.285 202.93 12.4593 202.384 12.2417 201.951L12.2576 201.961ZM82.4446 14.5773C81.5776 13.0202 80.6852 11.4695 79.7673 9.9252C79.5082 9.48899 78.9597 9.35621 78.533 9.59931C78.0968 9.85838 77.9639 10.4069 78.207 10.8336C79.109 12.3683 80.0014 13.919 80.8619 15.4506C80.9515 15.5907 81.0601 15.6989 81.1878 15.7752C81.459 15.9372 81.8001 15.9461 82.0867 15.7925C82.5134 15.5494 82.6717 14.9944 82.4286 14.5677L82.4446 14.5773ZM98.8575 54.7363C99.0809 54.8698 99.3615 54.9075 99.6195 54.8018C100.091 54.6287 100.329 54.1214 100.172 53.6595C99.5725 51.9807 98.973 50.3019 98.3322 48.62C98.1496 48.1645 97.6263 47.9169 97.1708 48.0995C96.6994 48.2726 96.4678 48.8054 96.6504 49.2609C97.2752 50.9333 97.8842 52.5961 98.4836 54.2748C98.5509 54.4883 98.6979 54.641 98.8734 54.7458L98.8575 54.7363ZM5.68776 187.406C5.50516 186.95 4.97236 186.718 4.51687 186.901C4.06138 187.084 3.82972 187.616 4.01231 188.072C4.68508 189.773 5.38645 191.426 6.07496 193.028C6.16139 193.21 6.29236 193.353 6.43598 193.439C6.67534 193.581 6.98146 193.613 7.24899 193.491C7.71401 193.293 7.92016 192.766 7.72161 192.301C7.03309 190.699 6.34771 189.056 5.68137 187.38L5.68776 187.406ZM94.6897 44.2791C94.7666 44.4766 94.8975 44.6198 95.0571 44.7151C95.2964 44.8581 95.5866 44.8798 95.8606 44.7837C96.316 44.6011 96.5477 44.0683 96.3651 43.6128C95.7052 41.9628 95.0038 40.3097 94.3025 38.6567C94.1199 38.2012 93.5775 37.9855 93.1125 38.184C92.6475 38.3826 92.4413 38.9089 92.6399 39.374C93.3507 41.0111 94.0362 42.6546 94.6801 44.2951L94.6897 44.2791ZM1.9608 177.407C1.78774 176.935 1.28995 176.681 0.802539 176.845C0.331091 177.018 0.0770407 177.515 0.240573 178.003C0.836871 179.723 1.45226 181.411 2.05477 183.049C2.13166 183.246 2.26905 183.415 2.42862 183.51C2.65203 183.644 2.93263 183.681 3.20659 183.585C3.67804 183.412 3.90967 182.879 3.72708 182.424C3.12456 180.786 2.51563 179.124 1.91933 177.403L1.9608 177.407ZM104.032 185.223C103.503 186.943 102.952 188.627 102.378 190.276C102.239 190.691 102.405 191.137 102.772 191.356C102.82 191.385 102.884 191.423 102.932 191.451C103.394 191.619 103.914 191.366 104.082 190.904C104.665 189.239 105.235 187.523 105.774 185.787C105.926 185.315 105.664 184.812 105.175 184.651C104.703 184.498 104.191 184.777 104.039 185.249L104.032 185.223ZM100.52 195.272C99.8697 196.94 99.1716 198.58 98.4766 200.179C98.2862 200.606 98.4497 201.093 98.8327 201.322C98.8646 201.341 98.8965 201.36 98.9284 201.379C99.3879 201.589 99.9199 201.387 100.113 200.918C100.843 199.297 101.526 197.648 102.195 195.947C102.379 195.494 102.145 194.943 101.682 194.775C101.213 194.582 100.704 194.819 100.51 195.288L100.52 195.272ZM76.988 5.29885C76.051 3.7865 75.0981 2.26463 74.1197 0.74918C73.8511 0.328923 73.293 0.212077 72.8728 0.480674C72.4525 0.74927 72.3357 1.30736 72.6043 1.72762C73.5667 3.23354 74.5292 4.73945 75.4502 6.24227C75.5238 6.37282 75.6419 6.46504 75.7536 6.53176C76.0249 6.6938 76.3915 6.69627 76.6876 6.52673C77.1079 6.25814 77.2407 5.70959 76.9816 5.27338L76.988 5.29885ZM106.836 174.947C106.422 176.691 105.976 178.417 105.524 180.117C105.419 180.509 105.605 180.923 105.94 181.123C106.004 181.162 106.084 181.209 106.167 181.215C106.648 181.352 107.145 181.064 107.281 180.582C107.743 178.866 108.189 177.141 108.597 175.371C108.717 174.88 108.42 174.399 107.928 174.279C107.437 174.158 106.957 174.456 106.836 174.947ZM96.2163 204.977C95.413 206.576 94.5777 208.156 93.7391 209.668C93.4912 210.083 93.6422 210.628 94.073 210.885L94.0889 210.895C94.5198 211.152 95.0741 210.985 95.3155 210.545C96.1732 209 97.018 207.405 97.8405 205.774C98.0659 205.324 97.8736 204.776 97.4396 204.561C96.9897 204.335 96.4513 204.511 96.2259 204.961L96.2163 204.977ZM107.967 169.755C107.889 170.141 108.068 170.53 108.387 170.72C108.467 170.768 108.562 170.825 108.671 170.825C109.156 170.919 109.646 170.606 109.741 170.121C110.104 168.39 110.429 166.613 110.737 164.828C110.816 164.333 110.493 163.859 109.999 163.78C109.505 163.702 109.03 164.025 108.952 164.519C108.652 166.289 108.305 168.03 107.967 169.755ZM111.777 127.385C111.777 127.711 111.956 127.991 112.212 128.143C112.355 128.229 112.518 128.283 112.693 128.279C113.194 128.275 113.591 127.863 113.587 127.363C113.561 125.594 113.513 123.789 113.44 121.992C113.419 121.482 112.998 121.1 112.504 121.13C111.994 121.15 111.612 121.571 111.642 122.065C111.715 123.863 111.767 125.626 111.792 127.395L111.777 127.385ZM111.021 148.694C110.987 149.041 111.179 149.373 111.466 149.544C111.578 149.611 111.709 149.646 111.849 149.665C112.346 149.702 112.782 149.334 112.836 148.847C112.985 147.074 113.119 145.292 113.246 143.484C113.283 142.987 112.89 142.557 112.393 142.52C111.895 142.482 111.466 142.875 111.429 143.373C111.311 145.165 111.187 146.931 111.031 148.678L111.021 148.694ZM38.8048 234.252C37.3527 233.384 35.9194 232.377 34.5019 231.27C34.1156 230.974 33.5356 231.039 33.2399 231.425C32.9347 231.828 33.0091 232.392 33.3954 232.687C34.8767 233.832 36.3738 234.878 37.8898 235.784C38.3206 236.041 38.8814 235.9 39.1293 235.485C39.3866 235.054 39.2612 234.503 38.8304 234.245L38.8048 234.252ZM17.4464 211.252C16.5477 209.785 15.6458 208.25 14.7724 206.667C14.5293 206.241 13.9743 206.082 13.5477 206.325C13.121 206.569 12.9627 207.123 13.2058 207.55C14.1015 209.168 15.0194 210.712 15.9245 212.205C15.9981 212.336 16.1162 212.428 16.2279 212.495C16.4992 212.657 16.8658 212.659 17.1619 212.49C17.5822 212.221 17.715 211.673 17.4559 211.236L17.4464 211.252ZM58.661 238.924C56.9369 239.128 55.2156 239.183 53.4812 239.078C52.9839 239.041 52.5543 239.433 52.517 239.931C52.4986 240.288 52.6841 240.594 52.9554 240.756C53.083 240.832 53.2138 240.867 53.3541 240.885C55.1713 240.997 57.0424 240.945 58.859 240.731C59.3467 240.676 59.706 240.22 59.6508 239.732C59.5797 239.235 59.1391 238.885 58.6515 238.94L58.661 238.924ZM110.56 160.305C111.054 160.383 111.522 160.035 111.585 159.531C111.833 157.774 112.075 155.992 112.275 154.206C112.329 153.718 111.971 153.267 111.483 153.213C110.979 153.151 110.543 153.518 110.49 154.006C110.289 155.791 110.067 157.542 109.802 159.289C109.749 159.669 109.931 160.016 110.234 160.197C110.33 160.254 110.451 160.305 110.576 160.314L110.56 160.305ZM113.481 138.125C113.547 136.346 113.582 134.548 113.601 132.741C113.613 132.25 113.21 131.836 112.71 131.84C112.209 131.844 111.805 132.231 111.809 132.731C111.8 134.523 111.759 136.295 111.676 138.065C111.667 138.406 111.837 138.702 112.124 138.873C112.252 138.95 112.399 138.994 112.548 138.997C113.055 139.018 113.469 138.616 113.481 138.125ZM78.6251 230.367C78.296 229.976 77.7412 229.926 77.3498 230.255C75.9717 231.402 74.568 232.447 73.1386 233.391C72.7183 233.659 72.6014 234.217 72.886 234.647C72.9691 234.762 73.0617 234.86 73.1734 234.927C73.4606 235.099 73.8272 235.101 74.1329 234.915C75.6229 233.943 77.0807 232.844 78.5033 231.659C78.8853 231.345 78.9447 230.775 78.6156 230.383L78.6251 230.367ZM92.2748 213.968C91.8215 213.676 91.3022 213.82 91.0289 214.242C90.0564 215.761 89.0711 217.229 88.0506 218.612C87.7613 219.023 87.8453 219.571 88.2475 219.877C88.2635 219.886 88.2954 219.905 88.3113 219.915C88.7102 220.153 89.2265 220.05 89.4967 219.67C90.5363 218.256 91.5502 216.74 92.5322 215.205C92.7896 214.774 92.6801 214.232 92.2588 213.959L92.2748 213.968ZM48.3888 238.288C46.7432 237.889 45.0844 237.331 43.4605 236.643C42.9915 236.449 42.4755 236.661 42.266 237.12C42.0851 237.532 42.2487 238.019 42.6317 238.248C42.6636 238.267 42.6955 238.286 42.7433 238.315C44.4566 239.035 46.2206 239.634 47.9556 240.064C48.4467 240.184 48.9275 239.887 49.0477 239.396C49.1679 238.905 48.8704 238.424 48.3793 238.304L48.3888 238.288ZM86.0789 222.673C85.7022 222.362 85.1157 222.401 84.804 222.778C83.6591 224.151 82.444 225.46 81.2446 226.671C80.885 227.019 80.8925 227.586 81.2407 227.946C81.3045 227.984 81.3588 228.038 81.4227 228.076C81.7737 228.286 82.2359 228.237 82.5253 227.934C83.7693 226.685 84.9875 225.334 86.177 223.923C86.4982 223.53 86.4493 222.96 86.0725 222.648L86.0789 222.673ZM69.8227 236.368C69.6146 235.919 69.0628 235.719 68.6201 235.953C67.0373 236.718 65.3969 237.362 63.7848 237.849C63.3069 237.997 63.0274 238.501 63.175 238.979C63.2423 239.192 63.3862 239.387 63.5777 239.501C63.7851 239.625 64.0402 239.669 64.3046 239.589C66.0187 239.075 67.7451 238.396 69.4139 237.596C69.863 237.388 70.0627 236.836 69.8292 236.393L69.8227 236.368ZM108.875 84.688C108.514 82.9354 108.128 81.1893 107.726 79.4336C107.604 78.9493 107.135 78.6474 106.635 78.76C106.151 78.882 105.849 79.3512 105.961 79.8515C106.373 81.5912 106.743 83.3278 107.097 85.0549C107.161 85.3098 107.311 85.5294 107.519 85.6533C107.71 85.7677 107.94 85.8183 108.169 85.7604C108.66 85.6638 108.971 85.1787 108.875 84.688ZM23.5043 219.959C22.456 218.597 21.4045 217.168 20.3815 215.69C20.1034 215.286 19.5357 215.185 19.1154 215.454C18.7111 215.732 18.6103 216.3 18.8884 216.704C19.9338 218.216 21.0077 219.68 22.0784 221.078C22.155 221.167 22.2412 221.24 22.337 221.297C22.6402 221.478 23.0578 221.468 23.3506 221.231C23.7485 220.928 23.8079 220.357 23.5043 219.959ZM105.117 75.2118C105.308 75.3261 105.564 75.3703 105.793 75.3124C106.277 75.1903 106.573 74.6957 106.451 74.2114C106.014 72.4781 105.551 70.7512 105.073 69.0149C104.951 68.5306 104.447 68.251 103.953 68.3891C103.468 68.5112 103.189 69.0154 103.327 69.5092C103.815 71.2296 104.261 72.9469 104.708 74.6643C104.766 74.8937 104.925 75.0974 105.117 75.2118ZM112.794 111.257C112.748 110.753 112.317 110.387 111.813 110.433C111.31 110.479 110.944 110.91 110.99 111.413C111.14 113.192 111.29 114.97 111.392 116.72C111.402 117.029 111.591 117.293 111.83 117.436C111.99 117.532 112.162 117.57 112.363 117.56C112.857 117.53 113.248 117.093 113.203 116.589C113.094 114.814 112.953 113.019 112.787 111.231L112.794 111.257ZM110.895 106.788C111.054 106.883 111.258 106.94 111.453 106.905C111.94 106.85 112.316 106.403 112.244 105.905C112.043 104.14 111.826 102.365 111.577 100.57C111.506 100.073 111.056 99.7395 110.568 99.7946C110.071 99.8657 109.737 100.316 109.793 100.803C110.035 102.572 110.252 104.347 110.447 106.087C110.483 106.39 110.649 106.619 110.888 106.762L110.895 106.788ZM30.5583 227.832C29.3287 226.664 28.0989 225.388 26.8913 224.039C26.5527 223.664 25.9884 223.63 25.6129 223.968C25.2374 224.307 25.2034 224.871 25.5421 225.247C26.7721 226.631 28.0497 227.935 29.3177 229.148C29.3815 229.186 29.4198 229.23 29.4837 229.268C29.8347 229.478 30.2968 229.429 30.5959 229.11C30.9394 228.752 30.916 228.175 30.5583 227.832ZM109.905 89.9585C109.809 89.4678 109.333 89.1404 108.842 89.237C108.352 89.3335 108.034 89.7932 108.121 90.2999C108.44 92.0494 108.749 93.8148 109.027 95.5611C109.072 95.8479 109.232 96.0516 109.455 96.1851C109.631 96.2899 109.844 96.3309 110.055 96.305C110.552 96.2339 110.879 95.7583 110.808 95.2611C110.54 93.4988 110.231 91.7334 109.905 89.9585Z" fill="#F411CF"/>
</svg>
