<svg width="40" height="40" viewBox="0 0 40 40" fill="none" xmlns="http://www.w3.org/2000/svg">
<path d="M28.3333 6.66667H25V3.33333H15V6.66667H11.6667V3.33333C11.6667 1.5 13.1667 0 15 0H25C26.8333 0 28.3333 1.5 28.3333 3.33333V6.66667ZM40 13.3333V35C40 36.8333 38.5 38.3333 36.6667 38.3333H35C35 39.3333 34.3333 40 33.3333 40H30C29 40 28.3333 39.3333 28.3333 38.3333H11.6667C11.6667 39.3333 11 40 10 40H6.66667C5.66667 40 5 39.3333 5 38.3333H3.33333C1.5 38.3333 0 36.8333 0 35V13.3333C0 11.5 1.5 10 3.33333 10H36.6667C38.5 10 40 11.5 40 13.3333ZM6.66667 20C6.66667 21.8333 8.16667 23.3333 10 23.3333C11.8333 23.3333 13.3333 21.8333 13.3333 20C13.3333 18.1667 11.8333 16.6667 10 16.6667C8.16667 16.6667 6.66667 18.1667 6.66667 20ZM19 30L17.1667 25.3333L9.33333 28.3333L11.1667 33L19 30ZM29.5 25.8333L34.1667 21.1667L27.1667 14.1667L22.5 18.8333L29.5 25.8333Z" fill="url(#paint0_linear_191_4161)"/>
<defs>
<linearGradient id="paint0_linear_191_4161" x1="20" y1="0" x2="26.6048" y2="39.4464" gradientUnits="userSpaceOnUse">
<stop stop-color="#C82BFF"/>
<stop offset="1" stop-color="#660BDD"/>
</linearGradient>
</defs>
</svg>
