<svg width="34" height="174" viewBox="0 0 34 174" fill="none" xmlns="http://www.w3.org/2000/svg">
<path d="M15.0111 160.68L9.84937 154.683L11.3081 152.988L15.0111 157.289L22.8415 148.191L24.3023 149.888L15.0111 160.68Z" fill="black"/>
<path d="M17.0755 137.399C14.2169 137.399 11.4226 138.383 9.04586 140.228C6.6691 142.073 4.81663 144.695 3.72273 147.763C2.62882 150.831 2.34261 154.207 2.90027 157.463C3.45794 160.72 4.83445 163.712 6.85572 166.06C8.87699 168.408 11.4523 170.007 14.2558 170.654C17.0594 171.302 19.9654 170.97 22.6063 169.699C25.2473 168.428 27.5045 166.276 29.0926 163.515C30.6807 160.754 31.5284 157.508 31.5284 154.188C31.5284 149.735 30.0056 145.465 27.2952 142.316C24.5848 139.168 20.9086 137.399 17.0755 137.399ZM17.0755 168.579C14.6253 168.579 12.2302 167.735 10.1929 166.153C8.15572 164.572 6.56789 162.324 5.63026 159.695C4.69263 157.065 4.4473 154.172 4.9253 151.38C5.4033 148.589 6.58316 146.025 8.31568 144.012C10.0482 142 12.2556 140.629 14.6586 140.074C17.0617 139.518 19.5526 139.803 21.8162 140.893C24.0799 141.982 26.0146 143.826 27.3759 146.193C28.7371 148.559 29.4637 151.342 29.4637 154.188C29.4637 158.005 28.1585 161.665 25.8352 164.364C23.512 167.062 20.361 168.579 17.0755 168.579Z" fill="black"/>
<path d="M15.0111 114.68L9.84937 108.683L11.3081 106.988L15.0111 111.289L22.8415 102.191L24.3023 103.888L15.0111 114.68Z" fill="black"/>
<path d="M17.0755 91.3988C14.2169 91.3988 11.4226 92.3835 9.04586 94.2283C6.6691 96.0731 4.81663 98.6952 3.72273 101.763C2.62882 104.831 2.34261 108.207 2.90027 111.463C3.45794 114.72 4.83445 117.712 6.85572 120.06C8.87699 122.408 11.4523 124.007 14.2558 124.654C17.0594 125.302 19.9654 124.97 22.6063 123.699C25.2473 122.428 27.5045 120.276 29.0926 117.515C30.6807 114.754 31.5284 111.508 31.5284 108.188C31.5284 103.735 30.0056 99.4648 27.2952 96.3162C24.5848 93.1676 20.9086 91.3988 17.0755 91.3988ZM17.0755 122.579C14.6253 122.579 12.2302 121.735 10.1929 120.153C8.15572 118.572 6.56789 116.324 5.63026 113.695C4.69263 111.065 4.4473 108.172 4.9253 105.38C5.4033 102.589 6.58316 100.025 8.31568 98.0122C10.0482 95.9996 12.2556 94.629 14.6586 94.0738C17.0617 93.5185 19.5526 93.8035 21.8162 94.8927C24.0799 95.9819 26.0146 97.8263 27.3759 100.193C28.7371 102.559 29.4637 105.342 29.4637 108.188C29.4637 112.005 28.1585 115.665 25.8352 118.364C23.512 121.062 20.361 122.579 17.0755 122.579Z" fill="black"/>
<path d="M15.0111 69.6801L9.84937 63.6828L11.3081 61.9883L15.0111 66.2887L22.8415 57.1914L24.3023 58.8883L15.0111 69.6801Z" fill="black"/>
<path d="M17.0755 46.3988C14.2169 46.3988 11.4226 47.3835 9.04586 49.2283C6.6691 51.0731 4.81663 53.6952 3.72273 56.763C2.62882 59.8308 2.34261 63.2065 2.90027 66.4633C3.45794 69.72 4.83445 72.7115 6.85572 75.0595C8.87699 77.4075 11.4523 79.0065 14.2558 79.6544C17.0594 80.3022 19.9654 79.9697 22.6063 78.699C25.2473 77.4282 27.5045 75.2763 29.0926 72.5154C30.6807 69.7544 31.5284 66.5084 31.5284 63.1879C31.5284 58.7351 30.0056 54.4648 27.2952 51.3162C24.5848 48.1676 20.9086 46.3988 17.0755 46.3988ZM17.0755 77.5785C14.6253 77.5785 12.2302 76.7345 10.1929 75.1532C8.15572 73.572 6.56789 71.3245 5.63026 68.6949C4.69263 66.0654 4.4473 63.1719 4.9253 60.3804C5.4033 57.5889 6.58316 55.0247 8.31568 53.0122C10.0482 50.9996 12.2556 49.629 14.6586 49.0738C17.0617 48.5185 19.5526 48.8035 21.8162 49.8927C24.0799 50.9819 26.0146 52.8263 27.3759 55.1929C28.7371 57.5594 29.4637 60.3417 29.4637 63.1879C29.4637 67.0045 28.1585 70.6648 25.8352 73.3636C23.512 76.0624 20.361 77.5785 17.0755 77.5785Z" fill="black"/>
<path d="M15.0111 25.6801L9.84937 19.6828L11.3081 17.9883L15.0111 22.2887L22.8415 13.1914L24.3023 14.8883L15.0111 25.6801Z" fill="black"/>
<path d="M17.0755 2.3988C14.2169 2.3988 11.4226 3.38347 9.04586 5.22827C6.6691 7.07308 4.81663 9.69517 3.72273 12.763C2.62882 15.8308 2.34261 19.2065 2.90027 22.4633C3.45794 25.72 4.83445 28.7115 6.85572 31.0595C8.87699 33.4075 11.4523 35.0065 14.2558 35.6544C17.0594 36.3022 19.9654 35.9697 22.6063 34.699C25.2473 33.4282 27.5045 31.2763 29.0926 28.5154C30.6807 25.7544 31.5284 22.5084 31.5284 19.1879C31.5284 14.7351 30.0056 10.4648 27.2952 7.31621C24.5848 4.16765 20.9086 2.3988 17.0755 2.3988ZM17.0755 33.5785C14.6253 33.5785 12.2302 32.7345 10.1929 31.1532C8.15572 29.572 6.56789 27.3245 5.63026 24.6949C4.69263 22.0654 4.4473 19.1719 4.9253 16.3804C5.4033 13.5889 6.58316 11.0247 8.31568 9.01216C10.0482 6.9996 12.2556 5.62902 14.6586 5.07375C17.0617 4.51849 19.5526 4.80347 21.8162 5.89266C24.0799 6.98186 26.0146 8.82634 27.3759 11.1929C28.7371 13.5594 29.4637 16.3417 29.4637 19.1879C29.4637 23.0045 28.1585 26.6648 25.8352 29.3636C23.512 32.0624 20.361 33.5785 17.0755 33.5785Z" fill="black"/>
</svg>
