<svg width="184" height="177" viewBox="0 0 184 177" fill="none" xmlns="http://www.w3.org/2000/svg">
<g clip-path="url(#clip0_1_3089)">
<path d="M4.83998 128.32C3.39998 128.32 2.22998 129.5 2.22998 130.95C2.22998 132.4 3.39998 133.58 4.83998 133.58C6.27998 133.58 7.44998 132.4 7.44998 130.95C7.44998 129.5 6.27998 128.32 4.83998 128.32Z" fill="#FF5722"/>
<path d="M49.5001 133.58C50.9416 133.58 52.1101 132.403 52.1101 130.95C52.1101 129.498 50.9416 128.32 49.5001 128.32C48.0587 128.32 46.8901 129.498 46.8901 130.95C46.8901 132.403 48.0587 133.58 49.5001 133.58Z" fill="#FF5722"/>
<path d="M27.1701 128.32C25.7301 128.32 24.5601 129.5 24.5601 130.95C24.5601 132.4 25.7301 133.58 27.1701 133.58C28.6101 133.58 29.7801 132.4 29.7801 130.95C29.7801 129.5 28.6101 128.32 27.1701 128.32Z" fill="#FF5722"/>
<path d="M26.7999 106.94C25.3599 106.94 24.1899 108.12 24.1899 109.57C24.1899 111.02 25.3599 112.2 26.7999 112.2C28.2399 112.2 29.4099 111.02 29.4099 109.57C29.4099 108.12 28.2399 106.94 26.7999 106.94Z" fill="#FF5722"/>
<path d="M4.46986 106.94C3.02986 106.94 1.85986 108.12 1.85986 109.57C1.85986 111.02 3.02986 112.2 4.46986 112.2C5.90986 112.2 7.07986 111.02 7.07986 109.57C7.07986 108.12 5.90986 106.94 4.46986 106.94Z" fill="#FF5722"/>
<path d="M71.4601 106.94C70.0201 106.94 68.8501 108.12 68.8501 109.57C68.8501 111.02 70.0201 112.2 71.4601 112.2C72.9001 112.2 74.0701 111.02 74.0701 109.57C74.0701 108.12 72.9001 106.94 71.4601 106.94Z" fill="#FF5722"/>
<path d="M49.13 106.94C47.69 106.94 46.52 108.12 46.52 109.57C46.52 111.02 47.69 112.2 49.13 112.2C50.57 112.2 51.74 111.02 51.74 109.57C51.74 108.12 50.57 106.94 49.13 106.94Z" fill="#FF5722"/>
<path d="M4.83998 171.1C3.39998 171.1 2.22998 172.28 2.22998 173.73C2.22998 175.18 3.39998 176.36 4.83998 176.36C6.27998 176.36 7.44998 175.18 7.44998 173.73C7.44998 172.28 6.27998 171.1 4.83998 171.1Z" fill="#FF5722"/>
<path d="M26.7999 149.71C25.3599 149.71 24.1899 150.89 24.1899 152.34C24.1899 153.79 25.3599 154.97 26.7999 154.97C28.2399 154.97 29.4099 153.79 29.4099 152.34C29.4099 150.89 28.2399 149.71 26.7999 149.71Z" fill="#FF5722"/>
<path d="M4.46986 149.71C3.02986 149.71 1.85986 150.89 1.85986 152.34C1.85986 153.79 3.02986 154.97 4.46986 154.97C5.90986 154.97 7.07986 153.79 7.07986 152.34C7.07986 150.89 5.90986 149.71 4.46986 149.71Z" fill="#FF5722"/>
<path d="M93.4201 85.55C91.9801 85.55 90.8101 86.73 90.8101 88.18C90.8101 89.63 91.9801 90.81 93.4201 90.81C94.8601 90.81 96.0301 89.63 96.0301 88.18C96.0301 86.73 94.8601 85.55 93.4201 85.55Z" fill="#FF5722"/>
<path d="M48.7599 85.55C47.3199 85.55 46.1499 86.73 46.1499 88.18C46.1499 89.63 47.3199 90.81 48.7599 90.81C50.1999 90.81 51.3699 89.63 51.3699 88.18C51.3699 86.73 50.1999 85.55 48.7599 85.55Z" fill="#FF5722"/>
<path d="M71.09 90.81C72.5314 90.81 73.7 89.6326 73.7 88.18C73.7 86.7275 72.5314 85.55 71.09 85.55C69.6485 85.55 68.48 86.7275 68.48 88.18C68.48 89.6326 69.6485 90.81 71.09 90.81Z" fill="#FF5722"/>
<path d="M26.4201 85.55C24.9801 85.55 23.8101 86.73 23.8101 88.18C23.8101 89.63 24.9801 90.81 26.4201 90.81C27.8601 90.81 29.0301 89.63 29.0301 88.18C29.0301 86.73 27.8701 85.55 26.4201 85.55Z" fill="#FF5722"/>
<path d="M4.08998 85.55C2.64998 85.55 1.47998 86.73 1.47998 88.18C1.47998 89.63 2.64998 90.81 4.08998 90.81C5.52998 90.81 6.69998 89.63 6.69998 88.18C6.69998 86.73 5.52998 85.55 4.08998 85.55Z" fill="#FF5722"/>
<path d="M93.0402 64.1599C91.6002 64.1599 90.4302 65.3399 90.4302 66.7899C90.4302 68.2399 91.6002 69.4199 93.0402 69.4199C94.4802 69.4199 95.6502 68.2399 95.6502 66.7899C95.6502 65.3399 94.4802 64.1599 93.0402 64.1599Z" fill="#FF5722"/>
<path d="M70.7101 64.1599C69.2701 64.1599 68.1001 65.3399 68.1001 66.7899C68.1001 68.2399 69.2701 69.4199 70.7101 69.4199C72.1501 69.4199 73.3201 68.2399 73.3201 66.7899C73.3201 65.3399 72.1501 64.1599 70.7101 64.1599Z" fill="#FF5722"/>
<path d="M48.38 64.1599C46.94 64.1599 45.77 65.3399 45.77 66.7899C45.77 68.2399 46.94 69.4199 48.38 69.4199C49.82 69.4199 50.99 68.2399 50.99 66.7899C50.99 65.3399 49.82 64.1599 48.38 64.1599Z" fill="#FF5722"/>
<path d="M115.38 64.1599C113.94 64.1599 112.77 65.3399 112.77 66.7899C112.77 68.2399 113.94 69.4199 115.38 69.4199C116.82 69.4199 117.99 68.2399 117.99 66.7899C117.99 65.3399 116.82 64.1599 115.38 64.1599Z" fill="#FF5722"/>
<path d="M3.71986 64.1599C2.27986 64.1599 1.10986 65.3399 1.10986 66.7899C1.10986 68.2399 2.27986 69.4199 3.71986 69.4199C5.15986 69.4199 6.32986 68.2399 6.32986 66.7899C6.32986 65.3399 5.15986 64.1599 3.71986 64.1599Z" fill="#FF5722"/>
<path d="M26.0499 64.1599C24.6099 64.1599 23.4399 65.3399 23.4399 66.7899C23.4399 68.2399 24.6099 69.4199 26.0499 69.4199C27.4899 69.4199 28.6599 68.2399 28.6599 66.7899C28.6599 65.3399 27.4899 64.1599 26.0499 64.1599Z" fill="#FF5722"/>
<path d="M3.35023 42.77C1.91023 42.77 0.740234 43.95 0.740234 45.4C0.740234 46.85 1.91023 48.03 3.35023 48.03C4.79023 48.03 5.96023 46.85 5.96023 45.4C5.96023 43.95 4.79023 42.77 3.35023 42.77Z" fill="#FF5722"/>
<path d="M92.6701 48.03C94.1115 48.03 95.2801 46.8525 95.2801 45.4C95.2801 43.9475 94.1115 42.77 92.6701 42.77C91.2286 42.77 90.0601 43.9475 90.0601 45.4C90.0601 46.8525 91.2286 48.03 92.6701 48.03Z" fill="#FF5722"/>
<path d="M137.33 48.03C138.772 48.03 139.94 46.8525 139.94 45.4C139.94 43.9475 138.772 42.77 137.33 42.77C135.889 42.77 134.72 43.9475 134.72 45.4C134.72 46.8525 135.889 48.03 137.33 48.03Z" fill="#FF5722"/>
<path d="M70.34 42.77C68.9 42.77 67.73 43.95 67.73 45.4C67.73 46.85 68.9 48.03 70.34 48.03C71.78 48.03 72.95 46.85 72.95 45.4C72.95 43.95 71.78 42.77 70.34 42.77Z" fill="#FF5722"/>
<path d="M48.0099 42.77C46.5699 42.77 45.3999 43.95 45.3999 45.4C45.3999 46.85 46.5699 48.03 48.0099 48.03C49.4499 48.03 50.6199 46.85 50.6199 45.4C50.6199 43.95 49.4499 42.77 48.0099 42.77Z" fill="#FF5722"/>
<path d="M25.6798 42.77C24.2398 42.77 23.0698 43.95 23.0698 45.4C23.0698 46.85 24.2398 48.03 25.6798 48.03C27.1198 48.03 28.2898 46.85 28.2898 45.4C28.2898 43.95 27.1198 42.77 25.6798 42.77Z" fill="#FF5722"/>
<path d="M115 42.77C113.56 42.77 112.39 43.95 112.39 45.4C112.39 46.85 113.56 48.03 115 48.03C116.44 48.03 117.61 46.85 117.61 45.4C117.61 43.95 116.44 42.77 115 42.77Z" fill="#FF5722"/>
<path d="M2.98012 26.6399C4.42158 26.6399 5.59012 25.4624 5.59012 24.0099C5.59012 22.5574 4.42158 21.3799 2.98012 21.3799C1.53865 21.3799 0.370117 22.5574 0.370117 24.0099C0.370117 25.4624 1.53865 26.6399 2.98012 26.6399Z" fill="#FF5722"/>
<path d="M114.63 21.3899C113.19 21.3899 112.02 22.5699 112.02 24.0199C112.02 25.4699 113.19 26.6499 114.63 26.6499C116.07 26.6499 117.24 25.4699 117.24 24.0199C117.24 22.5699 116.07 21.3899 114.63 21.3899Z" fill="#FF5722"/>
<path d="M25.3102 21.3899C23.8702 21.3899 22.7002 22.5699 22.7002 24.0199C22.7002 25.4699 23.8702 26.6499 25.3102 26.6499C26.7502 26.6499 27.9202 25.4699 27.9202 24.0199C27.9202 22.5699 26.7502 21.3899 25.3102 21.3899Z" fill="#FF5722"/>
<path d="M69.9699 21.3899C68.5299 21.3899 67.3599 22.5699 67.3599 24.0199C67.3599 25.4699 68.5299 26.6499 69.9699 26.6499C71.4099 26.6499 72.5799 25.4699 72.5799 24.0199C72.5799 22.5699 71.4099 21.3899 69.9699 21.3899Z" fill="#FF5722"/>
<path d="M47.6398 21.3899C46.1998 21.3899 45.0298 22.5699 45.0298 24.0199C45.0298 25.4699 46.1998 26.6499 47.6398 26.6499C49.0798 26.6499 50.2498 25.4699 50.2498 24.0199C50.2498 22.5699 49.0798 21.3899 47.6398 21.3899Z" fill="#FF5722"/>
<path d="M92.2999 21.3899C90.8599 21.3899 89.6899 22.5699 89.6899 24.0199C89.6899 25.4699 90.8599 26.6499 92.2999 26.6499C93.7399 26.6499 94.9099 25.4699 94.9099 24.0199C94.9099 22.5699 93.7399 21.3899 92.2999 21.3899Z" fill="#FF5722"/>
<path d="M159.29 21.3899C157.85 21.3899 156.68 22.5699 156.68 24.0199C156.68 25.4699 157.85 26.6499 159.29 26.6499C160.73 26.6499 161.9 25.4699 161.9 24.0199C161.9 22.5699 160.74 21.3899 159.29 21.3899Z" fill="#FF5722"/>
<path d="M136.96 21.3899C135.52 21.3899 134.35 22.5699 134.35 24.0199C134.35 25.4699 135.52 26.6499 136.96 26.6499C138.4 26.6499 139.57 25.4699 139.57 24.0199C139.57 22.5699 138.41 21.3899 136.96 21.3899Z" fill="#FF5722"/>
<path d="M24.9401 5.24999C26.3801 5.24999 27.5501 4.06999 27.5501 2.61999C27.5501 1.16999 26.3801 -0.0100098 24.9401 -0.0100098C23.5001 -0.0100098 22.3301 1.16999 22.3301 2.61999C22.3301 4.06999 23.5001 5.24999 24.9401 5.24999Z" fill="#FF5722"/>
<path d="M2.61 5.25C4.05 5.25 5.22 4.07 5.22 2.62C5.22 1.17 4.04 0 2.61 0C1.18 0 0 1.18 0 2.63C0 4.08 1.17 5.26 2.61 5.26V5.25Z" fill="#FF5722"/>
<path d="M158.92 5.26C160.362 5.26 161.53 4.08251 161.53 2.63C161.53 1.17749 160.362 0 158.92 0C157.479 0 156.31 1.17749 156.31 2.63C156.31 4.08251 157.479 5.26 158.92 5.26Z" fill="#FF5722"/>
<path d="M91.9298 5.24999C93.3698 5.24999 94.5398 4.06999 94.5398 2.61999C94.5398 1.16999 93.3698 -0.0100098 91.9298 -0.0100098C90.4898 -0.0100098 89.3198 1.16999 89.3198 2.61999C89.3198 4.06999 90.4898 5.24999 91.9298 5.24999Z" fill="#FF5722"/>
<path d="M114.26 5.24999C115.7 5.24999 116.87 4.06999 116.87 2.61999C116.87 1.16999 115.7 -0.0100098 114.26 -0.0100098C112.82 -0.0100098 111.65 1.16999 111.65 2.61999C111.65 4.06999 112.82 5.24999 114.26 5.24999Z" fill="#FF5722"/>
<path d="M136.59 5.24999C138.03 5.24999 139.2 4.06999 139.2 2.61999C139.2 1.16999 138.03 -0.0100098 136.59 -0.0100098C135.15 -0.0100098 133.98 1.16999 133.98 2.61999C133.98 4.06999 135.15 5.24999 136.59 5.24999Z" fill="#FF5722"/>
<path d="M47.2702 5.24999C48.7102 5.24999 49.8802 4.06999 49.8802 2.61999C49.8802 1.16999 48.7102 -0.0100098 47.2702 -0.0100098C45.8302 -0.0100098 44.6602 1.16999 44.6602 2.61999C44.6602 4.06999 45.8302 5.24999 47.2702 5.24999Z" fill="#FF5722"/>
<path d="M181.25 5.24999C182.69 5.24999 183.86 4.06999 183.86 2.61999C183.86 1.16999 182.7 -0.0100098 181.25 -0.0100098C179.8 -0.0100098 178.64 1.16999 178.64 2.61999C178.64 4.06999 179.81 5.24999 181.25 5.24999Z" fill="#FF5722"/>
<path d="M69.6002 5.24999C71.0402 5.24999 72.2102 4.06999 72.2102 2.61999C72.2102 1.16999 71.0402 -0.0100098 69.6002 -0.0100098C68.1602 -0.0100098 66.9902 1.16999 66.9902 2.61999C66.9902 4.06999 68.1602 5.24999 69.6002 5.24999Z" fill="#FF5722"/>
</g>
<defs>
<clipPath id="clip0_1_3089">
<rect width="183.86" height="176.35" fill="white"/>
</clipPath>
</defs>
</svg>
