<svg width="30" height="31" viewBox="0 0 30 31" fill="none" xmlns="http://www.w3.org/2000/svg">
<path d="M15 30.6121C23.2843 30.6121 30 23.8963 30 15.6121C30 7.32779 23.2843 0.612061 15 0.612061C6.71573 0.612061 0 7.32779 0 15.6121C0 23.8963 6.71573 30.6121 15 30.6121Z" fill="#872BFF"/>
<path d="M24.1879 11.392C23.5451 11.677 22.8537 11.8698 22.1285 11.9559C22.8689 11.5123 23.4371 10.8104 23.7053 9.97267C23.0125 10.3837 22.2448 10.6818 21.4285 10.8425C20.7744 10.1459 19.8426 9.71063 18.8107 9.71063C16.831 9.71063 15.2253 11.3163 15.2253 13.2961C15.2253 13.5771 15.2571 13.8506 15.3186 14.1132C12.3389 13.9637 9.69678 12.5364 7.92827 10.3665C7.6197 10.896 7.44269 11.5123 7.44269 12.1693C7.44269 13.4129 8.07613 14.5108 9.03766 15.1536C8.45021 15.1352 7.89698 14.9739 7.41381 14.7047C7.41354 14.7199 7.41354 14.7351 7.41354 14.7501C7.41354 16.4873 8.64995 17.9363 10.2898 18.2655C9.9893 18.3478 9.67191 18.3914 9.34543 18.3914C9.11387 18.3914 8.88953 18.3692 8.67081 18.3275C9.12697 19.7516 10.4508 20.7883 12.0201 20.8174C10.7928 21.7792 9.24703 22.3523 7.56676 22.3523C7.27798 22.3523 6.99187 22.3354 6.71191 22.302C8.2978 23.3197 10.1829 23.913 12.2076 23.913C18.8024 23.913 22.409 18.4497 22.409 13.7113C22.409 13.556 22.4055 13.4011 22.3986 13.2477C23.0997 12.7423 23.7074 12.111 24.1879 11.392Z" fill="white"/>
</svg>
