<svg width="30" height="31" viewBox="0 0 30 31" fill="none" xmlns="http://www.w3.org/2000/svg">
<path d="M15 30.6123C23.2843 30.6123 30 23.8966 30 15.6123C30 7.32803 23.2843 0.612305 15 0.612305C6.71573 0.612305 0 7.32803 0 15.6123C0 23.8966 6.71573 30.6123 15 30.6123Z" fill="#872BFF"/>
<path d="M24.1879 11.3923C23.5451 11.6773 22.8537 11.8701 22.1285 11.9562C22.8689 11.5126 23.4371 10.8107 23.7053 9.97298C23.0125 10.384 22.2448 10.6821 21.4285 10.8428C20.7744 10.1462 19.8426 9.71094 18.8107 9.71094C16.831 9.71094 15.2253 11.3166 15.2253 13.2964C15.2253 13.5774 15.2571 13.8509 15.3186 14.1135C12.3389 13.964 9.69678 12.5367 7.92827 10.3668C7.6197 10.8963 7.44269 11.5126 7.44269 12.1696C7.44269 13.4132 8.07613 14.5111 9.03766 15.1539C8.45021 15.1355 7.89698 14.9742 7.41381 14.705C7.41354 14.7202 7.41354 14.7354 7.41354 14.7504C7.41354 16.4876 8.64995 17.9366 10.2898 18.2658C9.9893 18.3481 9.67191 18.3917 9.34543 18.3917C9.11387 18.3917 8.88953 18.3695 8.67081 18.3278C9.12697 19.7519 10.4508 20.7886 12.0201 20.8178C10.7928 21.7795 9.24703 22.3526 7.56676 22.3526C7.27798 22.3526 6.99187 22.3357 6.71191 22.3023C8.2978 23.32 10.1829 23.9133 12.2076 23.9133C18.8025 23.9133 22.409 18.45 22.409 13.7116C22.409 13.5563 22.4055 13.4014 22.3986 13.248C23.0997 12.7426 23.7074 12.1113 24.1879 11.3923Z" fill="white"/>
</svg>
