<svg width="20" height="21" viewBox="0 0 20 21" fill="none" xmlns="http://www.w3.org/2000/svg">
<path fill-rule="evenodd" clip-rule="evenodd" d="M9.99996 5.61206C7.2385 5.61206 5 7.85058 5 10.6121C5 13.3735 7.2385 15.6121 9.99996 15.6121C12.7614 15.6121 15 13.3735 15 10.6121C15 7.85058 12.7614 5.61206 9.99996 5.61206ZM9.99996 13.8577C8.20748 13.8577 6.75434 12.4045 6.75434 10.6121C6.75434 8.81957 8.20748 7.36641 9.99996 7.36641C11.7925 7.36641 13.2456 8.81957 13.2456 10.6121C13.2456 12.4045 11.7925 13.8577 9.99996 13.8577Z" fill="white"/>
<path d="M15.4167 6.44539C16.107 6.44539 16.6667 5.88569 16.6667 5.19544C16.6667 4.5051 16.107 3.94539 15.4167 3.94539C14.7263 3.94539 14.1667 4.5051 14.1667 5.19544C14.1667 5.88569 14.7263 6.44539 15.4167 6.44539Z" fill="white"/>
<path fill-rule="evenodd" clip-rule="evenodd" d="M10 0.612061C7.28417 0.612061 6.94358 0.62356 5.877 0.672227C4.81267 0.720811 4.08567 0.889812 3.44958 1.13706C2.792 1.39256 2.23433 1.73448 1.67842 2.29048C1.12242 2.8464 0.7805 3.40407 0.525 4.06166C0.27775 4.69774 0.10875 5.42466 0.0601665 6.48909C0.0114998 7.55567 0 7.89626 0 10.612C0 13.3279 0.0114998 13.6684 0.0601665 14.735C0.10875 15.7995 0.27775 16.5264 0.525 17.1625C0.7805 17.82 1.12242 18.3777 1.67842 18.9337C2.23433 19.4896 2.792 19.8316 3.44958 20.0871C4.08567 20.3343 4.81267 20.5033 5.877 20.5519C6.94358 20.6006 7.28417 20.6121 10 20.6121C12.7158 20.6121 13.0564 20.6006 14.123 20.5519C15.1873 20.5033 15.9143 20.3343 16.5504 20.0871C17.208 19.8316 17.7657 19.4896 18.3216 18.9337C18.8775 18.3777 19.2195 17.82 19.475 17.1625C19.7222 16.5264 19.8912 15.7995 19.9398 14.735C19.9885 13.6684 20 13.3279 20 10.612C20 7.89626 19.9885 7.55567 19.9398 6.48909C19.8912 5.42466 19.7222 4.69774 19.475 4.06166C19.2195 3.40407 18.8775 2.8464 18.3216 2.29048C17.7657 1.73448 17.208 1.39256 16.5504 1.13706C15.9143 0.889812 15.1873 0.720811 14.123 0.672227C13.0564 0.62356 12.7158 0.612061 10 0.612061ZM10 2.4139C12.6701 2.4139 12.9864 2.42407 14.0408 2.47215C15.0158 2.51665 15.5453 2.67957 15.8977 2.81649C16.3645 2.9979 16.6976 3.21457 17.0475 3.56449C17.3975 3.91449 17.6142 4.24758 17.7956 4.71433C17.9325 5.06675 18.0954 5.59625 18.1399 6.57117C18.188 7.62567 18.1982 7.94192 18.1982 10.612C18.1982 13.2822 18.188 13.5984 18.1399 14.653C18.0954 15.628 17.9325 16.1574 17.7956 16.5098C17.6142 16.9765 17.3975 17.3097 17.0476 17.6596C16.6976 18.0095 16.3645 18.2262 15.8977 18.4076C15.5453 18.5446 15.0158 18.7075 14.0408 18.752C12.9866 18.8001 12.6703 18.8103 10 18.8103C7.32967 18.8103 7.0135 18.8001 5.95917 18.752C4.98417 18.7075 4.45467 18.5446 4.10225 18.4076C3.6355 18.2262 3.30242 18.0095 2.9525 17.6596C2.60258 17.3097 2.38583 16.9765 2.20442 16.5098C2.0675 16.1574 1.90458 15.628 1.86008 14.653C1.812 13.5984 1.80183 13.2822 1.80183 10.612C1.80183 7.94192 1.812 7.62567 1.86008 6.57117C1.90458 5.59625 2.0675 5.06675 2.20442 4.71433C2.38583 4.24758 2.6025 3.91449 2.9525 3.56457C3.30242 3.21457 3.6355 2.9979 4.10225 2.81649C4.45467 2.67957 4.98417 2.51665 5.95917 2.47215C7.01358 2.42407 7.32992 2.4139 10 2.4139Z" fill="white"/>
</svg>
