<svg width="34" height="32" viewBox="0 0 34 32" fill="none" xmlns="http://www.w3.org/2000/svg">
<path d="M30.3412 17.0824L17.0148 31L3.68838 17.0824C2.80938 16.1805 2.117 15.0964 1.65485 13.8984C1.1927 12.7004 0.970785 11.4145 1.00308 10.1216C1.03538 8.82877 1.32118 7.55697 1.8425 6.3863C2.36382 5.21564 3.10936 4.17148 4.03218 3.31957C4.95499 2.46766 6.03508 1.82647 7.20444 1.43635C8.3738 1.04624 9.6071 0.915669 10.8267 1.05285C12.0462 1.19004 13.2257 1.59201 14.2907 2.23346C15.3557 2.87491 16.2832 3.74193 17.0148 4.77994C17.7496 3.74947 18.6782 2.89002 19.7425 2.25538C20.8067 1.62074 21.9838 1.22457 23.1999 1.09167C24.4161 0.958775 25.6451 1.09201 26.8102 1.48303C27.9753 1.87405 29.0513 2.51445 29.9709 3.36413C30.8904 4.21382 31.6338 5.25451 32.1544 6.42107C32.675 7.58763 32.9616 8.85495 32.9964 10.1437C33.0312 11.4325 32.8133 12.7149 32.3564 13.9108C31.8996 15.1067 31.2135 16.1902 30.3412 17.0937" stroke="#333333" stroke-width="2" stroke-linecap="round" stroke-linejoin="round"/>
</svg>
