<svg width="43" height="36" viewBox="0 0 43 36" fill="none" xmlns="http://www.w3.org/2000/svg">
<path d="M31.9636 16.7913C36.7967 15.9079 42.5765 14.0038 42.3934 12.9887C42.2103 11.9736 36.1582 12.2172 31.3157 13.1171C30.8751 13.2065 30.4439 13.2794 30.0293 13.361C29.5009 12.9555 28.3939 12.1181 26.9809 11.056C26.9976 11.0648 27.031 11.0823 27.0477 11.091L28.3508 10.8558C28.5144 10.8348 28.617 10.6536 28.5655 10.4769L28.3495 9.25219C28.324 9.06781 28.1757 8.94723 28.0028 8.98474L26.6997 9.21994C26.6997 9.21994 26.5769 9.28374 26.5229 9.34088L25.0042 9.61255C23.8063 8.7061 22.5009 7.72182 21.2122 6.74632L22.4893 6.51882C22.6528 6.49778 22.7555 6.31656 22.704 6.1399L22.488 4.91516C22.4625 4.73079 22.3142 4.61021 22.1413 4.64772L20.8382 4.88293C20.8382 4.88293 20.7154 4.94672 20.6614 5.00386L19.1947 5.2601C15.9145 2.79066 13.1535 0.743259 13.0346 0.72363C12.7375 0.674558 10.8356 1.08713 10.8356 1.08713C10.3783 1.16776 10.0306 1.28449 10.0286 1.3262C10.0433 1.37668 10.5507 1.32234 10.982 1.24943L16.2578 7.1172C15.9027 7.20869 15.6571 7.33628 15.6699 7.42847C15.69 7.5459 16.0746 7.55536 16.5152 7.46597L16.5672 7.45055L17.599 8.61184C17.2699 8.69561 17.0243 8.82321 17.0371 8.91539C17.0572 9.03282 17.4418 9.04228 17.8824 8.9529L18.8346 9.98694L19.2633 10.8745C18.8655 10.9649 18.5511 11.0992 18.5639 11.1913C18.584 11.3088 18.9686 11.3182 19.4092 11.2289L19.4259 11.2376L20.2852 12.971C19.8873 13.0614 19.573 13.1957 19.6024 13.2966C19.6226 13.414 20.0071 13.4235 20.4477 13.3341L21.2275 14.9402C17.9892 15.5705 16.7102 15.8397 14.3103 16.2901C11.8937 16.7318 9.59012 17.3182 7.67108 17.9141C5.86867 16.5836 2.34194 13.8992 2.34194 13.8992L0.966674 14.0325L3.36193 19.4786C2.95081 19.6689 2.62711 19.8196 2.41491 19.9647C1.42765 20.2161 0.819564 20.4099 0.832324 20.5021C0.845083 20.5943 1.46199 20.5761 2.44335 20.4499C2.69776 20.4979 3.08234 20.5074 3.56908 20.5277L3.12192 26.5553L4.4643 26.2125C4.4643 26.2125 7.05025 22.1836 8.25724 20.3591C10.1974 20.223 12.4312 20.0274 14.7971 19.7516C17.7918 19.2072 19.119 19.006 21.8794 18.531L21.6758 20.305C21.2092 20.4021 20.8688 20.5441 20.8889 20.6615C20.9017 20.7537 21.2342 20.7786 21.6561 20.7221L21.4353 22.6795L21.4186 22.6707C20.952 22.7678 20.6023 22.9262 20.6318 23.0272C20.6445 23.1194 20.9937 23.153 21.3989 23.0878L21.3016 24.0626L20.7685 25.3859C20.3112 25.4665 19.9615 25.6249 19.9816 25.7424C19.9944 25.8346 20.2582 25.8661 20.6113 25.8163L20.0203 27.2801L19.9869 27.2626C19.5203 27.3597 19.1705 27.5181 19.1907 27.6356C19.2034 27.7278 19.4932 27.7516 19.8464 27.7018L16.8371 35.0779C16.4132 35.1761 15.9113 35.2974 15.9093 35.3391C15.924 35.3896 16.2845 35.365 16.7418 35.2844C16.7418 35.2844 18.6805 34.998 18.9187 34.8452C19.0155 34.7891 20.924 31.8794 23.1926 28.4105L24.6592 28.1543C24.6592 28.1543 24.7928 28.2244 24.8615 28.2178L26.1646 27.9825C26.3282 27.9615 26.4309 27.7803 26.3793 27.6036L26.1633 26.3789C26.1378 26.1945 25.9895 26.0739 25.8166 26.1114L24.5396 26.3389C25.4258 24.9659 26.312 23.5929 27.1515 22.3023L28.6702 22.0306C28.6702 22.0306 28.8038 22.1007 28.8726 22.094L30.1757 21.8588C30.3392 21.8378 30.4419 21.6566 30.3904 21.4799L30.1744 20.2552C30.1489 20.0708 30.0005 19.9502 29.8277 19.9877L28.5246 20.2229C28.5246 20.2229 28.5059 20.2559 28.4538 20.2713C29.4221 18.7917 30.1703 17.6241 30.5397 17.0486C30.9542 16.9669 31.3855 16.894 31.8428 16.8134L31.9636 16.7913Z" fill="#872BFF"/>
</svg>
