<svg width="32" height="36" viewBox="0 0 32 36" fill="none" xmlns="http://www.w3.org/2000/svg">
<path d="M8.67403 7.86664C5.78168 4.08207 1.56258 -0.0186836 0.741345 0.594977C-0.0734671 1.23413 2.80239 6.35123 5.69474 10.1358C5.96002 10.4891 6.21884 10.8169 6.47769 11.1448C6.35463 11.7857 6.10232 13.1506 5.79011 14.8694C5.77415 14.8599 5.79321 14.828 5.77083 14.793L4.98783 13.784C4.88876 13.6598 4.6975 13.6538 4.54788 13.7593L3.55796 14.5104C3.40835 14.6159 3.37683 14.8136 3.4759 14.9377L4.2589 15.9467C4.2589 15.9467 4.37058 16.0134 4.43441 16.0515L5.32934 17.2357C5.06125 18.6994 4.75832 20.2938 4.47448 21.8564L3.7075 20.8569C3.60844 20.7328 3.41713 20.7268 3.26751 20.8323L2.27759 21.5834C2.12797 21.6888 2.09651 21.8866 2.19557 22.0107L2.97853 23.0197C2.97853 23.0197 3.09026 23.0864 3.15409 23.1245L4.0266 24.2736C3.30128 28.2788 2.70853 31.6271 2.73424 31.7291C2.80492 32.0095 4.01276 33.4671 4.01276 33.4671C4.27804 33.8204 4.53354 34.0813 4.5781 34.043C4.59716 34.0111 4.34452 33.6003 4.0952 33.2565L6.9435 25.951C7.17354 26.2183 7.40337 26.3773 7.45745 26.323C7.54656 26.2463 7.39606 25.9182 7.13079 25.5649L7.09889 25.5458L7.66666 24.0879C7.89028 24.3298 8.0946 24.4951 8.17418 24.4344C8.26328 24.3577 8.11284 24.0297 7.84756 23.6764L8.355 22.3556L8.94641 21.583C9.19883 21.8854 9.45746 22.1048 9.54657 22.0281C9.63567 21.9515 9.48518 21.6234 9.2199 21.2701L9.20398 21.2606L10.3803 19.6899C10.6328 19.9922 10.885 20.1862 10.9646 20.1255C11.0537 20.0488 10.9032 19.7207 10.6379 19.3674L10.622 19.3579L11.6966 17.9213C13.6748 20.4453 14.4769 21.4224 15.9118 23.2971C17.3628 25.1814 18.8931 26.8966 20.2634 28.2997C19.8755 30.4714 19.0584 34.8115 19.0584 34.8115L19.7906 35.9417L23.5303 31.3121C23.8688 31.5792 24.1624 31.7763 24.3858 31.9097C25.0471 32.6512 25.4815 33.0839 25.5516 33.0391C25.6312 32.9784 25.3369 32.4562 24.8125 31.6666C24.7387 31.4277 24.5978 31.0837 24.3802 30.6506L29.8647 28.2108L28.9638 27.218C28.9638 27.218 24.2803 26.8669 22.1601 26.683C21.1974 25.0687 20.0271 23.2221 18.7705 21.3024C16.9712 18.9501 16.2073 17.9092 14.5868 15.7288L16.2368 15.0689C16.5021 15.4222 16.7926 15.6607 16.8817 15.584C16.9613 15.5233 16.8332 15.2303 16.5998 14.896L18.4218 14.1656L18.4378 14.1752C18.703 14.5285 18.9936 14.767 19.0827 14.6903C19.1623 14.6296 19.0437 14.3206 18.8008 14.0023L19.7118 13.6371L21.1237 13.4845C21.3889 13.8379 21.6795 14.0764 21.7686 13.9997C21.8482 13.939 21.7489 13.7064 21.5698 13.4263L23.1156 13.2671L23.1475 13.2861C23.4033 13.6554 23.7033 13.8779 23.7829 13.8172C23.8625 13.7565 23.7568 13.4985 23.5618 13.2088L31.3606 12.3679C31.6194 12.6957 31.958 13.0712 31.9931 13.0488C32.0376 13.0104 31.8522 12.7048 31.5869 12.3515C31.5869 12.3515 30.5191 10.8043 30.2638 10.6518C30.168 10.5946 26.7725 10.2985 22.7298 9.96211L21.8573 8.81304C21.8573 8.81304 21.8602 8.66321 21.8218 8.61865L21.0388 7.60966C20.9397 7.48553 20.7485 7.47954 20.5989 7.58502L19.6089 8.33609C19.4593 8.44158 19.4279 8.6393 19.5269 8.76343L20.2939 9.76285C18.703 9.63528 17.0961 9.49818 15.604 9.38635L14.7091 8.20227C14.7091 8.20227 14.712 8.05243 14.6737 8.00788L13.8907 6.99888C13.7916 6.87475 13.6003 6.86876 13.4507 6.97425L12.4608 7.72532C12.3112 7.8308 12.2797 8.02852 12.3788 8.15265L13.1617 9.16162C13.1617 9.16162 13.2096 9.19022 13.2256 9.19976C11.5103 9.06286 10.1425 8.96035 9.4794 8.91065C9.22054 8.58282 8.9712 8.23901 8.70592 7.88569L8.67403 7.86664Z" fill="#F411CF"/>
</svg>
